<svg width="660" height="139" viewBox="0 0 660 139" fill="none" xmlns="http://www.w3.org/2000/svg">
<path d="M200.754 116.164V44.9519C200.754 43.5737 202.379 43.4616 202.379 43.4616H209.571C211.31 43.4616 211.31 44.9519 211.31 44.9519V116.164C211.31 117.542 212.936 117.654 212.936 117.654H218.966C220.705 117.654 220.705 116.164 220.705 116.164V42.0881C220.705 42.0881 220.705 40.5978 218.966 40.5978H192.985C192.985 40.5978 191.359 40.7146 191.359 42.0881V116.164C191.359 117.542 192.985 117.654 192.985 117.654H199.015C200.754 117.654 200.754 116.164 200.754 116.164ZM259.563 76.2575V42.0834C259.563 42.0834 259.563 40.5931 257.824 40.5931H231.725C231.725 40.5931 230.099 40.7099 230.099 42.0834V116.159C230.099 117.537 231.725 117.649 231.725 117.649H237.754C239.493 117.649 239.493 116.159 239.493 116.159V86.8017C239.493 81.4105 244.479 77.7431 250.05 77.7431H257.824C259.563 77.7431 259.563 76.2528 259.563 76.2528V76.2575ZM248.311 74.8793C245.41 74.8793 241.814 76.2575 239.493 78.6635V44.9519C239.493 43.5737 241.119 43.4616 241.119 43.4616H248.311C250.05 43.4616 250.05 44.9519 250.05 44.9519V73.389C250.05 73.389 250.05 74.8793 248.311 74.8793ZM277.539 51.5999C274.755 59.626 273.361 63.5269 269.652 76.0239C266.75 85.7692 265.474 92.7676 265.474 106.755C265.474 115.356 271.622 119.14 274.174 119.14C281.711 119.14 288.091 111.114 289.366 107.442L291.105 116.159C291.455 117.649 292.731 117.649 292.731 117.649H298.879C300.618 117.649 300.618 116.159 300.618 116.159L284.958 42.0834C284.958 42.0834 284.726 40.5931 283.219 40.5931H277.302C277.302 40.5931 275.332 40.7099 275.677 42.6581L277.534 51.6045L277.539 51.5999ZM288.327 102.859C286.356 107.675 282.874 109.394 278.469 109.394C276.149 109.394 273.829 104.237 273.829 97.3553C273.829 81.9898 275.223 70.4084 278.814 57.3368L288.327 102.863V102.859ZM333.564 80.4995H325.909C320.342 80.4995 315.352 76.8321 315.352 71.4409C315.352 66.0497 320.337 62.3823 325.909 62.3823H332.751C334.49 62.3823 334.49 60.892 334.49 60.892V42.0881C334.49 42.0881 334.49 40.5978 332.751 40.5978H307.583C307.583 40.5978 305.958 40.7146 305.958 42.0881V116.164C305.958 117.542 307.583 117.654 307.583 117.654H333.564C335.303 117.654 335.303 116.164 335.303 116.164V81.9898C335.303 81.9898 335.303 80.4995 333.564 80.4995ZM315.352 113.295V79.467C315.352 79.467 318.948 83.368 324.17 83.368C325.909 83.368 325.909 84.8582 325.909 84.8582V113.295C325.909 113.295 325.909 114.786 324.17 114.786H316.978C316.978 114.786 315.352 114.669 315.352 113.295ZM324.17 59.4017C321.155 59.4017 317.672 60.892 315.352 63.3027V44.9566C315.352 43.5784 316.978 43.4663 316.978 43.4663H324.17C325.909 43.4663 325.909 44.9566 325.909 44.9566V57.9161C325.909 57.9161 325.909 59.4064 324.17 59.4064V59.4017ZM349.456 48.5071C344.584 54.6972 343.54 65.4797 343.54 70.7542C343.54 83.9426 349.688 96.6685 351.89 106.76C353.629 114.557 352.471 119.261 355.023 119.261C361.171 119.261 365.116 112.496 366.855 110.203C372.422 103.321 372.772 90.2495 372.772 88.0724C372.772 73.1648 365.811 60.7799 364.19 52.067C362.683 43.9241 364.072 39.57 361.289 39.57C356.417 39.57 352.589 44.4988 349.456 48.5165V48.5071ZM355.141 58.2525C356.535 62.4944 359.2 68.3435 363.028 79.8127C364.19 83.368 367.205 89.5581 365.811 101.027C365.348 102.863 364.885 107.217 363.259 107.217C362.333 107.217 362.678 104.807 361.057 100.453C357.111 90.1327 356.766 88.9834 353.284 79.126C349.919 69.2639 349.919 66.4001 350.614 57.7993C350.845 55.2765 351.54 51.6092 353.052 51.6092C353.633 51.6092 353.17 52.5249 355.141 58.2618V58.2525ZM379.964 63.5269C379.964 85.3161 392.723 103.088 392.723 110.086C392.723 112.725 391.215 114.902 390.053 115.706H388.895C390.171 114.557 390.866 113.066 390.866 111.118C390.866 108.138 387.964 106.073 385.299 106.073C383.442 106.073 379.964 107.563 379.964 111.347C379.964 115.477 384.141 118.341 389.708 118.341C397.945 118.341 409.196 105.152 409.196 89.9038V85.0872C409.196 84.1715 408.615 83.4801 407.57 83.4801H401.541C400.614 83.4801 399.915 84.3957 399.915 85.0872V91.0484C399.915 95.636 401.191 111.805 392.028 115.472C402.817 105.265 389.358 82.9054 389.358 62.0366C389.358 46.3254 391.329 41.8545 394.575 41.8545C398.053 41.8545 399.91 46.2133 399.91 62.0366V68.6892C399.91 69.6049 400.492 70.2963 401.536 70.2963H407.566C408.378 70.2963 409.191 69.7217 409.191 68.6892V63.5269C409.191 47.9325 405.482 38.7571 394.575 38.7571C381.816 38.7571 379.959 54.1226 379.959 63.5269H379.964ZM430.881 116.164C428.561 113.295 423.807 106.76 423.807 97.3553C423.807 81.9898 425.201 70.5206 428.793 57.4489L441.088 116.159C441.438 117.649 442.714 117.649 442.714 117.649H448.862C450.601 117.649 450.601 116.159 450.601 116.159L434.941 42.0834C434.941 42.0834 434.709 40.5931 433.202 40.5931H427.285C427.285 40.5931 425.315 40.7099 425.66 42.6581L427.517 51.6045C424.733 59.6306 423.339 63.5316 419.63 76.0286C416.728 85.7739 415.453 92.6554 415.453 102.405C415.453 111.006 419.162 117.659 420.67 117.659H429.138C430.877 117.659 430.877 116.169 430.877 116.169L430.881 116.164ZM465.68 51.6045C462.897 59.6306 461.503 63.5316 457.793 76.0286C454.892 85.7739 453.616 92.7722 453.616 106.76C453.616 115.36 459.764 119.144 462.315 119.144C469.853 119.144 476.232 111.118 477.508 107.446L479.247 116.164C479.597 117.654 480.872 117.654 480.872 117.654H487.02C488.759 117.654 488.759 116.164 488.759 116.164L473.099 42.0881C473.099 42.0881 472.868 40.5978 471.36 40.5978H465.444C465.444 40.5978 463.473 40.7146 463.818 42.6627L465.675 51.6092L465.68 51.6045ZM476.468 102.863C474.498 107.68 471.015 109.399 466.611 109.399C464.291 109.399 461.97 104.241 461.97 97.3599C461.97 81.9945 463.365 70.4131 466.956 57.3415L476.468 102.868V102.863ZM521.706 80.5042H514.05C508.484 80.5042 503.494 76.8368 503.494 71.4456C503.494 66.0543 508.479 62.387 514.05 62.387H520.893C522.632 62.387 522.632 60.8967 522.632 60.8967V42.0928C522.632 42.0928 522.632 40.6025 520.893 40.6025H495.725C495.725 40.6025 494.099 40.7193 494.099 42.0928V116.169C494.099 117.547 495.725 117.659 495.725 117.659H521.706C523.445 117.659 523.445 116.169 523.445 116.169V81.9944C523.445 81.9944 523.445 80.5042 521.706 80.5042ZM503.494 113.3V79.4717C503.494 79.4717 507.09 83.3726 512.311 83.3726C514.05 83.3726 514.05 84.8629 514.05 84.8629V113.3C514.05 113.3 514.05 114.79 512.311 114.79H505.119C505.119 114.79 503.494 114.674 503.494 113.3ZM512.311 59.4064C509.296 59.4064 505.814 60.8967 503.494 63.3073V44.9613C503.494 43.5831 505.119 43.471 505.119 43.471H512.311C514.05 43.471 514.05 44.9613 514.05 44.9613V57.9208C514.05 57.9208 514.05 59.4111 512.311 59.4111V59.4064ZM552.79 83.6015V116.169C552.79 117.547 554.416 117.659 554.416 117.659H560.445C562.184 117.659 562.184 116.169 562.184 116.169V42.0928C562.184 42.0928 562.184 40.6025 560.445 40.6025H554.416C554.416 40.6025 552.79 40.7193 552.79 42.0928V78.4439C549.312 77.5282 542.233 73.8562 542.233 69.7264V42.0928C542.233 42.0928 542.233 40.6025 540.494 40.6025H534.465C534.465 40.6025 532.839 40.7193 532.839 42.0928V116.169C532.839 117.547 534.465 117.659 534.465 117.659H540.494C542.233 117.659 542.233 116.169 542.233 116.169V76.379C545.829 81.1956 552.79 80.1631 552.79 83.6015ZM599.185 80.5042H591.53C585.963 80.5042 580.973 76.8368 580.973 71.4456V42.0881C580.973 42.0881 580.973 40.5978 579.234 40.5978H573.204C573.204 40.5978 571.579 40.7146 571.579 42.0881V116.164C571.579 117.542 573.204 117.654 573.204 117.654H599.185C600.924 117.654 600.924 116.164 600.924 116.164V81.9898C600.924 81.9898 600.924 80.4995 599.185 80.4995V80.5042ZM611.363 42.0881V116.164C611.363 117.542 612.988 117.654 612.988 117.654H619.018C620.757 117.654 620.757 116.164 620.757 116.164V42.0881C620.757 42.0881 620.757 40.5978 619.018 40.5978H612.988C612.988 40.5978 611.363 40.7146 611.363 42.0881ZM580.973 79.4717C583.293 81.8823 586.889 83.3726 589.791 83.3726C591.53 83.3726 591.53 84.8629 591.53 84.8629V113.3C591.53 113.3 591.53 114.79 589.791 114.79H582.599C582.599 114.79 580.973 114.674 580.973 113.3V79.4717ZM646.161 28.1008C646.161 28.1008 644.886 26.7226 643.378 28.2176L640.132 31.4271C640.132 31.4271 638.856 32.9174 640.014 34.0667L643.61 37.6219C644.772 38.7665 646.28 37.5051 646.28 37.5051L649.526 34.2956C651.033 32.8053 649.644 31.5439 649.644 31.5439L646.166 28.1055L646.161 28.1008ZM650.221 67.5493V116.169C650.221 117.547 651.846 117.659 651.846 117.659H657.876C659.615 117.659 659.615 116.169 659.615 116.169V42.0928C659.615 42.0928 659.615 40.6025 657.876 40.6025H651.846C651.846 40.6025 650.221 40.7193 650.221 42.0928V57.4583C650.221 59.2943 649.176 62.046 648.25 63.8773L639.669 81.4198V42.0881C639.669 42.0881 639.669 40.5978 637.93 40.5978H631.9C631.9 40.5978 630.274 40.7146 630.274 42.0881V116.164C630.274 117.542 631.9 117.654 631.9 117.654H637.93C639.669 117.654 639.669 116.164 639.669 116.164V90.8194C639.669 87.722 640.944 85.545 641.526 84.3957L650.225 67.54L650.221 67.5493Z" fill="url(#paint0_linear)"/>
<path d="M15.7037 3.87712C16.1443 7.7035 20.4159 17.4902 22.4967 21.9053C24.9446 27.1788 30.1343 38.2779 31.3093 40.4854C32.7781 43.2448 52.79 62.5607 56.6455 66.7918C60.501 71.0229 82.3489 81.3247 89.1419 83.9001C95.9349 86.4756 112.091 88.4992 115.212 88.4992C117.709 88.4992 127.146 84.452 131.552 82.4285C135.408 80.5888 143.633 76.6153 145.689 75.4379C148.26 73.9663 151.564 72.8625 153.4 74.7021C155.236 76.5417 154.685 81.6926 148.443 83.9001C150.83 85.9237 149.178 91.2586 139.447 94.2019C141.834 96.9613 139.998 101.56 129.9 102.296C132.287 103.768 131.002 108.919 121.638 108.551C123.474 111.494 119.619 112.966 109.888 111.862C113.009 116.093 103.279 115.725 93.181 112.966C94.2826 117.749 90.6107 117.381 87.8567 113.702C87.6731 118.301 84.0012 117.197 82.3489 114.07C82.3489 117.565 79.0441 117.565 76.841 113.886C75.3722 118.853 72.9855 117.381 72.6183 113.702C69.8644 116.829 66.1925 115.909 66.7432 112.966C61.1619 115.026 61.4802 112.475 62.337 110.942L39.0203 107.631C36.6336 106.527 35.8992 105.791 36.6336 103.4C33.3289 104.504 31.4929 102.112 32.5945 100.457C30.0241 100.641 26.7194 98.801 28.739 96.9613C23.5983 96.4095 21.7623 94.5699 23.9655 92.3623C20.6608 92.1784 18.4576 90.7067 20.2936 88.4992C16.6217 88.3152 15.5201 86.8435 17.9068 84.8199C14.6021 84.8199 13.3169 82.9803 16.4381 81.3247C13.3169 81.1407 10.563 79.1172 13.6841 76.9096C9.82864 77.2775 8.35987 74.3342 12.2154 72.8625C5.42234 69.3672 4.32077 66.2399 8.54347 64.7682C1.19965 60.1692 -0.819905 53.9145 6.34032 53.9145C0.281669 49.3155 -1.0035 41.5892 3.03556 42.325C-0.636389 39.0137 -1.3707 30.3675 3.03556 31.6553C-0.636352 27.6081 -0.0855656 18.778 5.05511 19.3299C2.48478 15.0988 3.95354 6.45264 9.27781 7.18841C9.27781 -2.74547 15.1529 -0.905866 15.7037 3.87712Z" fill="url(#paint1_linear)"/>
<path d="M28.5552 28.7109C30.6114 33.5675 34.1854 41.0363 35.7154 44.1636C41.015 51.2133 48.8053 60.3458 56.8288 66.9748C67.2938 75.621 77.3915 78.5643 77.7587 80.036C78.1259 81.5077 73.536 89.418 69.4969 94.017C65.4578 98.6161 53.1569 102.295 52.6061 102.295C52.0554 102.295 44.1607 100.64 43.0592 96.4085C38.1021 95.4887 36.4497 92.3614 37.5513 88.8661C31.6763 86.6586 27.0864 82.0596 29.6567 79.1162C23.9652 75.621 20.8441 71.5738 25.0668 67.8946C19.7425 63.6635 17.5394 58.3287 21.3949 55.2013C16.805 50.6023 14.9691 45.8193 18.8246 43.0599C13.2433 35.4071 17.2334 31.6543 19.9262 30.7345C19.4366 30.4892 18.5308 28.343 18.8246 21.7204C19.1918 13.4422 25.9848 22.6402 28.5552 28.7109Z" fill="url(#paint2_linear)"/>
<path d="M60.0519 66.3777C66.0738 70.9399 76.8815 75.6371 81.5326 77.4153C82.6953 77.722 87.7381 79.5125 98.6069 84.2219C112.193 90.1087 125.045 82.3823 128.533 80.5427C132.021 78.7031 134.041 79.9908 134.408 81.4625C134.775 82.9342 133.49 86.4294 126.146 88.453C129.267 89.005 128.717 95.0756 116.783 96.3633C117.701 102.066 111.826 103.354 104.666 102.618C107.97 106.665 97.8726 107.585 88.3256 106.665C91.8139 111.448 71.6184 109.609 68.8645 108.873C66.1105 108.137 56.9308 101.882 54.3604 101.146C51.7901 100.41 49.9541 98.2029 51.7901 93.9718C44.9971 93.7879 43.7119 87.3493 47.2002 83.4861C36.5517 79.9908 37.286 75.0239 42.6103 73.3682C34.3485 69.3211 33.6141 65.274 36.3681 63.9862C31.9618 60.6749 29.7586 57.3636 32.6962 54.2363C27.9961 49.2326 31.8394 47.859 34.3485 47.7977C33.9201 46.0807 33.1735 42.242 33.6141 40.6232C34.1649 38.5996 34.7157 38.2317 39.122 45.958C43.5283 53.6844 52.5245 60.6749 60.0519 66.3777Z" fill="url(#paint3_linear)"/>
<path d="M101.078 62.929C101.96 65.1365 104.138 66.5469 105.118 66.9761C98.8753 69.1837 97.5901 73.4148 97.7737 75.8063C97.9573 78.1977 100.528 80.7732 100.528 87.5797C100.528 95.1423 92.633 100.825 87.8596 103.032C83.0861 105.24 77.3946 106.528 74.4571 107.815C71.5196 109.103 67.4805 110.575 59.5858 112.046C58.6679 113.702 58.6679 117.933 60.871 125.108C63.0742 132.282 62.3398 134.306 61.9726 135.226C61.6054 136.145 57.7499 139.089 55.1796 131.546C55.7303 140.56 51.1405 139.825 48.2029 132.834C46.5506 140.928 42.8787 140.928 41.7771 133.57C39.9411 141.296 35.3512 139.273 35.3512 132.282C30.2106 138.721 27.0894 136.513 28.9254 130.075C19.9292 135.961 18.2769 132.834 21.7652 127.499C12.5854 131.914 11.3002 128.051 14.7885 124.74C11.851 125.66 4.32361 126.395 4.87439 123.084C5.42518 119.773 17.5425 115.358 21.2144 113.702C24.8863 112.046 51.5076 100.641 58.3007 97.5136C65.0937 94.3863 69.6836 87.9476 70.9688 86.108C72.2539 84.2684 75.9258 77.4619 79.965 71.2072C84.0041 64.9526 86.9416 60.1183 91.3479 58.882C95.9377 57.5941 99.9769 60.1696 101.078 62.929Z" fill="url(#paint4_linear)"/>
<defs>
<linearGradient id="paint0_linear" x1="191.359" y1="27.5215" x2="225.978" y2="204.219" gradientUnits="userSpaceOnUse">
<stop stop-color="#C9BBAE"/>
<stop offset="1" stop-color="#9A7F5F"/>
</linearGradient>
<linearGradient id="paint1_linear" x1="-24.6018" y1="51.523" x2="162.285" y2="115.549" gradientUnits="userSpaceOnUse">
<stop stop-color="#E2EAFD"/>
<stop offset="0.420048" stop-color="#5B8AE6"/>
<stop offset="1" stop-color="#DDE9FC"/>
</linearGradient>
<linearGradient id="paint2_linear" x1="16.1562" y1="34.5977" x2="63.1911" y2="56.9683" gradientUnits="userSpaceOnUse">
<stop stop-color="#DDE8FB"/>
<stop offset="1" stop-color="#5486E7"/>
</linearGradient>
<linearGradient id="paint3_linear" x1="55.8127" y1="61.2732" x2="97.5887" y2="112.517" gradientUnits="userSpaceOnUse">
<stop stop-color="#E2EAFD"/>
<stop offset="0.598153" stop-color="#5F8DE8"/>
<stop offset="1" stop-color="#DDE9FC"/>
</linearGradient>
<linearGradient id="paint4_linear" x1="74.5426" y1="44.7169" x2="18.5759" y2="128.5" gradientUnits="userSpaceOnUse">
<stop stop-color="#E4ECFF"/>
<stop offset="1" stop-color="#5381D9"/>
</linearGradient>
</defs>
</svg>
