<svg width="60" height="60" viewBox="0 0 60 60" fill="none" xmlns="http://www.w3.org/2000/svg">
<path d="M55.3125 1.875H29.0625C28.3173 1.87723 27.6032 2.17426 27.0762 2.70122C26.5493 3.22819 26.2522 3.94226 26.25 4.6875V5.625H25.3125C24.5673 5.62723 23.8532 5.92426 23.3262 6.45122C22.7993 6.97819 22.5022 7.69226 22.5 8.4375V25.3125C22.5022 26.0577 22.7993 26.7718 23.3262 27.2988C23.8532 27.8257 24.5673 28.1228 25.3125 28.125H51.5625C52.3077 28.1228 53.0218 27.8257 53.5488 27.2988C54.0757 26.7718 54.3728 26.0577 54.375 25.3125V24.375H55.3125C56.0577 24.3728 56.7718 24.0757 57.2988 23.5488C57.8257 23.0218 58.1228 22.3077 58.125 21.5625V4.6875C58.1228 3.94226 57.8257 3.22819 57.2988 2.70122C56.7718 2.17426 56.0577 1.87723 55.3125 1.875ZM52.5 25.3125C52.5 25.5611 52.4012 25.7996 52.2254 25.9754C52.0496 26.1512 51.8111 26.25 51.5625 26.25H25.3125C25.0639 26.25 24.8254 26.1512 24.6496 25.9754C24.4738 25.7996 24.375 25.5611 24.375 25.3125V8.4375C24.375 8.18886 24.4738 7.9504 24.6496 7.77459C24.8254 7.59877 25.0639 7.5 25.3125 7.5H51.5625C51.8111 7.5 52.0496 7.59877 52.2254 7.77459C52.4012 7.9504 52.5 8.18886 52.5 8.4375V25.3125ZM56.25 21.5625C56.25 21.8111 56.1512 22.0496 55.9754 22.2254C55.7996 22.4012 55.5611 22.5 55.3125 22.5H54.375V8.4375C54.3728 7.69226 54.0757 6.97819 53.5488 6.45122C53.0218 5.92426 52.3077 5.62723 51.5625 5.625H28.125V4.6875C28.125 4.43886 28.2238 4.2004 28.3996 4.02459C28.5754 3.84877 28.8139 3.75 29.0625 3.75H55.3125C55.5611 3.75 55.7996 3.84877 55.9754 4.02459C56.1512 4.2004 56.25 4.43886 56.25 4.6875V21.5625Z" fill="url(#paint0_linear)"/>
<path d="M35.625 14.0625V12.1875C35.625 11.4416 35.3287 10.7262 34.8012 10.1988C34.2738 9.67132 33.5584 9.375 32.8125 9.375H29.0625C28.3166 9.375 27.6012 9.67132 27.0738 10.1988C26.5463 10.7262 26.25 11.4416 26.25 12.1875V14.0625C26.25 14.8084 26.5463 15.5238 27.0738 16.0512C27.6012 16.5787 28.3166 16.875 29.0625 16.875H32.8125C33.5584 16.875 34.2738 16.5787 34.8012 16.0512C35.3287 15.5238 35.625 14.8084 35.625 14.0625ZM33.75 12.1875H31.875V11.25H32.8125C33.0611 11.25 33.2996 11.3488 33.4754 11.5246C33.6512 11.7004 33.75 11.9389 33.75 12.1875ZM28.125 14.0625V12.1875C28.125 11.9389 28.2238 11.7004 28.3996 11.5246C28.5754 11.3488 28.8139 11.25 29.0625 11.25H30V15H29.0625C28.8139 15 28.5754 14.9012 28.3996 14.7254C28.2238 14.5496 28.125 14.3111 28.125 14.0625ZM32.8125 15H31.875V14.0625H33.75C33.75 14.3111 33.6512 14.5496 33.4754 14.7254C33.2996 14.9012 33.0611 15 32.8125 15Z" fill="url(#paint1_linear)"/>
<path d="M42.1875 20.625H40.3125C40.0639 20.625 39.8254 20.7238 39.6496 20.8996C39.4738 21.0754 39.375 21.3139 39.375 21.5625C39.375 21.8111 39.4738 22.0496 39.6496 22.2254C39.8254 22.4012 40.0639 22.5 40.3125 22.5H42.1875C42.4361 22.5 42.6746 22.4012 42.8504 22.2254C43.0262 22.0496 43.125 21.8111 43.125 21.5625C43.125 21.3139 43.0262 21.0754 42.8504 20.8996C42.6746 20.7238 42.4361 20.625 42.1875 20.625Z" fill="url(#paint2_linear)"/>
<path d="M47.8125 20.625H45.9375C45.6889 20.625 45.4504 20.7238 45.2746 20.8996C45.0988 21.0754 45 21.3139 45 21.5625C45 21.8111 45.0988 22.0496 45.2746 22.2254C45.4504 22.4012 45.6889 22.5 45.9375 22.5H47.8125C48.0611 22.5 48.2996 22.4012 48.4754 22.2254C48.6512 22.0496 48.75 21.8111 48.75 21.5625C48.75 21.3139 48.6512 21.0754 48.4754 20.8996C48.2996 20.7238 48.0611 20.625 47.8125 20.625Z" fill="url(#paint3_linear)"/>
<path d="M36.5625 20.625H34.6875C34.4389 20.625 34.2004 20.7238 34.0246 20.8996C33.8488 21.0754 33.75 21.3139 33.75 21.5625C33.75 21.8111 33.8488 22.0496 34.0246 22.2254C34.2004 22.4012 34.4389 22.5 34.6875 22.5H36.5625C36.8111 22.5 37.0496 22.4012 37.2254 22.2254C37.4012 22.0496 37.5 21.8111 37.5 21.5625C37.5 21.3139 37.4012 21.0754 37.2254 20.8996C37.0496 20.7238 36.8111 20.625 36.5625 20.625Z" fill="url(#paint4_linear)"/>
<path d="M30.9375 20.625H29.0625C28.8139 20.625 28.5754 20.7238 28.3996 20.8996C28.2238 21.0754 28.125 21.3139 28.125 21.5625C28.125 21.8111 28.2238 22.0496 28.3996 22.2254C28.5754 22.4012 28.8139 22.5 29.0625 22.5H30.9375C31.1861 22.5 31.4246 22.4012 31.6004 22.2254C31.7762 22.0496 31.875 21.8111 31.875 21.5625C31.875 21.3139 31.7762 21.0754 31.6004 20.8996C31.4246 20.7238 31.1861 20.625 30.9375 20.625Z" fill="url(#paint5_linear)"/>
<path d="M39.375 12.1875C39.375 11.9389 39.2762 11.7004 39.1004 11.5246C38.9246 11.3488 38.6861 11.25 38.4375 11.25C38.1889 11.25 37.9504 11.3488 37.7746 11.5246C37.5988 11.7004 37.5 11.9389 37.5 12.1875V14.0625C37.5 14.3111 37.5988 14.5496 37.7746 14.7254C37.9504 14.9012 38.1889 15 38.4375 15C38.6861 15 38.9246 14.9012 39.1004 14.7254C39.2762 14.5496 39.375 14.3111 39.375 14.0625V12.1875Z" fill="url(#paint6_linear)"/>
<path d="M42.1875 11.25C41.9389 11.25 41.7004 11.3488 41.5246 11.5246C41.3488 11.7004 41.25 11.9389 41.25 12.1875V14.0625C41.25 14.3111 41.3488 14.5496 41.5246 14.7254C41.7004 14.9012 41.9389 15 42.1875 15C42.4361 15 42.6746 14.9012 42.8504 14.7254C43.0262 14.5496 43.125 14.3111 43.125 14.0625V12.1875C43.125 11.9389 43.0262 11.7004 42.8504 11.5246C42.6746 11.3488 42.4361 11.25 42.1875 11.25Z" fill="url(#paint7_linear)"/>
<path d="M45.9375 15C46.1861 15 46.4246 14.9012 46.6004 14.7254C46.7762 14.5496 46.875 14.3111 46.875 14.0625V12.1875C46.875 11.9389 46.7762 11.7004 46.6004 11.5246C46.4246 11.3488 46.1861 11.25 45.9375 11.25C45.6889 11.25 45.4504 11.3488 45.2746 11.5246C45.0988 11.7004 45 11.9389 45 12.1875V14.0625C45 14.3111 45.0988 14.5496 45.2746 14.7254C45.4504 14.9012 45.6889 15 45.9375 15Z" fill="url(#paint8_linear)"/>
<path d="M49.6875 11.25C49.4389 11.25 49.2004 11.3488 49.0246 11.5246C48.8488 11.7004 48.75 11.9389 48.75 12.1875V14.0625C48.75 14.3111 48.8488 14.5496 49.0246 14.7254C49.2004 14.9012 49.4389 15 49.6875 15C49.9361 15 50.1746 14.9012 50.3504 14.7254C50.5262 14.5496 50.625 14.3111 50.625 14.0625V12.1875C50.625 11.9389 50.5262 11.7004 50.3504 11.5246C50.1746 11.3488 49.9361 11.25 49.6875 11.25Z" fill="url(#paint9_linear)"/>
<path d="M38.8405 39.4688L21.028 31.0313C20.9021 30.9713 20.7644 30.9402 20.6249 30.9402C20.4854 30.9402 20.3477 30.9713 20.2218 31.0313L2.40926 39.4688C2.21869 39.5611 2.06498 39.7151 1.97314 39.9059C1.88131 40.0967 1.85676 40.313 1.9035 40.5195C1.95023 40.726 2.0655 40.9106 2.23054 41.0433C2.39557 41.1759 2.60065 41.2488 2.81238 41.25H3.74988V44.0625C3.74988 44.3112 3.84866 44.5496 4.02447 44.7254C4.20029 44.9013 4.43874 45 4.68738 45H6.56238V52.5H4.68738C4.43874 52.5 4.20029 52.5988 4.02447 52.7746C3.84866 52.9504 3.74988 53.1889 3.74988 53.4375V57.1875C3.74988 57.4362 3.84866 57.6746 4.02447 57.8504C4.20029 58.0263 4.43874 58.125 4.68738 58.125H36.5624C36.811 58.125 37.0495 58.0263 37.2253 57.8504C37.4011 57.6746 37.4999 57.4362 37.4999 57.1875V53.4375C37.4999 53.1889 37.4011 52.9504 37.2253 52.7746C37.0495 52.5988 36.811 52.5 36.5624 52.5H34.6874V45H36.5624C36.811 45 37.0495 44.9013 37.2253 44.7254C37.4011 44.5496 37.4999 44.3112 37.4999 44.0625V41.25H38.4374C38.6491 41.2488 38.8542 41.1759 39.0192 41.0433C39.1843 40.9106 39.2995 40.726 39.3463 40.5195C39.393 40.313 39.3685 40.0967 39.2766 39.9059C39.1848 39.7151 39.0311 39.5611 38.8405 39.4688ZM20.6249 32.9157L34.2655 39.375H6.98426L20.6249 32.9157ZM35.6249 54.375V56.25H5.62488V54.375H35.6249ZM8.43738 52.5V45H10.3124V52.5H8.43738ZM12.1874 52.5V45H14.0624V52.5H12.1874ZM15.9374 52.5V45H17.8124V52.5H15.9374ZM19.6874 52.5V45H21.5624V52.5H19.6874ZM23.4374 52.5V45H25.3124V52.5H23.4374ZM27.1874 52.5V45H29.0624V52.5H27.1874ZM30.9374 52.5V45H32.8124V52.5H30.9374ZM35.6249 43.125H5.62488V41.25H35.6249V43.125Z" fill="url(#paint10_linear)"/>
<path d="M23.4375 36.5625C23.4375 36.0062 23.2725 35.4625 22.9635 35C22.6545 34.5374 22.2152 34.177 21.7013 33.9641C21.1874 33.7512 20.6219 33.6955 20.0763 33.804C19.5307 33.9126 19.0296 34.1804 18.6363 34.5738C18.2429 34.9671 17.9751 35.4682 17.8665 36.0138C17.758 36.5594 17.8137 37.1249 18.0266 37.6388C18.2395 38.1527 18.5999 38.592 19.0625 38.901C19.525 39.2101 20.0687 39.375 20.625 39.375C21.3709 39.375 22.0863 39.0787 22.6137 38.5512C23.1412 38.0238 23.4375 37.3084 23.4375 36.5625ZM20.625 37.5C20.4396 37.5 20.2583 37.445 20.1042 37.342C19.95 37.239 19.8298 37.0926 19.7589 36.9213C19.6879 36.75 19.6693 36.5615 19.7055 36.3796C19.7417 36.1977 19.831 36.0307 19.9621 35.8996C20.0932 35.7685 20.2602 35.6792 20.4421 35.643C20.624 35.6068 20.8125 35.6254 20.9838 35.6964C21.1551 35.7673 21.3015 35.8875 21.4045 36.0417C21.5075 36.1958 21.5625 36.3771 21.5625 36.5625C21.5625 36.8111 21.4637 37.0496 21.2879 37.2254C21.1121 37.4012 20.8736 37.5 20.625 37.5Z" fill="url(#paint11_linear)"/>
<path d="M2.8125 29.0624H6.5625C6.81114 29.0624 7.0496 28.9636 7.22541 28.7878C7.40123 28.612 7.5 28.3735 7.5 28.1249V18.7499H13.125V20.6249C13.1251 20.803 13.1759 20.9775 13.2715 21.1278C13.3671 21.2781 13.5036 21.398 13.6649 21.4736C13.8262 21.5491 14.0057 21.5771 14.1824 21.5543C14.3591 21.5316 14.5256 21.4589 14.6625 21.3449L20.2875 16.6574C20.393 16.5694 20.4779 16.4593 20.5361 16.3349C20.5944 16.2105 20.6246 16.0748 20.6246 15.9374C20.6246 15.8 20.5944 15.6643 20.5361 15.5399C20.4779 15.4155 20.393 15.3054 20.2875 15.2174L14.6625 10.5299C14.5256 10.4159 14.3591 10.3432 14.1824 10.3204C14.0057 10.2977 13.8262 10.3257 13.6649 10.4012C13.5036 10.4768 13.3671 10.5967 13.2715 10.747C13.1759 10.8973 13.1251 11.0718 13.125 11.2499V13.1249H4.6875C3.94158 13.1249 3.22621 13.4212 2.69876 13.9487C2.17132 14.4761 1.875 15.1915 1.875 15.9374V28.1249C1.875 28.3735 1.97377 28.612 2.14959 28.7878C2.3254 28.9636 2.56386 29.0624 2.8125 29.0624ZM3.75 15.9374C3.75 15.6888 3.84877 15.4503 4.02459 15.2745C4.2004 15.0987 4.43886 14.9999 4.6875 14.9999H14.0625C14.3111 14.9999 14.5496 14.9011 14.7254 14.7253C14.9012 14.5495 15 14.311 15 14.0624V13.2515L18.2231 15.9374L15 18.6233V17.8124C15 17.5638 14.9012 17.3253 14.7254 17.1495C14.5496 16.9737 14.3111 16.8749 14.0625 16.8749H6.5625C6.31386 16.8749 6.0754 16.9737 5.89959 17.1495C5.72377 17.3253 5.625 17.5638 5.625 17.8124V27.1874H3.75V15.9374Z" fill="url(#paint12_linear)"/>
<path d="M55.3124 35.625H51.5624C51.3137 35.625 51.0753 35.7238 50.8995 35.8996C50.7237 36.0754 50.6249 36.3139 50.6249 36.5625V45.9375H44.9999V44.0625C45.0002 43.8842 44.9496 43.7095 44.8541 43.5589C44.7587 43.4084 44.6222 43.2881 44.4608 43.2124C44.2994 43.1366 44.1198 43.1084 43.9429 43.1311C43.7661 43.1538 43.5994 43.2265 43.4624 43.3406L37.8374 48.0281C37.7312 48.1161 37.6458 48.2264 37.5871 48.3512C37.5285 48.476 37.498 48.6121 37.498 48.75C37.498 48.8879 37.5285 49.0241 37.5871 49.1488C37.6458 49.2736 37.7312 49.3839 37.8374 49.4719L43.4624 54.1594C43.631 54.2992 43.8433 54.3754 44.0624 54.375C44.1981 54.3751 44.3323 54.3463 44.4561 54.2906C44.6189 54.2153 44.7566 54.0949 44.853 53.9437C44.9493 53.7925 45.0003 53.6168 44.9999 53.4375V51.5625H53.4374C54.1826 51.5603 54.8967 51.2633 55.4237 50.7363C55.9506 50.2093 56.2477 49.4952 56.2499 48.75V36.5625C56.2499 36.3139 56.1511 36.0754 55.9753 35.8996C55.7995 35.7238 55.561 35.625 55.3124 35.625ZM54.3749 48.75C54.3749 48.9986 54.2761 49.2371 54.1003 49.4129C53.9245 49.5887 53.686 49.6875 53.4374 49.6875H44.0624C43.8137 49.6875 43.5753 49.7863 43.3995 49.9621C43.2237 50.1379 43.1249 50.3764 43.1249 50.625V51.4313L39.8999 48.75L43.1249 46.0688V46.875C43.1249 47.1236 43.2237 47.3621 43.3995 47.5379C43.5753 47.7137 43.8137 47.8125 44.0624 47.8125H51.5624C51.811 47.8125 52.0495 47.7137 52.2253 47.5379C52.4011 47.3621 52.4999 47.1236 52.4999 46.875V37.5H54.3749V48.75Z" fill="url(#paint13_linear)"/>
<defs>
<linearGradient id="paint0_linear" x1="22.5" y1="1.875" x2="47.5718" y2="35.901" gradientUnits="userSpaceOnUse">
<stop stop-color="#C9BBAE"/>
<stop offset="1" stop-color="#9A7F5F"/>
</linearGradient>
<linearGradient id="paint1_linear" x1="26.25" y1="9.375" x2="33.5671" y2="18.5213" gradientUnits="userSpaceOnUse">
<stop stop-color="#C9BBAE"/>
<stop offset="1" stop-color="#9A7F5F"/>
</linearGradient>
<linearGradient id="paint2_linear" x1="39.375" y1="20.625" x2="40.875" y2="23.625" gradientUnits="userSpaceOnUse">
<stop stop-color="#C9BBAE"/>
<stop offset="1" stop-color="#9A7F5F"/>
</linearGradient>
<linearGradient id="paint3_linear" x1="45" y1="20.625" x2="46.5" y2="23.625" gradientUnits="userSpaceOnUse">
<stop stop-color="#C9BBAE"/>
<stop offset="1" stop-color="#9A7F5F"/>
</linearGradient>
<linearGradient id="paint4_linear" x1="33.75" y1="20.625" x2="35.25" y2="23.625" gradientUnits="userSpaceOnUse">
<stop stop-color="#C9BBAE"/>
<stop offset="1" stop-color="#9A7F5F"/>
</linearGradient>
<linearGradient id="paint5_linear" x1="28.125" y1="20.625" x2="29.625" y2="23.625" gradientUnits="userSpaceOnUse">
<stop stop-color="#C9BBAE"/>
<stop offset="1" stop-color="#9A7F5F"/>
</linearGradient>
<linearGradient id="paint6_linear" x1="37.5" y1="11.25" x2="40.5" y2="12.75" gradientUnits="userSpaceOnUse">
<stop stop-color="#C9BBAE"/>
<stop offset="1" stop-color="#9A7F5F"/>
</linearGradient>
<linearGradient id="paint7_linear" x1="41.25" y1="11.25" x2="44.25" y2="12.75" gradientUnits="userSpaceOnUse">
<stop stop-color="#C9BBAE"/>
<stop offset="1" stop-color="#9A7F5F"/>
</linearGradient>
<linearGradient id="paint8_linear" x1="45" y1="11.25" x2="48" y2="12.75" gradientUnits="userSpaceOnUse">
<stop stop-color="#C9BBAE"/>
<stop offset="1" stop-color="#9A7F5F"/>
</linearGradient>
<linearGradient id="paint9_linear" x1="48.75" y1="11.25" x2="51.75" y2="12.75" gradientUnits="userSpaceOnUse">
<stop stop-color="#C9BBAE"/>
<stop offset="1" stop-color="#9A7F5F"/>
</linearGradient>
<linearGradient id="paint10_linear" x1="1.88037" y1="30.9402" x2="27.7192" y2="66.573" gradientUnits="userSpaceOnUse">
<stop stop-color="#C9BBAE"/>
<stop offset="1" stop-color="#9A7F5F"/>
</linearGradient>
<linearGradient id="paint11_linear" x1="17.8125" y1="33.75" x2="23.4375" y2="39.375" gradientUnits="userSpaceOnUse">
<stop stop-color="#C9BBAE"/>
<stop offset="1" stop-color="#9A7F5F"/>
</linearGradient>
<linearGradient id="paint12_linear" x1="1.875" y1="10.3127" x2="20.6246" y2="29.0623" gradientUnits="userSpaceOnUse">
<stop stop-color="#C9BBAE"/>
<stop offset="1" stop-color="#9A7F5F"/>
</linearGradient>
<linearGradient id="paint13_linear" x1="37.498" y1="35.625" x2="56.2481" y2="54.3768" gradientUnits="userSpaceOnUse">
<stop stop-color="#C9BBAE"/>
<stop offset="1" stop-color="#9A7F5F"/>
</linearGradient>
</defs>
</svg>
