<svg width="200" height="180" viewBox="0 0 200 180" fill="none" xmlns="http://www.w3.org/2000/svg">
<path d="M20.3357 5.02073C20.9063 9.97577 26.4379 22.6492 29.1324 28.3666C32.3025 35.1957 39.0229 49.5685 40.5445 52.4272C42.4465 56.0005 68.3612 81.0139 73.354 86.4931C78.3467 91.9722 106.639 105.313 115.436 108.648C124.232 111.983 145.154 114.603 149.196 114.603C152.43 114.603 164.65 109.362 170.356 106.742C175.349 104.36 186 99.2142 188.663 97.6895C191.991 95.7838 196.271 94.3544 198.648 96.7367C201.026 99.1189 200.312 105.789 192.229 108.648C195.32 111.268 193.18 118.177 180.579 121.988C183.67 125.562 181.292 131.517 168.216 132.47C171.307 134.376 169.643 141.046 157.517 140.57C159.895 144.381 154.902 146.287 142.301 144.858C146.343 150.337 133.742 149.86 120.666 146.287C122.093 152.481 117.338 152.004 113.771 147.24C113.534 153.195 108.779 151.766 106.639 147.716C106.639 152.243 102.359 152.243 99.5064 147.478C97.6044 153.91 94.5137 152.004 94.0382 147.24C90.472 151.29 85.717 150.099 86.4302 146.287C79.2026 148.955 79.6147 145.652 80.7242 143.667L50.53 139.379C47.4392 137.949 46.4882 136.996 47.4392 133.899C43.1597 135.329 40.7822 132.232 42.2087 130.088C38.8802 130.326 34.6007 127.944 37.216 125.562C30.559 124.847 28.1815 122.465 31.0345 119.606C26.755 119.368 23.902 117.462 26.2795 114.603C21.5245 114.365 20.098 112.459 23.1887 109.839C18.9092 109.839 17.245 107.457 21.2867 105.313C17.245 105.074 13.6787 102.454 17.7205 99.5953C12.7277 100.072 10.8257 96.2602 15.8185 94.3544C7.02175 89.8282 5.59525 85.7784 11.0635 83.8726C1.5535 77.917 -1.06175 69.8175 8.2105 69.8175C0.364751 63.8619 -1.2995 53.8565 3.93094 54.8094C-0.824102 50.5214 -1.77501 39.3249 3.93094 40.9925C-0.824054 35.7516 -0.110804 24.3169 6.5462 25.0316C3.2177 19.5524 5.1197 8.35595 12.0144 9.30874C12.0144 -3.55529 19.6224 -1.17307 20.3357 5.02073Z" fill="url(#paint0_linear)"/>
<path d="M36.9744 37.1802C39.6372 43.4693 44.2654 53.1412 46.2466 57.1909C53.1094 66.3201 63.1977 78.1463 73.5878 86.7307C87.1396 97.9271 100.216 101.739 100.691 103.645C101.167 105.55 95.2231 115.794 89.9926 121.749C84.7621 127.705 68.8328 132.469 68.1196 132.469C67.4063 132.469 57.1831 130.325 55.7566 124.846C49.3373 123.655 47.1976 119.605 48.6241 115.079C41.0161 112.221 35.0723 106.265 38.4008 102.453C31.0306 97.9271 26.9888 92.6862 32.4571 87.9218C25.5623 82.4427 22.7093 75.5342 27.7021 71.4844C21.7583 65.5288 19.3808 59.335 24.3736 55.7617C17.146 45.8516 22.3131 40.9919 25.8001 39.8008C25.1661 39.4831 23.9932 36.7038 24.3736 28.1278C24.8491 17.4077 33.6459 29.3189 36.9744 37.1802Z" fill="url(#paint1_linear)"/>
<path d="M77.7619 85.9568C85.5601 91.8647 99.5557 97.9473 105.579 100.25C107.084 100.647 113.615 102.966 127.689 109.064C145.283 116.688 161.925 106.682 166.443 104.3C170.96 101.918 173.575 103.585 174.051 105.491C174.526 107.397 172.862 111.923 163.352 114.544C167.394 115.258 166.68 123.12 151.227 124.787C152.415 132.172 144.807 133.84 135.535 132.887C139.815 138.128 126.738 139.319 114.375 138.128C118.893 144.321 92.7402 141.939 89.1739 140.986C85.6077 140.033 73.7202 131.934 70.3917 130.981C67.0632 130.028 64.6857 127.169 67.0632 121.69C58.2664 121.452 56.6022 113.114 61.1194 108.112C47.3299 103.585 48.2809 97.1533 55.1757 95.0093C44.4769 89.7684 43.5259 84.5275 47.0922 82.8599C41.3862 78.5719 38.5332 74.2839 42.3372 70.2341C36.2508 63.7544 41.2277 61.9757 44.4769 61.8963C43.9222 59.6729 42.9553 54.7019 43.5259 52.6055C44.2392 49.9851 44.9524 49.5086 50.6584 59.514C56.3644 69.5194 68.0142 78.5718 77.7619 85.9568Z" fill="url(#paint2_linear)"/>
<path d="M130.893 81.4906C132.035 84.3492 134.856 86.1756 136.124 86.7315C128.04 89.5902 126.376 95.0692 126.614 98.1661C126.852 101.263 130.18 104.598 130.18 113.412C130.18 123.206 119.957 130.564 113.775 133.423C107.594 136.282 100.224 137.949 96.4197 139.617C92.6157 141.284 87.3852 143.19 77.162 145.096C75.9733 147.24 75.9733 152.719 78.8262 162.01C81.6792 171.3 80.7282 173.921 80.2527 175.112C79.7772 176.303 74.7845 180.115 71.456 170.348C72.1693 182.021 66.2255 181.068 62.4215 172.015C60.2818 182.497 55.5268 182.497 54.1003 172.968C51.7228 182.973 45.779 180.353 45.779 171.3C39.122 179.638 35.0803 176.78 37.4578 168.442C25.808 176.065 23.6683 172.015 28.1855 165.107C16.298 170.824 14.6338 165.821 19.151 161.533C15.347 162.724 5.59929 163.677 6.31254 159.389C7.02579 155.101 22.7173 149.384 27.4723 147.24C32.2273 145.096 66.701 130.326 75.4977 126.276C84.2945 122.227 90.2382 113.889 91.9025 111.507C93.5667 109.124 98.3217 100.31 103.552 92.2106C108.783 84.111 112.587 77.8508 118.293 76.2498C124.236 74.5821 129.467 77.9172 130.893 81.4906Z" fill="url(#paint3_linear)"/>
<defs>
<linearGradient id="paint0_linear" x1="-31.8585" y1="66.7206" x2="210.153" y2="149.632" gradientUnits="userSpaceOnUse">
<stop stop-color="#E2EAFD"/>
<stop offset="0.420048" stop-color="#5B8AE6"/>
<stop offset="1" stop-color="#DDE9FC"/>
</linearGradient>
<linearGradient id="paint1_linear" x1="20.9181" y1="44.8034" x2="81.8268" y2="73.7726" gradientUnits="userSpaceOnUse">
<stop stop-color="#DDE8FB"/>
<stop offset="1" stop-color="#5486E7"/>
</linearGradient>
<linearGradient id="paint2_linear" x1="72.2724" y1="79.3466" x2="126.371" y2="145.705" gradientUnits="userSpaceOnUse">
<stop stop-color="#E2EAFD"/>
<stop offset="0.598153" stop-color="#5F8DE8"/>
<stop offset="1" stop-color="#DDE9FC"/>
</linearGradient>
<linearGradient id="paint3_linear" x1="96.5305" y1="57.9065" x2="24.0555" y2="166.403" gradientUnits="userSpaceOnUse">
<stop stop-color="#E4ECFF"/>
<stop offset="1" stop-color="#5381D9"/>
</linearGradient>
</defs>
</svg>
