<svg width="553" height="221" viewBox="0 0 553 221" fill="none" xmlns="http://www.w3.org/2000/svg">
<path d="M21.7516 30.9181V84.6486C21.7516 86.1684 23.521 86.2951 23.521 86.2951H30.097C31.9941 86.2951 31.9941 84.6486 31.9941 84.6486V2.7876C31.9941 2.7876 31.9941 1.13987 30.097 1.13987H23.521C23.521 1.13987 21.7516 1.26777 21.7516 2.7876V19.7677C21.7516 21.7954 20.614 24.8363 19.6017 26.864L10.2426 46.2518V2.7876C10.2426 2.7876 10.2426 1.13987 8.34673 1.13987H1.77071C1.77071 1.13987 0 1.26777 0 2.7876V84.6486C0 86.1684 1.77071 86.2951 1.77071 86.2951H8.34673C10.2426 86.2951 10.2426 84.6486 10.2426 84.6486V56.6435C10.2426 53.2226 11.6341 50.815 12.2661 49.5472L21.7516 30.9194V30.9181ZM62.0911 49.0393C63.9882 49.0393 63.9882 50.6871 63.9882 50.6871V84.6486C63.9882 86.1684 65.7577 86.2951 65.7577 86.2951H72.3337C74.2308 86.2951 74.2308 84.6486 74.2308 84.6486V46.885C74.2308 46.885 74.2308 45.2385 72.3337 45.2385H63.9882C57.9178 45.2385 52.4793 41.1832 52.4793 35.228C52.4793 29.2729 57.9165 25.2175 63.9882 25.2175H71.449C73.3461 25.2175 73.3461 23.571 73.3461 23.571V2.78885C73.3461 2.78885 73.3461 1.14112 71.449 1.14112H65.759C65.759 1.14112 63.9895 1.26903 63.9895 2.78885V19.6423C63.9895 21.2888 62.0924 21.2888 62.0924 21.2888C58.9302 21.2888 55.0108 22.9353 52.4805 25.5975V2.7876C52.4805 2.7876 52.4805 1.13987 50.5847 1.13987H44.0087C44.0087 1.13987 42.2379 1.26777 42.2379 2.7876V84.6486C42.2379 86.1684 44.0087 86.2951 44.0087 86.2951H50.5847C52.4805 86.2951 52.4805 84.6486 52.4805 84.6486V44.7319C55.0108 47.3929 59.0565 49.0393 62.0924 49.0393H62.0911ZM89.6591 9.88386C84.347 16.7268 83.2095 28.6384 83.2095 34.4681C83.2095 49.0406 89.9119 63.1065 92.3146 74.2569C94.2117 82.8742 92.9478 88.0707 95.7283 88.0707C102.431 88.0707 106.731 80.5932 108.628 78.0602C114.697 70.4573 115.076 56.0102 115.076 53.6026C115.076 37.1291 107.489 23.4431 105.718 13.8138C104.075 4.81653 105.592 0 102.556 0C97.245 0 93.0716 5.44854 89.6579 9.88386H89.6591ZM95.8547 20.6555C97.3727 25.3442 100.281 31.8059 104.454 44.4786C105.718 48.4073 109.007 55.2503 107.49 67.9218C106.983 69.9494 106.478 74.7647 104.707 74.7647C103.695 74.7647 104.075 72.1038 102.304 67.2872C98.0046 55.8823 97.6254 54.6158 93.8325 43.7175C90.1647 32.8191 90.1647 29.6516 90.923 20.1477C91.1758 17.3601 91.9354 13.3047 93.5785 13.3047C94.2117 13.3047 93.7061 14.3192 95.8547 20.6555ZM145.933 48.6606V84.6498C145.933 86.1697 147.702 86.2963 147.702 86.2963H154.278C156.175 86.2963 156.175 84.6498 156.175 84.6498V2.78885C156.175 2.78885 156.175 1.14112 154.278 1.14112H147.702C147.702 1.14112 145.933 1.26903 145.933 2.78885V42.9588C142.138 41.9443 134.424 37.8902 134.424 33.3283V2.78885C134.424 2.78885 134.424 1.14112 132.528 1.14112H125.952C125.952 1.14112 124.181 1.26903 124.181 2.78885V84.6498C124.181 86.1697 125.952 86.2963 125.952 86.2963H132.528C134.424 86.2963 134.424 84.6498 134.424 84.6498V40.6778C138.344 46.001 145.933 44.8598 145.933 48.6606ZM196.515 45.2398H188.169C182.099 45.2398 176.66 41.1844 176.66 35.2293V2.78885C176.66 2.78885 176.66 1.14112 174.764 1.14112H168.188C168.188 1.14112 166.418 1.26903 166.418 2.78885V84.6498C166.418 86.1697 168.188 86.2963 168.188 86.2963H196.515C198.412 86.2963 198.412 84.6498 198.412 84.6498V46.8863C198.412 46.8863 198.412 45.2398 196.515 45.2398ZM209.793 2.78885V84.6498C209.793 86.1697 211.563 86.2963 211.563 86.2963H218.139C220.036 86.2963 220.036 84.6498 220.036 84.6498V2.78885C220.036 2.78885 220.036 1.14112 218.139 1.14112H211.563C211.563 1.14112 209.793 1.26903 209.793 2.78885ZM176.66 44.0987C179.191 46.7596 183.11 48.4073 186.272 48.4073C188.169 48.4073 188.169 50.0538 188.169 50.0538V81.481C188.169 81.481 188.169 83.1275 186.272 83.1275H178.432C178.432 83.1275 176.662 83.0009 176.662 81.481V44.0987H176.66ZM32.1205 173.479V135.717C32.1205 135.717 32.1205 134.069 30.2234 134.069H1.77071C1.77071 134.069 0 134.197 0 135.717V217.578C0 219.098 1.77071 219.224 1.77071 219.224H8.34673C10.2426 219.224 10.2426 217.578 10.2426 217.578V185.137C10.2426 179.182 15.6798 175.127 21.7516 175.127H30.2234C32.1205 175.127 32.1205 173.48 32.1205 173.48V173.479ZM19.8545 171.959C16.6922 171.959 12.7729 173.479 10.2426 176.14V138.886C10.2426 137.365 12.0133 137.238 12.0133 137.238H19.8532C21.7503 137.238 21.7503 138.886 21.7503 138.886V170.312C21.7503 170.312 21.7503 171.959 19.8532 171.959H19.8545ZM69.6783 177.281H63.8619L66.6437 154.598C67.1492 150.924 67.5297 145.602 70.563 145.602C73.8504 145.602 73.0933 149.783 74.61 149.783C76.0003 149.783 74.9892 146.109 75.6224 142.56C76.2543 138.251 78.2778 136.858 78.2778 135.844C78.2778 134.197 76.5083 134.069 73.8516 134.069C68.5408 134.069 64.1146 139.139 63.6091 144.588L60.5745 177.28H58.8038C58.1718 177.28 57.7914 176.647 57.5399 175.887L51.4707 135.717C51.4707 135.717 51.3443 134.069 50.4583 134.069H42.8712C42.8712 134.069 40.8477 134.197 41.1017 136.35L47.9305 185.517C48.1833 187.038 49.9527 187.165 49.9527 187.165H59.1842L56.4024 205.286C56.0232 207.947 53.8733 210.228 51.7234 210.228C49.6999 210.228 47.1709 209.088 47.1709 205.54C47.1709 201.484 48.9404 195.909 52.7346 195.909L51.597 194.135C42.3656 194.135 38.3186 200.09 38.3186 206.933C38.3186 213.523 42.7448 220.239 48.5612 220.239C54.758 220.239 58.9302 213.396 59.9425 206.68L62.7256 187.165H68.0365C68.0365 184.123 68.1629 183.744 68.9225 182.223C69.682 180.829 70.6932 178.548 69.682 177.28L69.6783 177.281ZM104.074 176.141C101.418 173.48 98.131 171.961 94.3368 171.961C94.3368 171.961 92.5661 171.833 92.5661 170.313V135.718C92.5661 135.718 92.5661 134.07 90.6702 134.07H84.0942C84.0942 134.07 82.3235 134.198 82.3235 135.718V173.48C82.3235 175 84.0942 175.127 84.0942 175.127H92.5661C98.5102 175.127 104.074 179.182 104.074 185.137V217.578C104.074 219.098 105.845 219.224 105.845 219.224H112.421C114.316 219.224 114.316 217.578 114.316 217.578V135.717C114.316 135.717 114.316 134.069 112.421 134.069H105.845C105.845 134.069 104.074 134.197 104.074 135.717V176.14V176.141ZM146.312 181.59V217.579C146.312 219.099 148.081 219.226 148.081 219.226H154.657C156.554 219.226 156.554 217.579 156.554 217.579V135.718C156.554 135.718 156.554 134.07 154.657 134.07H148.081C148.081 134.07 146.312 134.198 146.312 135.718V175.888C142.518 174.874 134.803 170.82 134.803 166.258V135.718C134.803 135.718 134.803 134.07 132.907 134.07H126.331C126.331 134.07 124.56 134.198 124.56 135.718V217.579C124.56 219.099 126.331 219.226 126.331 219.226H132.907C134.803 219.226 134.803 217.579 134.803 217.579V173.607C138.723 178.93 146.312 177.789 146.312 181.59ZM171.983 142.813C166.671 149.656 165.533 161.568 165.533 167.397C165.533 181.97 172.235 196.036 174.638 207.186C176.535 215.803 175.271 221 178.052 221C184.754 221 189.054 213.523 190.951 210.989C197.02 203.387 197.399 188.94 197.399 186.532C197.399 170.058 189.812 156.372 188.042 146.743C186.399 137.746 187.915 132.929 184.879 132.929C179.569 132.929 175.395 138.378 171.981 142.813H171.983ZM178.178 153.585C179.696 158.273 182.604 164.735 186.778 177.408C188.042 181.337 191.33 188.18 189.814 200.851C189.307 202.879 188.801 207.694 187.031 207.694C186.018 207.694 186.399 205.033 184.628 200.217C180.328 188.812 179.949 187.545 176.156 176.647C172.488 165.748 172.488 162.581 173.247 153.077C173.499 150.289 174.259 146.234 175.902 146.234C176.535 146.234 176.03 147.248 178.178 153.585ZM223.83 120.257C223.83 120.257 222.438 118.737 220.794 120.383L217.254 123.932C217.254 123.932 215.864 125.578 217.128 126.846L221.047 130.775C222.311 132.041 223.956 130.647 223.956 130.647L227.497 127.1C229.14 125.453 227.623 124.059 227.623 124.059L223.83 120.257ZM228.256 163.847V217.578C228.256 219.098 230.026 219.224 230.026 219.224H236.602C238.499 219.224 238.499 217.578 238.499 217.578V135.717C238.499 135.717 238.499 134.069 236.602 134.069H230.026C230.026 134.069 228.256 134.197 228.256 135.717V152.697C228.256 154.725 227.119 157.766 226.106 159.793L216.747 179.181V135.717C216.747 135.717 216.747 134.069 214.851 134.069H208.275C208.275 134.069 206.505 134.197 206.505 135.717V217.578C206.505 219.098 208.275 219.224 208.275 219.224H214.851C216.747 219.224 216.747 217.578 216.747 217.578V189.573C216.747 186.152 218.139 183.744 218.771 182.477L228.256 163.849V163.847ZM318.799 173.479V135.717C318.799 135.717 318.799 134.069 316.902 134.069H288.449C288.449 134.069 286.678 134.197 286.678 135.717V217.578C286.678 219.098 288.449 219.224 288.449 219.224H295.025C296.921 219.224 296.921 217.578 296.921 217.578V185.137C296.921 179.182 302.358 175.127 308.43 175.127H316.902C318.799 175.127 318.799 173.48 318.799 173.48V173.479ZM306.533 171.959C303.37 171.959 299.451 173.479 296.921 176.14V138.886C296.921 137.365 298.691 137.238 298.691 137.238H306.531C308.429 137.238 308.428 138.886 308.428 138.886V170.312C308.428 170.312 308.429 171.959 306.531 171.959H306.533ZM338.4 146.235C335.365 155.106 333.848 159.415 329.801 173.227C326.64 183.998 325.248 191.728 325.248 207.187C325.248 216.693 331.951 220.873 334.734 220.873C342.953 220.873 349.908 212.004 351.3 207.949L353.197 217.58C353.576 219.227 354.966 219.227 354.966 219.227H361.669C363.566 219.227 363.566 217.58 363.566 217.58L346.494 135.719C346.494 135.719 346.242 134.072 344.597 134.072H338.149C338.149 134.072 335.999 134.2 336.378 136.353L338.402 146.237L338.4 146.235ZM350.161 202.879C348.011 208.201 344.218 210.102 339.413 210.102C336.884 210.102 334.353 204.4 334.353 196.796C334.353 179.816 335.871 167.016 339.791 152.572L350.16 202.879H350.161ZM391.134 214.41C391.134 214.41 391.134 216.057 389.237 216.057H381.397C381.397 216.057 379.626 215.93 379.626 214.41V177.028C382.156 179.689 385.823 181.337 389.238 181.337C391.135 181.337 391.135 182.983 391.135 182.983V214.41H391.134ZM398.594 134.069H371.153C371.153 134.069 369.382 134.197 369.382 135.717V217.578C369.382 219.098 371.153 219.224 371.153 219.224H399.479C401.376 219.224 401.376 217.578 401.376 217.578V179.814C401.376 179.814 401.376 178.168 399.479 178.168H391.134C385.063 178.168 379.625 174.112 379.625 168.157V138.886C379.625 137.365 381.395 137.238 381.395 137.238H389.235C389.235 137.238 390.499 137.365 391.005 138.886L396.442 156.372C396.949 157.387 397.454 158.146 398.592 158.146C399.604 158.146 400.363 157.259 400.363 156.372V135.717C400.363 134.197 398.592 134.069 398.592 134.069H398.594ZM416.805 142.813C411.492 149.656 410.355 161.568 410.355 167.397C410.355 181.97 417.057 196.036 419.46 207.186C421.357 215.803 420.093 221 422.874 221C429.576 221 433.876 213.523 435.773 210.989C441.842 203.387 442.221 188.94 442.221 186.532C442.221 170.058 434.634 156.372 432.864 146.743C431.221 137.746 432.737 132.929 429.701 132.929C424.39 132.929 420.217 138.378 416.803 142.813H416.805ZM423 153.585C424.518 158.273 427.426 164.735 431.6 177.408C432.864 181.337 436.152 188.18 434.636 200.851C434.129 202.879 433.623 207.694 431.852 207.694C430.84 207.694 431.221 205.033 429.45 200.217C425.15 188.812 424.771 187.545 420.978 176.647C417.31 165.748 417.31 162.581 418.068 153.077C418.321 150.289 419.081 146.234 420.724 146.234C421.357 146.234 420.852 147.248 423 153.585ZM489.391 134.069H451.2C451.2 134.069 449.431 134.197 449.431 135.717V156.372C449.431 157.26 450.189 158.146 451.2 158.146C452.338 158.146 452.844 157.386 453.35 156.372L458.787 138.886C459.42 137.365 460.558 137.238 460.558 137.238H463.34C465.237 137.238 465.237 138.886 465.237 138.886V217.579C465.237 219.099 467.006 219.226 467.006 219.226H473.582C475.479 219.226 475.479 217.579 475.479 217.579V138.886C475.479 137.365 477.249 137.238 477.249 137.238H480.032C480.032 137.238 481.169 137.365 481.801 138.886L487.239 156.372C487.744 157.387 488.251 158.146 489.389 158.146C490.401 158.146 491.158 157.259 491.158 156.372V135.717C491.158 134.197 489.389 134.069 489.389 134.069H489.391ZM529.478 178.168H521.132C515.062 178.168 509.623 174.112 509.623 168.157V135.717C509.623 135.717 509.623 134.069 507.728 134.069H501.152C501.152 134.069 499.381 134.197 499.381 135.717V217.578C499.381 219.098 501.152 219.224 501.152 219.224H529.478C531.375 219.224 531.375 217.578 531.375 217.578V179.814C531.375 179.814 531.375 178.168 529.478 178.168ZM542.756 135.717V217.578C542.756 219.098 544.526 219.224 544.526 219.224H551.102C552.999 219.224 552.999 217.578 552.999 217.578V135.717C552.999 135.717 552.999 134.069 551.102 134.069H544.526C544.526 134.069 542.756 134.197 542.756 135.717ZM509.623 177.027C512.154 179.688 516.073 181.335 519.235 181.335C521.132 181.335 521.132 182.982 521.132 182.982V214.409C521.132 214.409 521.132 216.056 519.235 216.056H511.395C511.395 216.056 509.625 215.929 509.625 214.409V177.027H509.623Z" fill="white"/>
</svg>
