<svg width="60" height="58" viewBox="0 0 60 58" fill="none" xmlns="http://www.w3.org/2000/svg">
<path d="M56.4844 21.9688H50.625V4.39062C50.625 2.45211 49.0479 0.875 47.1094 0.875H3.51562C1.57711 0.875 0 2.45211 0 4.39062V32.5156C0 34.4541 1.57711 36.0312 3.51562 36.0312H10.0781V53.6094C10.0781 55.5479 11.6552 57.125 13.5938 57.125H56.4844C58.4229 57.125 60 55.5479 60 53.6094V25.4844C60 23.5459 58.4229 21.9688 56.4844 21.9688ZM2.34375 4.39062C2.34375 3.74445 2.86945 3.21875 3.51562 3.21875H47.1094C47.7555 3.21875 48.2812 3.74445 48.2812 4.39062V7.90625H2.34375V4.39062ZM2.34375 10.25H48.2812V14.9375H2.34375V10.25ZM10.0781 25.4844V33.6875H3.51562C2.86945 33.6875 2.34375 33.1618 2.34375 32.5156V17.2812H48.2812V21.9688H13.5938C11.6552 21.9688 10.0781 23.5459 10.0781 25.4844ZM57.6562 53.6094C57.6562 54.2555 57.1305 54.7812 56.4844 54.7812H13.5938C12.9476 54.7812 12.4219 54.2555 12.4219 53.6094V25.4844C12.4219 24.8382 12.9476 24.3125 13.5938 24.3125H56.4844C57.1305 24.3125 57.6562 24.8382 57.6562 25.4844V53.6094Z" fill="url(#paint0_linear)"/>
<defs>
<linearGradient id="paint0_linear" x1="0" y1="0.875" x2="56.1331" y2="60.7503" gradientUnits="userSpaceOnUse">
<stop stop-color="#C9BBAE"/>
<stop offset="1" stop-color="#9A7F5F"/>
</linearGradient>
</defs>
</svg>
