<svg width="30" height="30" viewBox="0 0 30 30" fill="none" xmlns="http://www.w3.org/2000/svg">
<g clip-path="url(#clip0)">
<path d="M21.6058 19.9368L17.1345 16.15C17.1485 16.124 17.159 16.0965 17.172 16.07C17.2136 15.9924 17.251 15.9127 17.284 15.831C17.3 15.7875 17.307 15.741 17.3205 15.6965C17.3989 15.4717 17.4369 15.2347 17.433 14.9966C17.4318 14.3473 17.1707 13.7255 16.708 13.2701L17.8945 9.37628C17.9432 9.21603 17.9085 9.04207 17.802 8.91282L15.3855 5.97894C15.2874 5.86902 15.147 5.80615 14.9996 5.80615C14.8521 5.80615 14.7118 5.86902 14.6136 5.97894L12.1997 8.91628C12.0931 9.04553 12.0584 9.21955 12.1071 9.37974L13.2936 13.2746C12.7433 13.8081 12.4829 14.5735 12.5936 15.332L9.16277 17.4149C9.04388 17.487 8.96039 17.6053 8.93227 17.7414L8.22677 21.1827C8.19677 21.3297 8.23439 21.4825 8.32925 21.5988C8.42411 21.7151 8.56619 21.7826 8.71624 21.7827V21.7832C8.74987 21.7832 8.78333 21.7796 8.81626 21.7727L12.2576 21.0672C12.3937 21.0391 12.512 20.9556 12.5841 20.8367L14.667 17.4084C14.9534 17.4505 15.2451 17.4393 15.5275 17.3754C15.8792 17.2971 16.209 17.141 16.4924 16.9185L20.9597 20.6998C21.171 20.8706 21.48 20.8414 21.6556 20.6341C21.8313 20.4267 21.8092 20.1171 21.6058 19.9368ZM11.8438 20.1314L9.3584 20.6413L9.86838 18.1564L12.9387 16.2905C12.9452 16.3016 12.9537 16.3115 12.9607 16.3225C13.0007 16.3841 13.0407 16.4455 13.0857 16.5031C13.1172 16.5431 13.1532 16.5796 13.1857 16.6175C13.2182 16.6556 13.2447 16.6886 13.2777 16.721C13.3237 16.767 13.3746 16.809 13.4242 16.8515C13.4482 16.872 13.4701 16.8945 13.4952 16.914C13.5422 16.951 13.5952 16.9835 13.6452 17.017C13.6667 17.0315 13.6872 17.0475 13.7091 17.0615L11.8438 20.1314ZM16.4106 15.2501C16.3378 15.6548 16.0951 16.009 15.744 16.223C15.3928 16.4371 14.9669 16.4906 14.5737 16.37V16.369C14.1233 16.2283 13.7707 15.8755 13.6302 15.425C13.5873 15.2875 13.5657 15.1442 13.5662 15.0001C13.5668 14.5401 13.7885 14.1084 14.1622 13.8402C14.6632 13.4739 15.3441 13.4757 15.8431 13.8447C16.2137 14.113 16.4331 14.5427 16.4331 15.0001C16.4332 15.0839 16.4256 15.1676 16.4106 15.2501ZM15.8306 12.7237C15.2927 12.535 14.7066 12.535 14.1687 12.7237L13.1392 9.34534L14.9997 7.08695L16.8601 9.34487L15.8306 12.7237Z" fill="#473512"/>
<path d="M28.3439 12.7056C27.3581 7.06151 22.9385 2.64187 17.2944 1.65607C16.9663 0.667351 16.0417 0 15 0C13.9583 0 13.0337 0.667352 12.7056 1.65613C7.06168 2.64234 2.64228 7.06174 1.65607 12.7056C0.667351 13.0337 0 13.9583 0 15C0 16.0417 0.667352 16.9663 1.65613 17.2944C2.64234 22.9383 7.06174 27.3577 12.7056 28.3439C13.0337 29.3326 13.9583 30 15.0001 30C16.0419 30 16.9664 29.3326 17.2944 28.3439C22.9385 27.3581 27.3581 22.9385 28.3439 17.2944C29.3326 16.9663 30.0001 16.0417 30.0001 15C30 13.9583 29.3326 13.0337 28.3439 12.7056ZM17.4089 2.69706C22.4062 3.6893 26.3127 7.59586 27.3049 12.5931C26.8145 12.6452 26.3518 12.8466 25.9795 13.17C25.7891 12.0202 25.4179 10.9078 24.8796 9.87417L25.2975 9.63318C25.5347 9.4942 25.6151 9.18988 25.4777 8.95189C25.3403 8.71389 25.0365 8.63139 24.7975 8.76726L24.3781 9.00925C23.5064 7.65034 22.3516 6.49557 20.9927 5.62392L21.2347 5.20446C21.3705 4.96553 21.2881 4.66179 21.0501 4.52434C20.8121 4.38694 20.5078 4.46739 20.3688 4.70445L20.1278 5.12244C19.0942 4.5841 17.9818 4.21287 16.832 4.02251C17.1553 3.65016 17.3567 3.18753 17.4089 2.69706ZM14.9995 1.00068C15.7912 1.00068 16.4329 1.64242 16.4329 2.4341C16.4329 3.22579 15.7912 3.86753 14.9995 3.86753C14.2078 3.86753 13.566 3.22579 13.566 2.4341C13.5669 1.64277 14.2082 1.0015 14.9995 1.00068ZM12.5926 2.6946C12.6448 3.18507 12.8461 3.6477 13.1696 4.02005C12.0196 4.21117 10.9072 4.58328 9.8737 5.12249L9.63271 4.70451C9.49374 4.46739 9.18941 4.38694 8.95142 4.5244C8.71342 4.66179 8.63092 4.96559 8.7668 5.20452L9.00878 5.62397C7.64976 6.49552 6.49499 7.65029 5.62345 9.00931L5.20399 8.76732C4.96506 8.63151 4.66132 8.71395 4.52387 8.95194C4.38647 9.18994 4.46692 9.49426 4.70398 9.63324L5.12197 9.87422C4.58363 10.9079 4.2124 12.0203 4.02204 13.1701C3.64969 12.8467 3.18706 12.6453 2.69659 12.5931C3.68795 7.59486 7.59462 3.68719 12.5926 2.6946ZM1.00015 15C1.00097 14.2087 1.64225 13.5674 2.43358 13.5666C3.22526 13.5666 3.86701 14.2083 3.86701 15C3.86701 15.7917 3.22526 16.4334 2.43358 16.4334C1.6419 16.4334 1.00015 15.7917 1.00015 15ZM12.5926 27.3029C7.59439 26.3116 3.68672 22.4049 2.69407 17.4069C3.18454 17.3548 3.64717 17.1534 4.01952 16.83C4.21064 17.9799 4.58275 19.0923 5.12197 20.1258L4.70398 20.3668C4.54801 20.4555 4.45151 20.6209 4.4511 20.8003C4.45069 20.9797 4.54649 21.1456 4.70205 21.235C4.8576 21.3243 5.04914 21.3235 5.20394 21.2327L5.62339 20.9908C6.49493 22.3498 7.6497 23.5045 9.00872 24.3761L8.76674 24.7955C8.67598 24.9503 8.67516 25.1419 8.76451 25.2974C8.85386 25.453 9.01973 25.5488 9.19914 25.5484C9.37854 25.548 9.54401 25.4515 9.63265 25.2955L9.87364 24.8775C10.9073 25.4158 12.0197 25.7871 13.1695 25.9774C12.8461 26.3498 12.6448 26.8125 12.5926 27.3029ZM14.9995 28.9993C14.4197 28.9993 13.897 28.6501 13.6751 28.1144C13.4533 27.5788 13.5759 26.9622 13.9858 26.5523C14.3958 26.1423 15.0124 26.0197 15.548 26.2416C16.0836 26.4634 16.4329 26.9861 16.4329 27.5659C16.4321 28.3572 15.7908 28.9985 14.9995 28.9993ZM14.9995 25.133C9.40315 25.133 4.86645 20.5963 4.86645 15C4.87278 9.40632 9.40579 4.87331 14.9995 4.86698C20.5958 4.86698 25.1325 9.40368 25.1325 15C25.1325 20.5963 20.5958 25.133 14.9995 25.133ZM17.4064 27.3054C17.3542 26.8149 17.1529 26.3523 16.8294 25.98C17.9792 25.7896 19.0916 25.4184 20.1253 24.88L20.3663 25.298C20.5053 25.5351 20.8096 25.6156 21.0476 25.4781C21.2856 25.3407 21.3681 25.0369 21.2322 24.798L20.9902 24.3785C22.3491 23.5069 23.5039 22.3521 24.3756 20.9932L24.795 21.2352C25.0339 21.371 25.3377 21.2886 25.4751 21.0506C25.6125 20.8126 25.5321 20.5083 25.295 20.3693L24.877 20.1283C25.4154 19.0946 25.7866 17.9822 25.977 16.8324C26.3493 17.1559 26.8119 17.3572 27.3024 17.4094C26.3102 22.4067 22.4037 26.3132 17.4064 27.3054ZM28.1138 16.3244C27.5781 16.5462 26.9615 16.4235 26.5516 16.0134C26.1417 15.6034 26.0192 14.9868 26.2412 14.4511C26.4632 13.9155 26.9861 13.5664 27.5659 13.5666C28.357 13.5677 28.998 14.2089 28.9989 15C28.9989 15.5798 28.6495 16.1025 28.1138 16.3244Z" fill="#473512"/>
</g>
<defs>
<clipPath id="clip0">
<rect width="30" height="30" fill="white"/>
</clipPath>
</defs>
</svg>
