<svg width="100" height="100" viewBox="0 0 100 100" fill="none" xmlns="http://www.w3.org/2000/svg">
<g clip-path="url(#clip0)">
<path d="M94.2108 6.86475H8.78887C8.21765 6.86475 7.70505 7.21499 7.49718 7.74692L3 19.2596V93.3653C3 95.4195 4.66534 97.0846 6.71938 97.0846H96.2805C98.3348 97.0846 99.9999 95.4193 99.9999 93.3653V19.2596L95.5025 7.74692C95.2948 7.21499 94.782 6.86475 94.2108 6.86475Z" fill="#927266"/>
<path d="M96.2805 97.0849H6.71938C4.66513 97.0849 3 95.4195 3 93.3655V19.26H99.9999V93.3657C99.9999 95.4198 98.3345 97.0849 96.2805 97.0849Z" fill="#82635A"/>
<path d="M90.2312 19.2595V86.2306C90.2312 89.5673 87.5262 92.2722 84.1895 92.2722H6.71938C4.66513 92.2722 3 90.607 3 88.5528V93.3652C3 95.4195 4.66534 97.0846 6.71938 97.0846H96.2805C98.3348 97.0846 99.9999 95.4193 99.9999 93.3652V19.2595H90.2312Z" fill="#72544E"/>
<path d="M59.6424 6.86475H43.3579L40.4897 19.2598V45.4414C40.4897 46.1563 41.3339 46.5362 41.8688 46.062L50.9502 38.0168C51.2641 37.7388 51.7361 37.7388 52.0499 38.0168L61.1312 46.062C61.6663 46.5362 62.5103 46.1563 62.5103 45.4414V19.2596L59.6424 6.86475Z" fill="#FFB125"/>
<path d="M61.1312 46.0622L52.0499 38.0171C51.7359 37.739 51.2639 37.739 50.9502 38.0171L41.8688 46.0622C41.3337 46.5362 40.4897 46.1563 40.4897 45.4416V19.26H62.5105V45.4416C62.5103 46.1565 61.6663 46.5364 61.1312 46.0622Z" fill="#FF901D"/>
<path d="M61.6922 53.1545C62.2383 54.9313 61.2398 56.7975 59.4816 57.3418L44.9088 61.8522L45.7682 62.2026L55.4928 66.1678L71.5895 72.7313C73.5424 73.5275 74.4801 75.7565 73.6838 77.7094C72.8875 79.6623 70.6586 80.6 68.7057 79.8037L72.4385 81.3258C74.3914 82.1221 75.3291 84.351 74.5328 86.3039C73.7365 88.2568 71.5076 89.1945 69.5547 88.3982L65.8219 86.8762C67.752 87.6633 68.6904 89.8494 67.9434 91.7857C67.1727 93.7832 64.8408 94.7246 62.8584 93.9162L59.7455 92.6469C61.6984 93.4432 62.6361 95.6721 61.8399 97.625C61.0436 99.5779 58.8147 100.516 56.8617 99.7193L28.6684 88.2234C25.8981 87.0939 23.4619 85.2762 21.5902 82.9422C19.7186 80.6082 17.2824 78.7904 14.5121 77.6609L2.82129 72.894L10.9926 52.8541L21.1131 56.9807C24.5008 58.3621 57.726 50.8793 57.726 50.8793C59.434 50.5209 61.1797 51.4864 61.6922 53.1545Z" fill="#FED9A8"/>
<path d="M61.6922 53.1545C62.2383 54.9313 61.2398 56.7975 59.4816 57.3418L44.9088 61.8522L45.7682 62.2026L55.4928 66.1678L71.5895 72.7313C73.5424 73.5275 74.4801 75.7565 73.6838 77.7094C72.8875 79.6623 70.6586 80.6 68.7057 79.8037L72.4385 81.3258C74.3914 82.1221 75.3291 84.351 74.5328 86.3039C73.7365 88.2568 71.5076 89.1945 69.5547 88.3982L65.8219 86.8762C67.752 87.6633 68.6904 89.8494 67.9434 91.7857C67.1727 93.7832 64.8408 94.7246 62.8584 93.9162L59.7455 92.6469C61.6984 93.4432 62.6361 95.6721 61.8399 97.625C61.0436 99.5779 58.8147 100.516 56.8617 99.7193L28.6684 88.2234C25.8981 87.0939 23.4619 85.2762 21.5902 82.9422C19.7186 80.6082 17.2824 78.7904 14.5121 77.6609L2.82129 72.894L10.9926 52.8541L21.1131 56.9807C24.5008 58.3621 57.726 50.8793 57.726 50.8793C59.434 50.5209 61.1797 51.4864 61.6922 53.1545Z" fill="#FED9A8"/>
<path d="M61.6922 53.1545C62.2383 54.9313 61.2398 56.7975 59.4816 57.3418L44.9088 61.8522L45.7682 62.2026L55.4928 66.1678L71.5895 72.7313C73.5424 73.5275 74.4801 75.7565 73.6838 77.7094C72.8875 79.6623 70.6586 80.6 68.7057 79.8037L72.4385 81.3258C74.3914 82.1221 75.3291 84.351 74.5328 86.3039C73.7365 88.2568 71.5076 89.1945 69.5547 88.3982L65.8219 86.8762C67.752 87.6633 68.6904 89.8494 67.9434 91.7857C67.1727 93.7832 64.8408 94.7246 62.8584 93.9162L59.7455 92.6469C61.6984 93.4432 62.6361 95.6721 61.8399 97.625C61.0436 99.5779 58.8147 100.516 56.8617 99.7193L28.6684 88.2234C25.8981 87.0939 23.4619 85.2762 21.5902 82.9422C19.7186 80.6082 17.2824 78.7904 14.5121 77.6609L2.82129 72.894L10.9926 52.8541L21.1131 56.9807C24.5008 58.3621 57.726 50.8793 57.726 50.8793C59.434 50.5209 61.1797 51.4864 61.6922 53.1545Z" fill="#FED9A8"/>
<path d="M61.8433 97.6169C61.8482 97.6048 61.8531 97.5929 61.8578 97.5808C61.8597 97.5759 61.8615 97.571 61.8634 97.5663C61.8673 97.5562 61.8713 97.5462 61.875 97.5363C61.8771 97.5304 61.8793 97.5248 61.8814 97.5189C61.8847 97.5099 61.888 97.5009 61.8914 97.4919C61.8939 97.4853 61.8963 97.4785 61.8986 97.4718C61.9015 97.4638 61.9045 97.4558 61.9072 97.4478C61.9095 97.441 61.9119 97.4341 61.9142 97.4273C61.917 97.4191 61.9199 97.4109 61.9226 97.4027C61.925 97.3956 61.9273 97.3884 61.9298 97.3814C61.9324 97.3738 61.9347 97.3664 61.9373 97.3587C61.9396 97.3513 61.9421 97.3439 61.9445 97.3365C61.9468 97.3288 61.9494 97.3212 61.9517 97.3136C61.9539 97.3064 61.9562 97.2994 61.9584 97.2921C61.9607 97.2841 61.9632 97.2761 61.9656 97.2681C61.9677 97.2611 61.9699 97.2539 61.9718 97.2468C61.974 97.2394 61.9761 97.232 61.9783 97.2246C61.9806 97.2165 61.9828 97.2085 61.9851 97.2007C61.9871 97.1939 61.9888 97.1869 61.9908 97.18C61.9929 97.172 61.9951 97.164 61.9972 97.156C61.999 97.149 62.0009 97.1419 62.0027 97.1351C62.0048 97.1269 62.0068 97.1189 62.0089 97.1109C62.0107 97.1038 62.0125 97.097 62.014 97.09C62.016 97.0818 62.0179 97.0738 62.0199 97.0658C62.0212 97.0597 62.0228 97.0537 62.0242 97.0474C62.0263 97.0384 62.0285 97.0292 62.0304 97.0203C62.0312 97.0169 62.032 97.0134 62.0328 97.0101C62.041 96.9734 62.0486 96.9365 62.0556 96.8996C62.0564 96.8956 62.0572 96.8917 62.058 96.8878C62.0599 96.8771 62.0619 96.8665 62.0638 96.8558C62.0646 96.8517 62.0654 96.8474 62.0662 96.8433C62.0681 96.8322 62.0701 96.821 62.0718 96.8099C62.0724 96.8064 62.073 96.8029 62.0736 96.7994C62.0754 96.7882 62.0773 96.7769 62.0789 96.7656C62.0795 96.7619 62.08 96.7583 62.0806 96.7546C62.0824 96.7431 62.0841 96.7316 62.0857 96.7201C62.0861 96.7169 62.0867 96.7138 62.0871 96.7107C62.0888 96.6984 62.0904 96.6861 62.092 96.6738C62.0921 96.6718 62.0925 96.6697 62.0927 96.6677C62.0943 96.6548 62.0961 96.6419 62.0974 96.629C62.0976 96.6275 62.0978 96.6257 62.098 96.6242C62.0996 96.6109 62.1011 96.5978 62.1025 96.5845C62.1027 96.5833 62.1027 96.5822 62.1029 96.581C62.1043 96.5673 62.1056 96.5535 62.107 96.5398C62.107 96.5394 62.107 96.5388 62.1072 96.5384C62.2476 95.0384 61.4832 93.5591 60.1189 92.8242C60.0976 92.8126 60.0761 92.8027 60.0549 92.7917C59.9591 92.7425 59.8617 92.6958 59.7603 92.654C59.7263 92.6398 59.6918 92.6251 59.6586 92.6117L45.3686 86.7849C44.6131 88.6378 45.4975 90.7529 47.3473 91.5164L58.6812 96.1943C59.8775 96.6822 60.6974 97.7515 60.9666 98.9222C61.3336 98.5658 61.6345 98.1294 61.84 97.6253C61.8412 97.6226 61.8421 97.6197 61.8433 97.6169Z" fill="#F4C892"/>
<path d="M73.2214 78.5357C73.4054 78.2861 73.5617 78.0099 73.6841 77.7095C74.4804 75.7564 73.5427 73.5277 71.5898 72.7314L55.4931 66.1679L45.7686 62.2027L44.9092 61.8523C47.0791 65.6113 50.4385 68.5412 54.4576 70.18L71.5898 77.1658C72.1892 77.4103 72.8037 78.0101 73.2214 78.5357Z" fill="#F4C892"/>
<path d="M74.5842 83.552C74.5737 83.5232 74.5629 83.4947 74.5518 83.4662C74.5461 83.452 74.5405 83.4379 74.5348 83.4236C74.5233 83.3953 74.5114 83.3672 74.4993 83.3393C74.4627 83.2553 74.4231 83.1725 74.3807 83.0912C74.3594 83.0506 74.3375 83.0104 74.3149 82.9705C74.2998 82.9439 74.2842 82.9176 74.2686 82.8912C74.2528 82.865 74.2368 82.8389 74.2203 82.8131C74.2039 82.7873 74.1871 82.7615 74.1702 82.7361C74.0082 82.4941 73.8182 82.2695 73.602 82.068C73.5907 82.0574 73.5791 82.0469 73.5676 82.0363C73.4985 81.9734 73.4268 81.9129 73.3526 81.8549C73.3403 81.8451 73.3278 81.8355 73.3153 81.826C73.2903 81.8068 73.2649 81.7881 73.2395 81.7697C73.2268 81.7605 73.2139 81.7514 73.201 81.7422C72.9686 81.5783 72.7139 81.4381 72.4393 81.326L68.7065 79.8039H68.7067L51.1368 72.6396C50.3592 74.5465 51.2768 76.7225 53.185 77.4969L72.4395 85.3109C73.2145 85.627 73.8424 86.1984 74.2532 86.8596C74.36 86.6852 74.4541 86.4996 74.5338 86.3041C74.683 85.9379 74.7715 85.5621 74.8036 85.1877C74.8063 85.1564 74.8084 85.1254 74.8104 85.0941C74.8422 84.5645 74.7625 84.0397 74.5842 83.552Z" fill="#F4C892"/>
<path d="M9.7621 49.9068C10.0658 49.1621 10.9156 48.8045 11.6603 49.1082L19.5555 52.3275C20.3002 52.6312 20.6578 53.481 20.3541 54.2258L10.7002 77.902C10.3965 78.6467 9.54667 79.0043 8.80194 78.7006L0.906823 75.4813C0.162097 75.1776 -0.19552 74.3278 0.108191 73.583L9.7621 49.9068Z" fill="#2D5872"/>
<path d="M19.5555 52.3273L16.1494 50.9385L7.13964 73.0348C6.83593 73.7795 5.98612 74.1369 5.24139 73.8334L0.752331 72.0029L0.108191 73.5828C-0.19552 74.3275 0.162097 75.1773 0.906823 75.4811L8.80194 78.7004C9.54667 79.0041 10.3965 78.6465 10.7002 77.9018L20.3543 54.2256C20.6576 53.4809 20.3002 52.6309 19.5555 52.3273Z" fill="#1D4859"/>
<path d="M67.6905 92.3133C67.7767 92.1651 67.8534 92.0092 67.9196 91.8459C67.9216 91.8411 67.9235 91.8362 67.9255 91.8315C67.9302 91.8196 67.9349 91.8079 67.9396 91.7959C67.9427 91.7877 67.9458 91.7795 67.9489 91.7715C67.9509 91.7663 67.9528 91.7612 67.9548 91.7559C67.9585 91.7459 67.9622 91.736 67.9659 91.726C67.9677 91.7211 67.9696 91.7161 67.9714 91.7112C67.9751 91.701 67.9786 91.6909 67.9823 91.6805C67.9839 91.676 67.9856 91.6713 67.9872 91.6668C67.9907 91.6567 67.9942 91.6463 67.9978 91.636C67.9995 91.6311 68.0011 91.626 68.0028 91.6211C68.0058 91.6123 68.0087 91.6034 68.0116 91.5946C68.0136 91.5883 68.0157 91.5823 68.0177 91.576C68.0222 91.5618 68.0269 91.5473 68.0312 91.5331C68.0335 91.5256 68.0356 91.5182 68.0378 91.5108C68.0399 91.5038 68.0421 91.4967 68.0442 91.4897C68.047 91.4805 68.0495 91.4715 68.0522 91.4623C68.0538 91.4569 68.0554 91.4512 68.0569 91.4457C68.0595 91.437 68.0618 91.4282 68.0642 91.4194C68.0657 91.4133 68.0675 91.4073 68.0692 91.4012C68.0716 91.3924 68.0739 91.3836 68.0763 91.3748C68.0778 91.3692 68.0792 91.3633 68.0808 91.3577C68.0833 91.3481 68.0856 91.3383 68.088 91.3288C68.0892 91.3243 68.0901 91.3198 68.0913 91.3151C68.0938 91.3047 68.0964 91.2944 68.0987 91.2838C68.0997 91.2797 68.1007 91.2756 68.1017 91.2717C68.1042 91.2612 68.1065 91.2504 68.1089 91.2397C68.1097 91.236 68.1105 91.2325 68.1112 91.2288C68.1138 91.2176 68.1161 91.2065 68.1185 91.1954C68.119 91.193 68.1194 91.1907 68.12 91.1881C68.1257 91.1614 68.131 91.1348 68.1358 91.1081C68.4608 89.3635 67.5294 87.5723 65.822 86.8762L48.2522 79.7122C47.5044 81.5465 48.3897 83.6393 50.227 84.3797L65.822 90.6653C66.6341 90.9967 67.281 91.6088 67.6905 92.3133Z" fill="#F4C892"/>
</g>
<defs>
<clipPath id="clip0">
<rect width="100" height="100" fill="white"/>
</clipPath>
</defs>
</svg>
