<svg width="100" height="100" viewBox="0 0 100 100" fill="none" xmlns="http://www.w3.org/2000/svg">
<path d="M9.375 95.3125V76.1719L49.9229 38.2812L90.625 74.4141V95.3125H9.375Z" fill="#D78E0C"/>
<path d="M59.3748 67.1875H81.25L75.8406 60.9375H59.3748V67.1875Z" fill="#C7830B"/>
<path d="M57.8123 54.6875H66.6013L57.8123 46.875V54.6875Z" fill="#C7830B"/>
<path d="M40.6249 67.1875H18.7498L24.1591 60.9375H40.6249V67.1875Z" fill="#C7830B"/>
<path d="M57.8125 93.75H62.5V59.375L60.9375 57.8125V48.4375L57.8125 45.3125V93.75Z" fill="#A86E09"/>
<path d="M57.8125 59.375H42.1875V28.125L50 21.875L57.8125 28.125V59.375Z" fill="#EE9D0D"/>
<path d="M50 31.25C50.8288 31.25 51.6237 31.5792 52.2097 32.1653C52.7958 32.7513 53.125 33.5462 53.125 34.375V39.0625H46.875V34.375C46.875 33.5462 47.2042 32.7513 47.7903 32.1653C48.3763 31.5792 49.1712 31.25 50 31.25Z" fill="#C7830B"/>
<path d="M53.125 6.25H51.5625V4.6875C51.5625 4.2731 51.3979 3.87567 51.1049 3.58265C50.8118 3.28962 50.4144 3.125 50 3.125C49.5856 3.125 49.1882 3.28962 48.8951 3.58265C48.6021 3.87567 48.4375 4.2731 48.4375 4.6875V6.25H46.875C46.4606 6.25 46.0632 6.41462 45.7701 6.70765C45.4771 7.00067 45.3125 7.3981 45.3125 7.8125C45.3125 8.2269 45.4771 8.62433 45.7701 8.91735C46.0632 9.21038 46.4606 9.375 46.875 9.375H48.4375V17.1875C48.4375 17.6019 48.6021 17.9993 48.8951 18.2924C49.1882 18.5854 49.5856 18.75 50 18.75C50.4144 18.75 50.8118 18.5854 51.1049 18.2924C51.3979 17.9993 51.5625 17.6019 51.5625 17.1875V9.375H53.125C53.5394 9.375 53.9368 9.21038 54.2299 8.91735C54.5229 8.62433 54.6875 8.2269 54.6875 7.8125C54.6875 7.3981 54.5229 7.00067 54.2299 6.70765C53.9368 6.41462 53.5394 6.25 53.125 6.25Z" fill="#933F35"/>
<path d="M40.625 29.6875V23.4375L50 15.625L59.375 23.4375V29.6875L50 21.875L40.625 29.6875Z" fill="#933F35"/>
<path d="M42.1875 54.6875H33.3984L42.1875 46.875V54.6875Z" fill="#C7830B"/>
<path d="M15.625 82.8125H21.875V89.0625H15.625V82.8125Z" fill="#A86E09"/>
<path d="M15.625 82.8125H21.875V87.5H15.625V82.8125Z" fill="#C7830B"/>
<path d="M18.75 76.5625C17.9212 76.5625 17.1263 76.8917 16.5403 77.4778C15.9542 78.0638 15.625 78.8587 15.625 79.6875V82.8125H21.875V79.6875C21.875 78.8587 21.5458 78.0638 20.9597 77.4778C20.3737 76.8917 19.5788 76.5625 18.75 76.5625Z" fill="#CDCCC8"/>
<path d="M28.125 82.8125H34.375V89.0625H28.125V82.8125Z" fill="#C7830B"/>
<path d="M31.25 76.5625C30.4212 76.5625 29.6263 76.8917 29.0403 77.4778C28.4542 78.0638 28.125 78.8587 28.125 79.6875V82.8125H34.375V79.6875C34.375 78.8587 34.0458 78.0638 33.4597 77.4778C32.8737 76.8917 32.0788 76.5625 31.25 76.5625Z" fill="#CDCCC8"/>
<path d="M78.125 82.8125H84.375V89.0625H78.125V82.8125Z" fill="#C7830B"/>
<path d="M84.375 79.6875C84.375 78.8587 84.0458 78.0638 83.4597 77.4778C82.8737 76.8917 82.0788 76.5625 81.25 76.5625C80.4212 76.5625 79.6263 76.8917 79.0403 77.4778C78.4542 78.0638 78.125 78.8587 78.125 79.6875V82.8125H84.375V79.6875Z" fill="#CDCCC8"/>
<path d="M68.75 76.5625C67.9212 76.5625 67.1263 76.8917 66.5403 77.4778C65.9542 78.0638 65.625 78.8587 65.625 79.6875V82.8125H71.875V79.6875C71.875 78.8587 71.5458 78.0638 70.9597 77.4778C70.3737 76.8917 69.5788 76.5625 68.75 76.5625Z" fill="#CDCCC8"/>
<path d="M65.625 82.8125H71.875V89.0625H65.625V82.8125Z" fill="#C7830B"/>
<path d="M89.0625 37.5C89.0625 36.2568 88.5686 35.0645 87.6896 34.1854C86.8105 33.3064 85.6182 32.8125 84.375 32.8125C83.1318 32.8125 81.9395 33.3064 81.0604 34.1854C80.1814 35.0645 79.6875 36.2568 79.6875 37.5C78.8587 37.5 78.0638 37.8292 77.4778 38.4153C76.8917 39.0013 76.5625 39.7962 76.5625 40.625C76.5625 41.4538 76.8917 42.2487 77.4778 42.8347C78.0638 43.4208 78.8587 43.75 79.6875 43.75H89.0625C89.8913 43.75 90.6862 43.4208 91.2722 42.8347C91.8583 42.2487 92.1875 41.4538 92.1875 40.625C92.1875 39.7962 91.8583 39.0013 91.2722 38.4153C90.6862 37.8292 89.8913 37.5 89.0625 37.5Z" fill="#A6DEFF"/>
<path d="M23.5693 31.7748C23.3534 30.7489 22.8432 29.8082 22.101 29.0677C21.3589 28.3272 20.4171 27.819 19.3908 27.6052C18.3644 27.3915 17.298 27.4815 16.322 27.8642C15.346 28.2469 14.5026 28.9057 13.8951 29.7601C13.874 29.7601 13.8535 29.7568 13.8324 29.7568C13.232 29.7569 12.643 29.9217 12.1296 30.2331C11.6163 30.5446 11.1981 30.9909 10.9207 31.5234C10.0109 31.8492 9.22395 32.4481 8.66757 33.2382C8.11119 34.0284 7.81254 34.9711 7.8125 35.9375C7.8125 37.1807 8.30636 38.373 9.18544 39.252C10.0645 40.1311 11.2568 40.625 12.5 40.625H21.415C22.6582 40.625 23.8505 40.1311 24.7296 39.252C25.6087 38.373 26.1025 37.1807 26.1025 35.9375C26.1026 35.078 25.8664 34.2351 25.4196 33.501C24.9728 32.7668 24.3327 32.1696 23.5693 31.7748Z" fill="#A6DEFF"/>
<path d="M70.3125 30.0572C70.0224 30.0572 69.7379 29.9763 69.4911 29.8238C69.2443 29.6712 69.0448 29.4529 68.9151 29.1933C68.8017 28.9665 68.6447 28.7642 68.4531 28.598C68.2614 28.4318 68.039 28.305 67.7984 28.2248C67.5577 28.1446 67.3037 28.1126 67.0507 28.1306C66.7977 28.1486 66.5507 28.2162 66.3239 28.3297C65.9532 28.515 65.5241 28.5455 65.131 28.4145C64.7378 28.2834 64.4128 28.0016 64.2275 27.6309C64.0421 27.2603 64.0116 26.8312 64.1427 26.438C64.2737 26.0449 64.5556 25.7199 64.9262 25.5345C65.7837 25.1071 66.7448 24.9314 67.698 25.0276C68.6513 25.1239 69.5578 25.4882 70.3125 26.0785C71.0673 25.4882 71.9738 25.1239 72.927 25.0276C73.8803 24.9314 74.8414 25.1071 75.6989 25.5345C76.0695 25.7199 76.3514 26.0449 76.4824 26.438C76.6134 26.8312 76.5829 27.2603 76.3976 27.6309C76.2123 28.0016 75.8873 28.2834 75.4941 28.4145C75.101 28.5455 74.6719 28.515 74.3012 28.3297C74.0744 28.2162 73.8274 28.1486 73.5744 28.1306C73.3214 28.1126 73.0673 28.1446 72.8267 28.2248C72.5861 28.305 72.3636 28.4318 72.172 28.598C71.9804 28.7642 71.8234 28.9665 71.71 29.1933C71.5803 29.4529 71.3808 29.6712 71.134 29.8238C70.8872 29.9763 70.6027 30.0572 70.3125 30.0572Z" fill="#92D1F7"/>
<path d="M34.375 15.9947C34.0849 15.9947 33.8004 15.9138 33.5536 15.7613C33.3068 15.6087 33.1073 15.3904 32.9776 15.1308C32.8642 14.904 32.7072 14.7017 32.5156 14.5355C32.324 14.3693 32.1015 14.2425 31.8609 14.1623C31.6202 14.0821 31.3662 14.0501 31.1132 14.0681C30.8602 14.0861 30.6132 14.1537 30.3864 14.2672C30.2028 14.3589 30.003 14.4137 29.7984 14.4282C29.5937 14.4428 29.3881 14.4169 29.1935 14.352C28.8003 14.2209 28.4753 13.9391 28.29 13.5684C28.1046 13.1978 28.0741 12.7687 28.2052 12.3755C28.3362 11.9824 28.6181 11.6574 28.9887 11.472C29.8462 11.0446 30.8073 10.8688 31.7605 10.9651C32.7138 11.0614 33.6203 11.4257 34.375 12.016C35.1298 11.4257 36.0363 11.0614 36.9896 10.9651C37.9428 10.8688 38.9039 11.0446 39.7614 11.472C40.132 11.6574 40.4139 11.9824 40.5449 12.3755C40.676 12.7687 40.6455 13.1978 40.4601 13.5684C40.2748 13.9391 39.9498 14.2209 39.5566 14.352C39.1635 14.483 38.7344 14.4525 38.3637 14.2672C38.1369 14.1537 37.8899 14.0861 37.6369 14.0681C37.3839 14.0501 37.1299 14.0821 36.8892 14.1623C36.6486 14.2425 36.4261 14.3693 36.2345 14.5355C36.0429 14.7017 35.8859 14.904 35.7725 15.1308C35.6428 15.3904 35.4433 15.6087 35.1965 15.7613C34.9497 15.9138 34.6652 15.9947 34.375 15.9947Z" fill="#92D1F7"/>
<path d="M25 23.4376C24.7099 23.4376 24.4255 23.3568 24.1786 23.2042C23.9318 23.0517 23.7323 22.8334 23.6026 22.5739C23.3735 22.1158 22.9718 21.7674 22.4858 21.6054C21.9999 21.4434 21.4695 21.4811 21.0114 21.7101C20.8276 21.8037 20.6272 21.8601 20.4216 21.8759C20.216 21.8918 20.0093 21.8667 19.8134 21.8023C19.6175 21.7379 19.4363 21.6353 19.2803 21.5005C19.1242 21.3657 18.9964 21.2013 18.9041 21.0169C18.8119 20.8325 18.7571 20.6316 18.7429 20.4259C18.7286 20.2201 18.7553 20.0136 18.8212 19.8182C18.8872 19.6229 18.9912 19.4425 19.1272 19.2875C19.2632 19.1325 19.4286 19.0059 19.6137 18.9151C20.4712 18.4876 21.4322 18.3117 22.3856 18.408C23.3389 18.5043 24.2454 18.8687 25 19.4591C25.7547 18.8687 26.6612 18.5043 27.6145 18.408C28.5678 18.3117 29.5289 18.4876 30.3864 18.9151C30.7537 19.1024 31.0321 19.4273 31.1609 19.8189C31.2897 20.2105 31.2585 20.6372 31.0741 21.006C30.8897 21.3747 30.5671 21.6557 30.1764 21.7875C29.7858 21.9194 29.3589 21.8916 28.9887 21.7101C28.5305 21.4811 28.0001 21.4434 27.5142 21.6054C27.0283 21.7674 26.6266 22.1158 26.3975 22.5739C26.2677 22.8334 26.0683 23.0517 25.8214 23.2042C25.5746 23.3568 25.2902 23.4376 25 23.4376Z" fill="#92D1F7"/>
<path d="M76.5625 21.875H73.4375C73.0231 21.875 72.6257 21.7104 72.3326 21.4174C72.0396 21.1243 71.875 20.7269 71.875 20.3125C71.875 19.8981 72.0396 19.5007 72.3326 19.2076C72.6257 18.9146 73.0231 18.75 73.4375 18.75H76.5625C76.9769 18.75 77.3743 18.9146 77.6674 19.2076C77.9604 19.5007 78.125 19.8981 78.125 20.3125C78.125 20.7269 77.9604 21.1243 77.6674 21.4174C77.3743 21.7104 76.9769 21.875 76.5625 21.875Z" fill="#92D1F7"/>
<path d="M90.625 21.875H82.8125C82.3981 21.875 82.0007 21.7104 81.7076 21.4174C81.4146 21.1243 81.25 20.7269 81.25 20.3125C81.25 19.8981 81.4146 19.5007 81.7076 19.2076C82.0007 18.9146 82.3981 18.75 82.8125 18.75H90.625C91.0394 18.75 91.4368 18.9146 91.7299 19.2076C92.0229 19.5007 92.1875 19.8981 92.1875 20.3125C92.1875 20.7269 92.0229 21.1243 91.7299 21.4174C91.4368 21.7104 91.0394 21.875 90.625 21.875Z" fill="#A6DEFF"/>
<path d="M84.375 15.625H76.5625C76.1481 15.625 75.7507 15.4604 75.4576 15.1674C75.1646 14.8743 75 14.4769 75 14.0625C75 13.6481 75.1646 13.2507 75.4576 12.9576C75.7507 12.6646 76.1481 12.5 76.5625 12.5H84.375C84.7894 12.5 85.1868 12.6646 85.4799 12.9576C85.7729 13.2507 85.9375 13.6481 85.9375 14.0625C85.9375 14.4769 85.7729 14.8743 85.4799 15.1674C85.1868 15.4604 84.7894 15.625 84.375 15.625Z" fill="#A6DEFF"/>
<path d="M10.9375 48.4375H4.6875C4.2731 48.4375 3.87567 48.2729 3.58265 47.9799C3.28962 47.6868 3.125 47.2894 3.125 46.875C3.125 46.4606 3.28962 46.0632 3.58265 45.7701C3.87567 45.4771 4.2731 45.3125 4.6875 45.3125H10.9375C11.3519 45.3125 11.7493 45.4771 12.0424 45.7701C12.3354 46.0632 12.5 46.4606 12.5 46.875C12.5 47.2894 12.3354 47.6868 12.0424 47.9799C11.7493 48.2729 11.3519 48.4375 10.9375 48.4375Z" fill="#92D1F7"/>
<path d="M20.3125 48.4375H18.75C18.3356 48.4375 17.9382 48.2729 17.6451 47.9799C17.3521 47.6868 17.1875 47.2894 17.1875 46.875C17.1875 46.4606 17.3521 46.0632 17.6451 45.7701C17.9382 45.4771 18.3356 45.3125 18.75 45.3125H20.3125C20.7269 45.3125 21.1243 45.4771 21.4174 45.7701C21.7104 46.0632 21.875 46.4606 21.875 46.875C21.875 47.2894 21.7104 47.6868 21.4174 47.9799C21.1243 48.2729 20.7269 48.4375 20.3125 48.4375Z" fill="#A6DEFF"/>
<path d="M15.625 54.6875H9.375C8.9606 54.6875 8.56317 54.5229 8.27015 54.2299C7.97712 53.9368 7.8125 53.5394 7.8125 53.125C7.8125 52.7106 7.97712 52.3132 8.27015 52.0201C8.56317 51.7271 8.9606 51.5625 9.375 51.5625H15.625C16.0394 51.5625 16.4368 51.7271 16.7299 52.0201C17.0229 52.3132 17.1875 52.7106 17.1875 53.125C17.1875 53.5394 17.0229 53.9368 16.7299 54.2299C16.4368 54.5229 16.0394 54.6875 15.625 54.6875Z" fill="#A6DEFF"/>
<path d="M28.125 87.5H34.375V89.0625H28.125V87.5Z" fill="#A86E09"/>
<path d="M46.875 37.5H53.125V39.0625H46.875V37.5Z" fill="#A86E09"/>
<path d="M65.625 87.5H71.875V89.0625H65.625V87.5Z" fill="#A86E09"/>
<path d="M78.125 87.5H84.375V89.0625H78.125V87.5Z" fill="#A86E09"/>
<path d="M42.1875 93.75H37.5V59.375L39.0625 57.8125V48.4375L42.1875 45.3125V93.75Z" fill="#A86E09"/>
<path d="M42.1875 39.0625L4.6875 73.4375V81.25L42.1875 46.875V39.0625Z" fill="#933F35"/>
<path d="M59.375 95.3125H40.625V60.9375L50 54.6875L59.375 60.9375V95.3125Z" fill="#EE9D0D"/>
<path d="M50 85.9375C50.8288 85.9375 51.6237 86.2667 52.2097 86.8528C52.7958 87.4388 53.125 88.2337 53.125 89.0625V95.3125H46.875V89.0625C46.875 88.2337 47.2042 87.4388 47.7903 86.8528C48.3763 86.2667 49.1712 85.9375 50 85.9375Z" fill="#933F35"/>
<path d="M53.125 64.0625H51.5625V62.5C51.5625 62.0856 51.3979 61.6882 51.1049 61.3951C50.8118 61.1021 50.4144 60.9375 50 60.9375C49.5856 60.9375 49.1882 61.1021 48.8951 61.3951C48.6021 61.6882 48.4375 62.0856 48.4375 62.5V64.0625H46.875C46.4606 64.0625 46.0632 64.2271 45.7701 64.5201C45.4771 64.8132 45.3125 65.2106 45.3125 65.625C45.3125 66.0394 45.4771 66.4368 45.7701 66.7299C46.0632 67.0229 46.4606 67.1875 46.875 67.1875H48.4375V73.4375C48.4375 73.8519 48.6021 74.2493 48.8951 74.5424C49.1882 74.8354 49.5856 75 50 75C50.4144 75 50.8118 74.8354 51.1049 74.5424C51.3979 74.2493 51.5625 73.8519 51.5625 73.4375V67.1875H53.125C53.5394 67.1875 53.9368 67.0229 54.2299 66.7299C54.5229 66.4368 54.6875 66.0394 54.6875 65.625C54.6875 65.2106 54.5229 64.8132 54.2299 64.5201C53.9368 64.2271 53.5394 64.0625 53.125 64.0625Z" fill="#C7830B"/>
<path d="M40.625 78.125H59.375V81.25H40.625V78.125Z" fill="#C7830B"/>
<path d="M40.625 62.5V56.25L50 48.4375L59.375 56.25V62.5L50 54.6875L40.625 62.5Z" fill="#933F35"/>
<path d="M95.3125 96.875H4.6875C4.2731 96.875 3.87567 96.7104 3.58265 96.4174C3.28962 96.1243 3.125 95.7269 3.125 95.3125C3.125 94.8981 3.28962 94.5007 3.58265 94.2076C3.87567 93.9146 4.2731 93.75 4.6875 93.75H95.3125C95.7269 93.75 96.1243 93.9146 96.4174 94.2076C96.7104 94.5007 96.875 94.8981 96.875 95.3125C96.875 95.7269 96.7104 96.1243 96.4174 96.4174C96.1243 96.7104 95.7269 96.875 95.3125 96.875Z" fill="#7A4922"/>
<path d="M57.8125 39.0625L95.3125 73.4375V81.25L57.8125 46.875V39.0625Z" fill="#933F35"/>
</svg>
