<svg width="100" height="100" viewBox="0 0 100 100" fill="none" xmlns="http://www.w3.org/2000/svg">
<g clip-path="url(#clip0)">
<path d="M90.4148 2.91233V97.0877C90.4148 98.6976 89.1103 100 87.5024 100H12.4974C10.8895 100 9.58508 98.6976 9.58508 97.0877V2.91233C9.58508 1.30442 10.8895 0 12.4974 0H87.5024C89.1103 0 90.4148 1.30442 90.4148 2.91233Z" fill="#E8AD8C"/>
<path d="M23.2113 98.3004C21.6028 98.3004 20.299 96.9966 20.299 95.3881C20.299 94.5928 20.9522 93.9597 21.7475 93.9707C21.7767 93.9711 21.8058 93.9713 21.8352 93.9713H78.1651C81.6004 93.9713 84.3853 91.1864 84.3853 87.7511V12.2497C84.3853 8.81437 81.6004 6.02946 78.1651 6.02946H21.835C21.8297 6.02946 21.8243 6.02946 21.8191 6.02946C20.9846 6.03147 20.299 5.37565 20.299 4.54114V1.21277C20.299 0.779435 20.3963 0.369619 20.5661 0H12.4974C10.8889 0 9.58508 1.30381 9.58508 2.91233V97.0877C9.58508 98.6962 10.8889 100 12.4974 100H87.5024C88.6774 100 89.6878 99.3032 90.1481 98.3004H23.2113Z" fill="#E19974"/>
<path d="M18.6295 87.7511V12.2498C18.6295 10.4795 20.0646 9.04443 21.8349 9.04443H78.1648C79.9351 9.04443 81.3702 10.4795 81.3702 12.2498V87.7511C81.3702 89.5214 79.9351 90.9564 78.1648 90.9564H21.8349C20.0646 90.9564 18.6295 89.5214 18.6295 87.7511Z" fill="#BC7C63"/>
<path d="M73.4813 15.0742H26.5186C25.4918 15.0742 24.6593 15.9067 24.6593 16.9336V83.0665C24.6593 84.0934 25.4918 84.9259 26.5186 84.9259H32.2848L37.9025 82.8979H66.7606L67.9161 84.9259H73.4813C74.5082 84.9259 75.3406 84.0934 75.3406 83.0665V16.9336C75.3406 15.9067 74.5082 15.0742 73.4813 15.0742Z" fill="#FEE97D"/>
<path d="M63.0255 34.4193C63.0255 27.644 57.1831 22.1514 49.9762 22.1514H49.0457C41.8388 22.1514 35.9965 27.644 35.9965 34.4193V74.1329H63.0253V34.4193H63.0255Z" fill="#A79BA7"/>
<path d="M57.5998 67.7604L54.5683 65.9445V44.4909V42.7202H43.5219V57.9383C43.5219 58.5837 43.1405 59.1681 42.5498 59.4278L40.889 60.158C39.4821 60.7751 38.2098 61.6011 37.1003 62.59V62.592L37.1022 62.593L42.4181 71.3981L57.5998 67.7604Z" fill="#FFE5C2"/>
<path d="M47.3501 42.72H43.5221V57.938C43.5221 58.5834 43.1406 59.1679 42.5499 59.4276L40.8891 60.1578C39.4822 60.7748 38.2099 61.6009 37.1005 62.5897V62.5917L37.1023 62.5927L40.2158 67.7497C40.8326 66.8877 41.5423 66.0906 42.3396 65.3795C43.4491 64.3906 44.7214 63.5645 46.1283 62.9475L47.7891 62.2173C48.38 61.9574 48.7612 61.3731 48.7612 60.7278V59.2206C48.7612 58.085 49.4374 57.0529 50.4857 56.6167C52.0128 55.9812 53.3954 55.0657 54.5682 53.9335V45.5097V44.4907V42.72H47.3501Z" fill="#FED2A4"/>
<path d="M54.5684 35.4342V44.4908C54.5684 49.5215 50.4903 53.6016 45.4596 53.6016C42.9452 53.6016 40.666 52.5826 39.0179 50.9325C37.3698 49.2844 36.3488 47.0072 36.3488 44.4908V35.4342C36.3488 35.1086 36.5457 34.8152 36.8452 34.6906C38.2722 34.0977 39.6249 33.348 40.877 32.4616C42.1292 31.5732 43.2849 30.5462 44.318 29.3965L44.7481 28.9162C45.128 28.4941 45.7912 28.4941 46.1711 28.9162L46.6012 29.3965C48.6674 31.6958 51.2199 33.5047 54.074 34.6906C54.2247 34.7529 54.3473 34.8574 54.4337 34.988C54.5202 35.1167 54.5684 35.2714 54.5684 35.4342Z" fill="#FFE5C2"/>
<path d="M40.1703 35.4773C41.6158 34.5147 42.95 33.4018 44.1427 32.1561L44.6393 31.6355C45.0779 31.1781 45.8436 31.1781 46.282 31.6355L46.7786 32.1561C48.96 34.4345 51.612 36.2669 54.5694 37.5466V35.4342C54.5694 35.2714 54.5211 35.1167 54.4347 34.988C54.3483 34.8574 54.2257 34.7529 54.0749 34.6906C51.2209 33.5047 48.6683 31.6958 46.6022 29.3965L46.1721 28.9162C45.7922 28.4941 45.1289 28.4941 44.7491 28.9162L44.3189 29.3965C43.2859 30.5462 42.1302 31.5732 40.878 32.4616C39.6258 33.348 38.2732 34.0977 36.8462 34.6906C36.5467 34.8152 36.3497 35.1086 36.3497 35.4342V37.5474C37.6911 36.967 38.971 36.274 40.1703 35.4773Z" fill="#FED2A4"/>
<path d="M67.9161 73.337V84.926H32.2848V73.337C32.2848 69.1624 34.0877 65.2773 37.1005 62.5901V62.5921L38.3828 63.3116C43.3693 66.1034 49.1076 66.9817 54.5684 65.9446C57.0185 65.4783 59.4123 64.6261 61.6593 63.388L62.767 62.7762C62.9661 62.6663 63.2158 62.6934 63.3816 62.8492C63.9626 63.3948 64.4953 63.987 64.9756 64.6181C66.8468 67.0741 67.9161 70.1191 67.9161 73.337Z" fill="#918291"/>
<path d="M37.524 76.1267C37.524 71.9521 39.3268 68.067 42.3397 65.3798C42.4239 65.3046 42.5109 65.2325 42.5971 65.1591C41.151 64.683 39.7385 64.0706 38.3828 63.3116L37.1005 62.5921V62.5901C34.0877 65.2773 32.2848 69.1624 32.2848 73.337V84.926H37.524V76.1267Z" fill="#7A6D79"/>
<path d="M49.4391 82.8978V84.9258H37.9023V82.8978C37.9023 81.0587 39.3937 79.5674 41.2347 79.5674H46.1087C47.9478 79.5674 49.4391 81.0587 49.4391 82.8978Z" fill="#B5ADB6"/>
</g>
<defs>
<clipPath id="clip0">
<rect width="100" height="100" fill="white"/>
</clipPath>
</defs>
</svg>
