<svg width="100" height="100" viewBox="0 0 100 100" fill="none" xmlns="http://www.w3.org/2000/svg">
<g clip-path="url(#clip0)">
<path d="M96.9925 14.6411C95.3177 16.4923 92.9136 18.3792 89.8277 20.27C89.1697 20.6743 88.4799 21.0786 87.7586 21.4831C85.2078 22.91 82.324 24.3114 79.1826 25.6512C78.2451 26.0516 77.3908 26.4005 76.6515 26.6938C74.9093 27.3835 73.7994 27.7719 73.734 27.7938C73.5754 27.8493 73.4109 27.8751 73.2465 27.8751C72.9728 27.8751 72.7013 27.7999 72.4636 27.653C72.081 27.4171 71.8275 27.0208 71.7718 26.5768C71.54 24.7495 71.5658 22.8706 71.8451 20.9936C71.966 20.1809 72.7252 19.6241 73.5338 19.743C74.3465 19.8639 74.9072 20.6212 74.7863 21.4337C74.6416 22.3948 74.5761 23.3561 74.5881 24.3055C74.8892 24.1905 75.2242 24.0598 75.5869 23.9171C76.3004 23.6317 77.1209 23.2967 78.0148 22.9163C81.0591 21.618 83.8478 20.2643 86.3054 18.8887C86.9257 18.5399 87.5998 18.1495 88.2933 17.7214C92.8242 14.9286 98.3043 10.5842 96.7287 6.61022C95.9576 4.66393 94.598 3.57585 92.6914 3.3737C88.3369 2.91178 82.1631 6.89167 78.3121 12.6356L77.1625 14.5858C76.7463 15.2934 75.8345 15.5294 75.1269 15.113C74.4193 14.6967 74.1836 13.785 74.5998 13.0774L75.7711 11.0895C75.7849 11.0657 75.8008 11.0419 75.8166 11.018C80.3078 4.29518 87.5381 -0.164389 93.0045 0.416471C96.0111 0.735611 98.3142 2.54713 99.4916 5.51413C100.657 8.45143 99.8148 11.5235 96.9925 14.6411Z" fill="#DB5C6E"/>
<path d="M73.2462 27.8757C72.9726 27.8757 72.7005 27.8001 72.4625 27.6522C72.0818 27.4159 71.8279 27.0204 71.7714 26.5759C71.54 24.7483 71.5646 22.87 71.8449 20.9935C71.9662 20.1813 72.725 19.6228 73.5345 19.7429C74.3464 19.8642 74.9064 20.6208 74.7853 21.4327C74.6418 22.3944 74.5763 23.3554 74.589 24.3058C75.489 23.9595 76.6701 23.4894 78.016 22.9157C81.0597 21.6187 83.8486 20.2638 86.305 18.8884C90.9777 16.2706 98.5457 11.1942 96.7287 6.61045C95.9572 4.66455 94.5988 3.57529 92.692 3.37295C88.3363 2.91123 82.1627 6.89092 78.3113 12.6349L77.1627 14.5862C76.7459 15.2937 75.8351 15.5292 75.1275 15.1132C74.4201 14.6968 74.1841 13.7856 74.6005 13.078L75.7711 11.0897C75.7853 11.0655 75.8005 11.0415 75.8162 11.0181C80.3076 4.29482 87.5384 -0.16455 93.0056 0.416505C96.0115 0.73545 98.3154 2.546 99.4926 5.51475C100.657 8.45186 99.8156 11.5224 96.9922 14.6413C94.9599 16.8864 91.8531 19.188 87.758 21.4823C85.2084 22.9097 82.323 24.312 79.1818 25.6507C76.0431 26.9888 73.8267 27.7612 73.7339 27.7935C73.5752 27.8485 73.4103 27.8757 73.2462 27.8757Z" fill="#DB5C6E"/>
<path d="M88.3554 52.3111C89.155 51.3725 89.7108 50.2473 89.9589 49.0402C90.839 44.7545 92.0471 33.7025 86.1923 17.7912C85.4511 15.775 83.86 14.184 81.8438 13.4428C65.9325 7.58789 54.8804 8.79629 50.596 9.67754C49.3876 9.92402 48.2624 10.4799 47.3251 11.2811C29.7942 26.2346 16.5407 39.3383 1.79559 56.3529C-0.508118 59.0107 -0.607532 62.9355 1.57352 65.6941C11.104 77.742 21.8931 88.5312 33.9411 98.0617C36.6997 100.243 40.6243 100.143 43.2821 97.8396C60.2981 83.0957 73.4005 69.8408 88.3554 52.3111ZM69.1788 30.4563C66.9325 28.21 66.9325 24.5672 69.1788 22.3209C71.4253 20.0744 75.0679 20.0744 77.3143 22.3209C79.5608 24.5674 79.5606 28.21 77.3143 30.4564C75.0679 32.7027 71.4251 32.7027 69.1788 30.4563Z" fill="#FFD064"/>
<path d="M50.5957 9.67743C49.3867 9.92489 48.2623 10.48 47.325 11.2806C29.7926 26.2343 16.5406 39.3393 1.79413 56.3528C-0.508993 59.0101 -0.607626 62.9366 1.57284 65.6944C1.73788 65.9036 1.90468 66.1128 2.06972 66.32C1.67753 64.2101 2.37538 61.7901 4.06718 59.8811C19.3266 42.6706 32.8641 29.2638 50.5777 13.7669C51.5232 12.9362 52.6275 12.3225 53.7861 11.9927C57.0588 11.0532 64.401 9.57079 74.5973 11.1499C62.5744 7.96552 54.1963 8.9372 50.5957 9.67743Z" fill="#FFC250"/>
<path d="M23.8164 65.6486C23.5529 65.3851 23.3363 65.0658 23.1863 64.699C22.5824 63.2217 23.2906 61.5345 24.7679 60.9306L60.317 46.3992C61.7941 45.7955 63.4809 46.5029 64.0854 47.9806C64.6893 49.458 63.9811 51.1451 62.5037 51.749L26.9547 66.2804C25.8439 66.7345 24.6148 66.447 23.8164 65.6486Z" fill="#DB5C6E"/>
<path d="M35.1783 46.1782C31.4912 42.491 31.8289 36.1543 35.9308 32.0522C40.0328 27.95 46.3697 27.6127 50.0568 31.2996C53.7439 34.9867 53.4064 41.3237 49.3045 45.4256C45.2025 49.5276 38.8654 49.8653 35.1783 46.1782ZM45.9697 35.3866C44.5605 33.9774 41.8346 34.3219 40.0174 36.1391C38.2002 37.9563 37.8557 40.6821 39.2648 42.0914C40.6742 43.5008 43.4 43.1563 45.2172 41.3391C47.0346 39.5217 47.3791 36.7959 45.9697 35.3866Z" fill="#DB5C6E"/>
<path d="M36.3373 81.5782C32.6502 77.8911 32.9877 71.5542 37.0897 67.4522C41.1916 63.3503 47.5285 63.0128 51.2157 66.6999C54.9028 70.387 54.5651 76.7237 50.4631 80.8257C46.3614 84.9276 40.0244 85.2651 36.3373 81.5782ZM47.1289 70.7866C45.7196 69.3772 42.9938 69.7218 41.1766 71.5389C39.3594 73.3561 39.0149 76.0819 40.4242 77.4913C41.8334 78.9005 44.5594 78.5559 46.3766 76.7387C48.1936 74.9216 48.5381 72.1958 47.1289 70.7866Z" fill="#DB5C6E"/>
<path d="M73.2464 33.6253C71.3927 33.6253 69.5388 32.9197 68.1275 31.5083C65.3048 28.6857 65.3048 24.0931 68.1275 21.2705C69.4949 19.9031 71.3128 19.1501 73.2466 19.1501C75.1802 19.1501 76.998 19.9031 78.3656 21.2705C81.1882 24.0931 81.1882 28.6857 78.3656 31.5083C76.9541 32.9197 75.1003 33.6253 73.2464 33.6253ZM73.2466 22.1232C72.107 22.1232 71.0357 22.5669 70.2298 23.3728C68.5662 25.0363 68.5662 27.7429 70.2298 29.4062C71.8935 31.0699 74.6 31.0695 76.263 29.4062C77.9267 27.7427 77.9267 25.0361 76.263 23.3728C75.4574 22.5669 74.3861 22.1232 73.2466 22.1232Z" fill="#FFC250"/>
<path d="M89.8277 20.2701C89.1697 20.6744 88.4799 21.0787 87.7586 21.4832C85.2078 22.9101 82.324 24.3115 79.1826 25.6513C78.2451 26.0517 77.3908 26.4005 76.6515 26.6939C76.1203 25.8673 75.7517 24.9259 75.5873 23.9171C76.3008 23.6318 77.1213 23.2968 78.0152 22.9164C81.0595 21.6181 83.8482 20.2644 86.3058 18.8888C86.9262 18.54 87.6002 18.1496 88.2937 17.7214C88.9674 18.4505 89.4928 19.3148 89.8277 20.2701Z" fill="#DB5C6E"/>
</g>
<defs>
<clipPath id="clip0">
<rect width="100" height="100" fill="white"/>
</clipPath>
</defs>
</svg>
