<svg width="100" height="100" viewBox="0 0 100 100" fill="none" xmlns="http://www.w3.org/2000/svg">
<g clip-path="url(#clip0)">
<path d="M41.4717 0V25.2494H29.0234L22.7953 27.2025L16.5672 25.2494H4.11914V42.3148H18.5203L41.4717 55.6541V100H50.0041L53.9104 37.435L50.0041 0L41.4717 0Z" fill="#B46D3C"/>
<path d="M58.5368 25.2494V0H50.004V100H58.5368V55.6541L81.4796 42.3148H95.8808V25.2494H83.4327L77.2089 27.2025L70.9851 25.2494H58.5368Z" fill="#8E562F"/>
<path d="M16.5671 25.281V86.307L29.0234 80.083V49.3318L16.5671 25.281Z" fill="#F9D07F"/>
<path d="M83.4328 25.281V86.307L70.9851 80.083V49.3314L83.4328 25.281Z" fill="#E7B964"/>
<path d="M29.0234 25.2495H16.5671C16.5671 43.7163 31.5373 58.6864 50.0041 58.6866L53.9103 51.7579L50.0041 46.2304C38.4167 46.2302 29.0234 36.8368 29.0234 25.2495Z" fill="#FFE79B"/>
<path d="M70.9851 25.2495C70.9851 36.8368 61.5917 46.2304 50.0042 46.2304H50.004V58.6866H50.0042C68.471 58.6866 83.4413 43.7163 83.4413 25.2495H70.9851Z" fill="#F9D07F"/>
</g>
<defs>
<clipPath id="clip0">
<rect width="100" height="100" fill="white"/>
</clipPath>
</defs>
</svg>
