<svg width="261" height="55" viewBox="0 0 261 55" fill="none" xmlns="http://www.w3.org/2000/svg">
<path d="M79.4352 45.9644V17.7869C79.4352 17.2415 80.0784 17.1972 80.0784 17.1972H82.9243C83.6124 17.1972 83.6124 17.7869 83.6124 17.7869V45.9644C83.6124 46.5097 84.2556 46.5541 84.2556 46.5541H86.6415C87.3296 46.5541 87.3296 45.9644 87.3296 45.9644V16.6537C87.3296 16.6537 87.3296 16.064 86.6415 16.064H76.3612C76.3612 16.064 75.718 16.1102 75.718 16.6537V45.9644C75.718 46.5097 76.3612 46.5541 76.3612 46.5541H78.7471C79.4352 46.5541 79.4352 45.9644 79.4352 45.9644ZM102.705 30.174V16.6519C102.705 16.6519 102.705 16.0622 102.017 16.0622H91.69C91.69 16.0622 91.0468 16.1084 91.0468 16.6519V45.9625C91.0468 46.5079 91.69 46.5522 91.69 46.5522H94.0759C94.764 46.5522 94.764 45.9625 94.764 45.9625V34.3462C94.764 32.213 96.7366 30.7619 98.9411 30.7619H102.017C102.705 30.7619 102.705 30.1722 102.705 30.1722V30.174ZM98.253 29.6287C97.105 29.6287 95.682 30.174 94.764 31.126V17.7869C94.764 17.2415 95.4072 17.1972 95.4072 17.1972H98.253C98.9411 17.1972 98.9411 17.7869 98.9411 17.7869V29.039C98.9411 29.039 98.9411 29.6287 98.253 29.6287ZM109.818 20.4174C108.717 23.5932 108.165 25.1367 106.697 30.0816C105.549 33.9377 105.044 36.7068 105.044 42.2414C105.044 45.6446 107.477 47.1419 108.487 47.1419C111.469 47.1419 113.993 43.9661 114.498 42.5131L115.186 45.9625C115.324 46.5522 115.829 46.5522 115.829 46.5522H118.262C118.95 46.5522 118.95 45.9625 118.95 45.9625L112.753 16.6519C112.753 16.6519 112.662 16.0622 112.065 16.0622H109.724C109.724 16.0622 108.945 16.1084 109.081 16.8792L109.816 20.4192L109.818 20.4174ZM114.087 40.6997C113.307 42.6056 111.929 43.2858 110.186 43.2858C109.268 43.2858 108.35 41.245 108.35 38.5221C108.35 32.4422 108.902 27.8596 110.323 22.6874L114.087 40.7016V40.6997ZM131.986 31.8525H128.957C126.755 31.8525 124.78 30.4014 124.78 28.2682C124.78 26.1349 126.753 24.6838 128.957 24.6838H131.665C132.353 24.6838 132.353 24.0941 132.353 24.0941V16.6537C132.353 16.6537 132.353 16.064 131.665 16.064H121.706C121.706 16.064 121.063 16.1102 121.063 16.6537V45.9644C121.063 46.5097 121.706 46.5541 121.706 46.5541H131.986C132.674 46.5541 132.674 45.9644 132.674 45.9644V32.4422C132.674 32.4422 132.674 31.8525 131.986 31.8525ZM124.78 44.8294V31.444C124.78 31.444 126.203 32.9875 128.269 32.9875C128.957 32.9875 128.957 33.5772 128.957 33.5772V44.8294C128.957 44.8294 128.957 45.4191 128.269 45.4191H125.423C125.423 45.4191 124.78 45.3729 124.78 44.8294ZM128.269 23.5044C127.076 23.5044 125.698 24.0941 124.78 25.048V17.7887C124.78 17.2434 125.423 17.199 125.423 17.199H128.269C128.957 17.199 128.957 17.7887 128.957 17.7887V22.9166C128.957 22.9166 128.957 23.5063 128.269 23.5063V23.5044ZM138.275 19.1936C136.347 21.643 135.934 25.9094 135.934 27.9964C135.934 33.2149 138.366 38.2504 139.238 42.2432C139.926 45.3285 139.468 47.19 140.477 47.19C142.91 47.19 144.471 44.5133 145.159 43.6056C147.362 40.8827 147.5 35.7105 147.5 34.849C147.5 28.9503 144.746 24.0498 144.105 20.6022C143.508 17.3802 144.058 15.6573 142.957 15.6573C141.029 15.6573 139.514 17.6076 138.275 19.1973V19.1936ZM140.524 23.0497C141.076 24.7282 142.13 27.0426 143.645 31.5808C144.105 32.9875 145.298 35.4369 144.746 39.9751C144.563 40.7016 144.38 42.4244 143.736 42.4244C143.37 42.4244 143.506 41.4706 142.865 39.7477C141.304 35.6642 141.167 35.2095 139.789 31.309C138.458 27.4067 138.458 26.2736 138.733 22.8704C138.824 21.8722 139.099 20.4211 139.698 20.4211C139.928 20.4211 139.744 20.7834 140.524 23.0534V23.0497ZM150.346 25.1367C150.346 33.7584 155.395 40.7903 155.395 43.5594C155.395 44.6039 154.798 45.4653 154.338 45.7832H153.88C154.385 45.3285 154.66 44.7388 154.66 43.968C154.66 42.7886 153.512 41.9715 152.457 41.9715C151.722 41.9715 150.346 42.5612 150.346 44.0585C150.346 45.6927 151.999 46.8258 154.202 46.8258C157.461 46.8258 161.913 41.6073 161.913 35.5737V33.6678C161.913 33.3055 161.683 33.0319 161.27 33.0319H158.884C158.517 33.0319 158.24 33.3942 158.24 33.6678V36.0266C158.24 37.8418 158.745 44.2397 155.12 45.6908C159.389 41.6517 154.063 32.8045 154.063 24.547C154.063 18.3303 154.843 16.5613 156.128 16.5613C157.504 16.5613 158.239 18.286 158.239 24.547V27.1794C158.239 27.5417 158.469 27.8153 158.882 27.8153H161.268C161.589 27.8153 161.911 27.5879 161.911 27.1794V25.1367C161.911 18.9662 160.443 15.3357 156.128 15.3357C151.079 15.3357 150.344 21.4156 150.344 25.1367H150.346ZM170.493 45.9644C169.575 44.8294 167.694 42.2432 167.694 38.5221C167.694 32.4422 168.246 27.904 169.667 22.7317L174.532 45.9625C174.671 46.5522 175.175 46.5522 175.175 46.5522H177.608C178.296 46.5522 178.296 45.9625 178.296 45.9625L172.1 16.6519C172.1 16.6519 172.008 16.0622 171.411 16.0622H169.07C169.07 16.0622 168.291 16.1084 168.427 16.8792L169.162 20.4192C168.061 23.595 167.509 25.1386 166.041 30.0835C164.893 33.9395 164.388 36.6625 164.388 40.5204C164.388 43.9236 165.856 46.5559 166.453 46.5559H169.803C170.492 46.5559 170.492 45.9662 170.492 45.9662L170.493 45.9644ZM184.263 20.4192C183.161 23.595 182.61 25.1386 181.142 30.0835C179.994 33.9395 179.489 36.7087 179.489 42.2432C179.489 45.6464 181.922 47.1438 182.931 47.1438C185.914 47.1438 188.438 43.968 188.943 42.515L189.631 45.9644C189.769 46.5541 190.274 46.5541 190.274 46.5541H192.707C193.395 46.5541 193.395 45.9644 193.395 45.9644L187.198 16.6537C187.198 16.6537 187.107 16.064 186.51 16.064H184.169C184.169 16.064 183.39 16.1102 183.526 16.8811L184.261 20.4211L184.263 20.4192ZM188.532 40.7016C187.752 42.6074 186.374 43.2877 184.631 43.2877C183.713 43.2877 182.795 41.2469 182.795 38.524C182.795 32.4441 183.347 27.8615 184.768 22.6892L188.532 40.7034V40.7016ZM206.431 31.8544H203.402C201.2 31.8544 199.225 30.4033 199.225 28.27C199.225 26.1368 201.198 24.6857 203.402 24.6857H206.11C206.798 24.6857 206.798 24.096 206.798 24.096V16.6555C206.798 16.6555 206.798 16.0659 206.11 16.0659H196.151C196.151 16.0659 195.508 16.1121 195.508 16.6555V45.9662C195.508 46.5116 196.151 46.5559 196.151 46.5559H206.431C207.119 46.5559 207.119 45.9662 207.119 45.9662V32.4441C207.119 32.4441 207.119 31.8544 206.431 31.8544ZM199.225 44.8312V31.4458C199.225 31.4458 200.648 32.9894 202.714 32.9894C203.402 32.9894 203.402 33.5791 203.402 33.5791V44.8312C203.402 44.8312 203.402 45.4209 202.714 45.4209H199.868C199.868 45.4209 199.225 45.3747 199.225 44.8312ZM202.714 23.5063C201.521 23.5063 200.143 24.096 199.225 25.0498V17.7906C199.225 17.2452 199.868 17.2009 199.868 17.2009H202.714C203.402 17.2009 203.402 17.7906 203.402 17.7906V22.9185C203.402 22.9185 203.402 23.5081 202.714 23.5081V23.5063ZM218.731 33.08V45.9662C218.731 46.5116 219.374 46.5559 219.374 46.5559H221.76C222.448 46.5559 222.448 45.9662 222.448 45.9662V16.6555C222.448 16.6555 222.448 16.0659 221.76 16.0659H219.374C219.374 16.0659 218.731 16.1121 218.731 16.6555V31.0392C217.355 30.6768 214.554 29.2239 214.554 27.5898V16.6555C214.554 16.6555 214.554 16.0659 213.866 16.0659H211.48C211.48 16.0659 210.837 16.1121 210.837 16.6555V45.9662C210.837 46.5116 211.48 46.5559 211.48 46.5559H213.866C214.554 46.5559 214.554 45.9662 214.554 45.9662V30.2221C215.977 32.128 218.731 31.7194 218.731 33.08ZM237.089 31.8544H234.06C231.857 31.8544 229.883 30.4033 229.883 28.27V16.6537C229.883 16.6537 229.883 16.064 229.194 16.064H226.809C226.809 16.064 226.165 16.1102 226.165 16.6537V45.9644C226.165 46.5097 226.809 46.5541 226.809 46.5541H237.089C237.777 46.5541 237.777 45.9644 237.777 45.9644V32.4422C237.777 32.4422 237.777 31.8525 237.089 31.8525V31.8544ZM241.907 16.6537V45.9644C241.907 46.5097 242.551 46.5541 242.551 46.5541H244.936C245.624 46.5541 245.624 45.9644 245.624 45.9644V16.6537C245.624 16.6537 245.624 16.064 244.936 16.064H242.551C242.551 16.064 241.907 16.1102 241.907 16.6537ZM229.883 31.4458C230.801 32.3997 232.224 32.9894 233.372 32.9894C234.06 32.9894 234.06 33.5791 234.06 33.5791V44.8312C234.06 44.8312 234.06 45.4209 233.372 45.4209H230.526C230.526 45.4209 229.883 45.3747 229.883 44.8312V31.4458ZM255.677 11.1191C255.677 11.1191 255.172 10.5738 254.575 11.1653L253.291 12.4353C253.291 12.4353 252.786 13.025 253.244 13.4797L254.667 14.8865C255.127 15.3394 255.723 14.8403 255.723 14.8403L257.008 13.5703C257.604 12.9806 257.055 12.4815 257.055 12.4815L255.679 11.121L255.677 11.1191ZM257.283 26.7283V45.9662C257.283 46.5116 257.926 46.5559 257.926 46.5559H260.312C261 46.5559 261 45.9662 261 45.9662V16.6555C261 16.6555 261 16.0659 260.312 16.0659H257.926C257.926 16.0659 257.283 16.1121 257.283 16.6555V22.7354C257.283 23.4619 256.87 24.5507 256.503 25.2754L253.108 32.2167V16.6537C253.108 16.6537 253.108 16.064 252.419 16.064H250.034C250.034 16.064 249.39 16.1102 249.39 16.6537V45.9644C249.39 46.5097 250.034 46.5541 250.034 46.5541H252.419C253.108 46.5541 253.108 45.9644 253.108 45.9644V35.936C253.108 34.7104 253.612 33.849 253.842 33.3942L257.285 26.7246L257.283 26.7283Z" fill="url(#paint0_linear)"/>
<path d="M6.21371 1.53412C6.38806 3.04816 8.07829 6.92063 8.90161 8.6676C9.87023 10.7543 11.9237 15.146 12.3886 16.0195C12.9698 17.1113 20.8882 24.7544 22.4138 26.4285C23.9394 28.1027 32.5843 32.179 35.2722 33.1981C37.9601 34.2171 44.3529 35.0178 45.5879 35.0178C46.5759 35.0178 50.3099 33.4164 52.0534 32.6157C53.579 31.8878 56.8335 30.3156 57.6472 29.8497C58.6642 29.2674 59.9718 28.8306 60.6983 29.5585C61.4248 30.2864 61.2068 32.3246 58.7368 33.1981C59.6812 33.9988 59.0274 36.1097 55.1772 37.2743C56.1216 38.3662 55.3951 40.186 51.3996 40.4771C52.344 41.0595 51.8355 43.0976 48.1305 42.952C48.857 44.1167 47.3314 44.699 43.4812 44.2622C44.7162 45.9364 40.8659 45.7909 36.8704 44.699C37.3063 46.5915 35.8533 46.446 34.7636 44.9902C34.691 46.8099 33.2381 46.3732 32.5843 45.1357C32.5843 46.5188 31.2766 46.5188 30.4049 45.0629C29.8237 47.0283 28.8793 46.446 28.734 44.9902C27.6443 46.2276 26.1914 45.8636 26.4093 44.699C24.2009 45.5142 24.3268 44.5049 24.6658 43.8983L15.4398 42.5881C14.4954 42.1513 14.2048 41.8602 14.4954 40.9139C13.1877 41.3506 12.4613 40.4043 12.8972 39.7492C11.8801 39.822 10.5725 39.0941 11.3716 38.3662C9.33751 38.1478 8.61104 37.4199 9.4828 36.5464C8.17517 36.4737 7.30341 35.8913 8.02988 35.0178C6.57695 34.945 6.14108 34.3627 7.08548 33.562C5.77785 33.562 5.26932 32.8341 6.50431 32.179C5.26932 32.1062 4.17963 31.3055 5.41462 30.432C3.88905 30.5776 3.30788 29.413 4.83345 28.8306C2.14554 27.4476 1.70967 26.2102 3.38053 25.6278C0.474683 23.8081 -0.324424 21.3332 2.50877 21.3332C0.111452 19.5134 -0.39707 16.4562 1.20113 16.7474C-0.25181 15.4372 -0.542365 12.016 1.20113 12.5255C-0.251795 10.9241 -0.0338571 7.43019 2.00024 7.64856C0.98319 5.97438 1.56436 2.55322 3.6711 2.84435C3.6711 -1.08634 5.99577 -0.358438 6.21371 1.53412Z" fill="url(#paint1_linear)"/>
<path d="M11.2985 11.3606C12.1121 13.2823 13.5263 16.2376 14.1317 17.475C16.2287 20.2645 19.3112 23.8781 22.486 26.5011C26.6268 29.9223 30.6224 31.0869 30.7676 31.6692C30.9129 32.2516 29.0968 35.3816 27.4986 37.2013C25.9004 39.0211 21.0331 40.4769 20.8151 40.4769C20.5972 40.4769 17.4734 39.8218 17.0375 38.1476C15.0761 37.7837 14.4223 36.5462 14.8582 35.1632C12.5335 34.2897 10.7173 32.4699 11.7344 31.3053C9.48234 29.9223 8.24736 28.3209 9.91822 26.8651C7.81148 25.1909 6.93973 23.08 8.46529 21.8425C6.64914 20.0227 5.92268 18.1302 7.44826 17.0383C5.23981 14.0102 6.81866 12.5253 7.88413 12.1614C7.69041 12.0643 7.33202 11.2151 7.44826 8.59459C7.59355 5.31901 10.2815 8.95854 11.2985 11.3606Z" fill="url(#paint2_linear)"/>
<path d="M23.7616 26.2646C26.1444 28.0698 30.4208 29.9284 32.2612 30.6321C32.7213 30.7534 34.7166 31.4619 39.0173 33.3253C44.3931 35.6546 49.4783 32.5974 50.8586 31.8695C52.2389 31.1416 53.038 31.6512 53.1833 32.2335C53.3286 32.8158 52.82 34.1988 49.9142 34.9995C51.1492 35.2179 50.9313 37.62 46.2093 38.1295C46.5725 40.386 44.2478 40.8955 41.4146 40.6044C42.7222 42.2058 38.7267 42.5698 34.9491 42.2058C36.3294 44.0984 28.3383 43.3705 27.2486 43.0793C26.1589 42.7881 22.5266 40.3132 21.5096 40.0221C20.4925 39.7309 19.7661 38.8574 20.4925 37.1832C17.8046 37.1105 17.2961 34.5628 18.6764 33.0342C14.4629 31.6512 14.7535 29.6858 16.8602 29.0307C13.5912 27.4293 13.3006 25.8279 14.3903 25.3184C12.6468 24.0081 11.775 22.6979 12.9373 21.4605C11.0776 19.4806 12.5983 18.9371 13.5912 18.9128C13.4217 18.2334 13.1262 16.7145 13.3006 16.0739C13.5185 15.2732 13.7365 15.1277 15.48 18.1849C17.2235 21.2421 20.7831 24.0081 23.7616 26.2646Z" fill="url(#paint3_linear)"/>
<path d="M39.9951 24.9C40.3438 25.7735 41.2059 26.3316 41.5934 26.5014C39.1234 27.3749 38.6149 29.0491 38.6875 29.9954C38.7602 30.9417 39.7772 31.9607 39.7772 34.654C39.7772 37.6464 36.6534 39.8949 34.7646 40.7684C32.8758 41.6419 30.6238 42.1514 29.4615 42.6609C28.2991 43.1704 26.7009 43.7528 23.5771 44.3351C23.2139 44.9902 23.2139 46.6644 24.0856 49.5032C24.9574 52.3421 24.6668 53.1428 24.5215 53.5067C24.3762 53.8707 22.8507 55.0353 21.8336 52.0509C22.0516 55.6176 20.2354 55.3265 19.0731 52.5604C18.4192 55.7632 16.9663 55.7632 16.5305 52.8516C15.804 55.9088 13.9878 55.1081 13.9878 52.3421C11.9537 54.8897 10.7188 54.0163 11.4452 51.4686C7.88557 53.7979 7.23175 52.5604 8.61203 50.4495C4.97972 52.1965 4.4712 50.6679 5.85148 49.3577C4.68914 49.7216 1.71065 50.0128 1.92859 48.7025C2.14653 47.3923 6.94117 45.6453 8.39409 44.9902C9.84701 44.3351 20.3807 39.8221 23.0686 38.5847C25.7565 37.3472 27.5727 34.7995 28.0812 34.0716C28.5897 33.3437 30.0426 30.6505 31.6408 28.1756C33.2391 25.7007 34.4014 23.7879 36.1449 23.2987C37.961 22.7891 39.5593 23.8082 39.9951 24.9Z" fill="url(#paint4_linear)"/>
<defs>
<linearGradient id="paint0_linear" x1="75.718" y1="10.8899" x2="89.4159" y2="80.8064" gradientUnits="userSpaceOnUse">
<stop stop-color="#C9BBAE"/>
<stop offset="1" stop-color="#9A7F5F"/>
</linearGradient>
<linearGradient id="paint1_linear" x1="-9.73457" y1="20.3869" x2="64.2137" y2="45.7211" gradientUnits="userSpaceOnUse">
<stop stop-color="#E2EAFD"/>
<stop offset="0.420048" stop-color="#5B8AE6"/>
<stop offset="1" stop-color="#DDE9FC"/>
</linearGradient>
<linearGradient id="paint2_linear" x1="6.3924" y1="13.69" x2="25.0035" y2="22.5417" gradientUnits="userSpaceOnUse">
<stop stop-color="#DDE8FB"/>
<stop offset="1" stop-color="#5486E7"/>
</linearGradient>
<linearGradient id="paint3_linear" x1="22.0842" y1="24.2449" x2="38.6144" y2="44.5213" gradientUnits="userSpaceOnUse">
<stop stop-color="#E2EAFD"/>
<stop offset="0.598153" stop-color="#5F8DE8"/>
<stop offset="1" stop-color="#DDE9FC"/>
</linearGradient>
<linearGradient id="paint4_linear" x1="29.4953" y1="17.6938" x2="7.35006" y2="50.8457" gradientUnits="userSpaceOnUse">
<stop stop-color="#E4ECFF"/>
<stop offset="1" stop-color="#5381D9"/>
</linearGradient>
</defs>
</svg>
