<svg width="570" height="120" viewBox="0 0 570 120" fill="none" xmlns="http://www.w3.org/2000/svg">
<path d="M173.312 100.286V38.8076C173.312 37.6178 174.716 37.5211 174.716 37.5211H180.925C182.426 37.5211 182.426 38.8076 182.426 38.8076V100.286C182.426 101.475 183.829 101.572 183.829 101.572H189.035C190.536 101.572 190.536 100.286 190.536 100.286V36.3353C190.536 36.3353 190.536 35.0487 189.035 35.0487H166.605C166.605 35.0487 165.202 35.1495 165.202 36.3353V100.286C165.202 101.475 166.605 101.572 166.605 101.572H171.811C173.312 101.572 173.312 100.286 173.312 100.286ZM224.083 65.8341V36.3313C224.083 36.3313 224.083 35.0447 222.581 35.0447H200.05C200.05 35.0447 198.646 35.1455 198.646 36.3313V100.282C198.646 101.471 200.05 101.568 200.05 101.568H205.255C206.757 101.568 206.757 100.282 206.757 100.282V74.937C206.757 70.2827 211.061 67.1166 215.87 67.1166H222.581C224.083 67.1166 224.083 65.83 224.083 65.83V65.8341ZM214.369 64.6443C211.864 64.6443 208.76 65.8341 206.757 67.9112V38.8076C206.757 37.6178 208.16 37.5211 208.16 37.5211H214.369C215.87 37.5211 215.87 38.8076 215.87 38.8076V63.3577C215.87 63.3577 215.87 64.6443 214.369 64.6443ZM239.601 44.5469C237.199 51.4759 235.995 54.8436 232.793 65.6324C230.288 74.0457 229.186 80.0874 229.186 92.1628C229.186 99.5879 234.494 102.855 236.697 102.855C243.204 102.855 248.711 95.9258 249.813 92.7557L251.314 100.282C251.616 101.568 252.717 101.568 252.717 101.568H258.025C259.526 101.568 259.526 100.282 259.526 100.282L246.006 36.3313C246.006 36.3313 245.806 35.0447 244.505 35.0447H239.397C239.397 35.0447 237.696 35.1455 237.994 36.8273L239.597 44.5509L239.601 44.5469ZM248.915 88.7991C247.214 92.9573 244.207 94.4415 240.405 94.4415C238.402 94.4415 236.399 89.9889 236.399 84.048C236.399 70.7828 237.602 60.7845 240.703 49.4996L248.915 88.8031V88.7991ZM287.969 69.4962H281.36C276.554 69.4962 272.246 66.3302 272.246 61.6759C272.246 57.0215 276.55 53.8555 281.36 53.8555H287.267C288.769 53.8555 288.769 52.5689 288.769 52.5689V36.3353C288.769 36.3353 288.769 35.0487 287.267 35.0487H265.539C265.539 35.0487 264.136 35.1495 264.136 36.3353V100.286C264.136 101.475 265.539 101.572 265.539 101.572H287.969C289.47 101.572 289.47 100.286 289.47 100.286V70.7828C289.47 70.7828 289.47 69.4962 287.969 69.4962ZM272.246 97.8093V68.6049C272.246 68.6049 275.351 71.9726 279.859 71.9726C281.36 71.9726 281.36 73.2592 281.36 73.2592V97.8093C281.36 97.8093 281.36 99.0958 279.859 99.0958H273.65C273.65 99.0958 272.246 98.995 272.246 97.8093ZM279.859 51.2823C277.256 51.2823 274.249 52.5689 272.246 54.65V38.8117C272.246 37.6219 273.65 37.5251 273.65 37.5251H279.859C281.36 37.5251 281.36 38.8117 281.36 38.8117V49.9998C281.36 49.9998 281.36 51.2863 279.859 51.2863V51.2823ZM301.689 41.8769C297.482 47.2209 296.581 56.5295 296.581 61.083C296.581 72.4687 301.888 83.4551 303.79 92.1668C305.291 98.8982 304.291 102.96 306.494 102.96C311.802 102.96 315.208 97.1196 316.71 95.1393C321.515 89.1984 321.817 77.9135 321.817 76.034C321.817 63.1641 315.808 52.4721 314.409 44.9502C313.107 37.9203 314.307 34.1614 311.904 34.1614C307.698 34.1614 304.393 38.4164 301.689 41.885V41.8769ZM306.596 50.2901C307.8 53.9523 310.101 59.0019 313.405 68.9033C314.409 71.9726 317.011 77.3166 315.808 87.2181C315.408 88.8031 315.008 92.5621 313.605 92.5621C312.805 92.5621 313.103 90.4809 311.704 86.722C308.297 77.8127 308 76.8205 304.993 68.3105C302.088 59.7964 302.088 57.324 302.688 49.8989C302.888 47.721 303.488 44.5549 304.793 44.5549C305.295 44.5549 304.895 45.3454 306.596 50.2982V50.2901ZM328.026 54.8436C328.026 73.6544 339.041 88.9967 339.041 95.0385C339.041 97.3172 337.74 99.1967 336.736 99.8904H335.737C336.838 98.8982 337.438 97.6116 337.438 95.9298C337.438 93.3566 334.933 91.5739 332.632 91.5739C331.029 91.5739 328.026 92.8605 328.026 96.1274C328.026 99.6928 331.633 102.165 336.438 102.165C343.549 102.165 353.263 90.7794 353.263 77.615V73.4568C353.263 72.6663 352.761 72.0694 351.859 72.0694H346.654C345.854 72.0694 345.25 72.8599 345.25 73.4568V78.6032C345.25 82.5638 346.352 96.5227 338.442 99.6887C347.755 90.8762 336.137 71.5733 336.137 53.557C336.137 39.9934 337.838 36.1336 340.64 36.1336C343.643 36.1336 345.246 39.8966 345.246 53.557V59.3003C345.246 60.0908 345.748 60.6877 346.65 60.6877H351.855C352.557 60.6877 353.259 60.1916 353.259 59.3003V54.8436C353.259 41.3808 350.056 33.4596 340.64 33.4596C329.626 33.4596 328.022 46.7248 328.022 54.8436H328.026ZM371.984 100.286C369.981 97.8093 365.877 92.1668 365.877 84.048C365.877 70.7828 367.08 60.8813 370.181 49.5964L380.796 100.282C381.098 101.568 382.199 101.568 382.199 101.568H387.507C389.008 101.568 389.008 100.282 389.008 100.282L375.488 36.3313C375.488 36.3313 375.288 35.0447 373.987 35.0447H368.879C368.879 35.0447 367.178 35.1455 367.476 36.8273L369.079 44.5509C366.676 51.4799 365.473 54.8477 362.27 65.6365C359.766 74.0497 358.664 79.9906 358.664 88.4079C358.664 95.833 361.866 101.576 363.168 101.576H370.478C371.98 101.576 371.98 100.29 371.98 100.29L371.984 100.286ZM402.026 44.5509C399.623 51.4799 398.42 54.8477 395.217 65.6365C392.712 74.0497 391.611 80.0914 391.611 92.1668C391.611 99.5919 396.918 102.859 399.121 102.859C405.628 102.859 411.136 95.9298 412.237 92.7597L413.738 100.286C414.04 101.572 415.142 101.572 415.142 101.572H420.449C421.951 101.572 421.951 100.286 421.951 100.286L408.431 36.3353C408.431 36.3353 408.231 35.0487 406.93 35.0487H401.822C401.822 35.0487 400.121 35.1495 400.419 36.8314L402.022 44.5549L402.026 44.5509ZM411.34 88.8031C409.638 92.9613 406.632 94.4456 402.83 94.4456C400.826 94.4456 398.823 89.9929 398.823 84.052C398.823 70.7868 400.027 60.7886 403.127 49.5037L411.34 88.8072V88.8031ZM450.393 69.5003H443.785C438.979 69.5003 434.671 66.3342 434.671 61.6799C434.671 57.0256 438.975 53.8595 443.785 53.8595H449.692C451.193 53.8595 451.193 52.5729 451.193 52.5729V36.3393C451.193 36.3393 451.193 35.0527 449.692 35.0527H427.964C427.964 35.0527 426.561 35.1536 426.561 36.3393V100.29C426.561 101.479 427.964 101.576 427.964 101.576H450.393C451.895 101.576 451.895 100.29 451.895 100.29V70.7868C451.895 70.7868 451.895 69.5003 450.393 69.5003ZM434.671 97.8133V68.6089C434.671 68.6089 437.775 71.9766 442.283 71.9766C443.785 71.9766 443.785 73.2632 443.785 73.2632V97.8133C443.785 97.8133 443.785 99.0999 442.283 99.0999H436.074C436.074 99.0999 434.671 98.999 434.671 97.8133ZM442.283 51.2863C439.68 51.2863 436.674 52.5729 434.671 54.6541V38.8157C434.671 37.6259 436.074 37.5291 436.074 37.5291H442.283C443.785 37.5291 443.785 38.8157 443.785 38.8157V50.0038C443.785 50.0038 443.785 51.2904 442.283 51.2904V51.2863ZM477.229 72.1743V100.29C477.229 101.479 478.632 101.576 478.632 101.576H483.838C485.339 101.576 485.339 100.29 485.339 100.29V36.3393C485.339 36.3393 485.339 35.0527 483.838 35.0527H478.632C478.632 35.0527 477.229 35.1536 477.229 36.3393V67.7216C474.226 66.9311 468.115 63.761 468.115 60.1957V36.3393C468.115 36.3393 468.115 35.0527 466.614 35.0527H461.408C461.408 35.0527 460.005 35.1536 460.005 36.3393V100.29C460.005 101.479 461.408 101.576 461.408 101.576H466.614C468.115 101.576 468.115 100.29 468.115 100.29V65.9389C471.22 70.0972 477.229 69.2058 477.229 72.1743ZM517.282 69.5003H510.673C505.868 69.5003 501.56 66.3342 501.56 61.6799V36.3353C501.56 36.3353 501.56 35.0487 500.058 35.0487H494.853C494.853 35.0487 493.449 35.1495 493.449 36.3353V100.286C493.449 101.475 494.853 101.572 494.853 101.572H517.282C518.784 101.572 518.784 100.286 518.784 100.286V70.7828C518.784 70.7828 518.784 69.4962 517.282 69.4962V69.5003ZM527.795 36.3353V100.286C527.795 101.475 529.199 101.572 529.199 101.572H534.404C535.906 101.572 535.906 100.286 535.906 100.286V36.3353C535.906 36.3353 535.906 35.0487 534.404 35.0487H529.199C529.199 35.0487 527.795 35.1495 527.795 36.3353ZM501.56 68.6089C503.563 70.69 506.667 71.9766 509.172 71.9766C510.673 71.9766 510.673 73.2632 510.673 73.2632V97.8133C510.673 97.8133 510.673 99.0999 509.172 99.0999H502.963C502.963 99.0999 501.56 98.999 501.56 97.8133V68.6089ZM557.837 24.2599C557.837 24.2599 556.736 23.0701 555.435 24.3607L552.632 27.1315C552.632 27.1315 551.53 28.4181 552.53 29.4103L555.634 32.4796C556.638 33.4677 557.939 32.3787 557.939 32.3787L560.742 29.6079C562.043 28.3213 560.844 27.2324 560.844 27.2324L557.841 24.2639L557.837 24.2599ZM561.342 58.3162V100.29C561.342 101.479 562.745 101.576 562.745 101.576H567.951C569.452 101.576 569.452 100.29 569.452 100.29V36.3393C569.452 36.3393 569.452 35.0527 567.951 35.0527H562.745C562.745 35.0527 561.342 35.1536 561.342 36.3393V49.6045C561.342 51.1895 560.44 53.5651 559.641 55.1461L552.232 70.2908V36.3353C552.232 36.3353 552.232 35.0487 550.731 35.0487H545.525C545.525 35.0487 544.122 35.1495 544.122 36.3353V100.286C544.122 101.475 545.525 101.572 545.525 101.572H550.731C552.232 101.572 552.232 100.286 552.232 100.286V78.4056C552.232 75.7315 553.334 73.8521 553.835 72.8599L561.346 58.3081L561.342 58.3162Z" fill="url(#paint0_linear)"/>
<path d="M13.5571 3.34715C13.9375 6.65051 17.6253 15.0995 19.4216 18.9111C21.535 23.4638 26.0153 33.0457 27.0297 34.9515C28.2977 37.3337 45.5741 54.0093 48.9026 57.662C52.2311 61.3148 71.0926 70.2085 76.9571 72.4319C82.8216 74.6553 96.7696 76.4022 99.4641 76.4022C101.62 76.4022 109.767 72.9083 113.571 71.1613C116.899 69.5732 124 66.1428 125.775 65.1264C127.994 63.8558 130.847 62.9029 132.432 64.4911C134.017 66.0793 133.542 70.5261 128.153 72.4319C130.213 74.1788 128.787 78.7845 120.386 81.3255C122.447 83.7077 120.862 87.6781 112.144 88.3134C114.205 89.5839 113.095 94.0307 105.012 93.7131C106.597 96.2542 103.268 97.5247 94.8676 96.5718C97.5621 100.225 89.1616 99.9069 80.4441 97.5247C81.3951 101.654 78.2251 101.336 75.8476 98.1599C75.6891 102.13 72.5191 101.177 71.0926 98.4776C71.0926 101.495 68.2396 101.495 66.3376 98.3188C65.0696 102.607 63.0091 101.336 62.6921 98.1599C60.3146 100.86 57.1446 100.066 57.6201 97.5247C52.8017 99.3034 53.0765 97.1012 53.8161 95.7777L33.6867 92.919C31.6262 91.9661 30.9922 91.3309 31.6262 89.2663C28.7732 90.2192 27.1882 88.1546 28.1392 86.7252C25.9202 86.8841 23.0672 85.2959 24.8107 83.7077C20.3727 83.2313 18.7877 81.6432 20.6897 79.7374C17.8367 79.5786 15.9347 78.308 17.5197 76.4022C14.3497 76.2434 13.3987 74.9729 15.4592 73.2259C12.6062 73.2259 11.4967 71.6378 14.1912 70.2085C11.4967 70.0496 9.11916 68.3027 11.8137 66.3969C8.48516 66.7145 7.21716 64.1735 10.5457 62.9029C4.68117 59.8855 3.73017 57.1856 7.37566 55.9151C1.03567 51.9447 -0.707832 46.545 5.47366 46.545C0.243167 42.5746 -0.866332 35.9044 2.62063 36.5396C-0.549401 33.6809 -1.18334 26.2166 2.62063 27.3283C-0.549369 23.8344 -0.0738697 16.2113 4.36413 16.6877C2.14513 13.035 3.41313 5.57063 8.00963 6.20583C8.00963 -2.3702 13.0816 -0.782043 13.5571 3.34715Z" fill="url(#paint1_linear)"/>
<path d="M24.6511 24.7867C26.4263 28.9795 29.5118 35.4274 30.8326 38.1272C35.4078 44.2133 42.1333 52.0974 49.0601 57.8204C58.0946 65.2847 66.8121 67.8257 67.1291 69.0962C67.4461 70.3668 63.4836 77.1958 59.9966 81.1662C56.5096 85.1366 45.8901 88.3129 45.4146 88.3129C44.9391 88.3129 38.1236 86.8836 37.1726 83.2308C32.8931 82.4367 31.4666 79.7369 32.4176 76.7194C27.3456 74.8136 23.3831 70.8432 25.6021 68.3022C20.6886 65.2847 17.9941 61.7907 21.6396 58.6144C17.0431 54.9617 15.1411 50.356 18.4696 47.6562C14.5071 43.6858 12.9221 39.5566 16.2506 37.1744C11.4322 30.5677 14.877 27.3278 17.2016 26.5338C16.779 26.322 15.997 24.4691 16.2506 18.7518C16.5676 11.6051 22.4321 19.5458 24.6511 24.7867Z" fill="url(#paint2_linear)"/>
<path d="M51.8434 57.3043C57.0422 61.243 66.3725 65.298 70.3878 66.8333C71.3917 67.098 75.7451 68.6438 85.1283 72.7095C96.8573 77.7915 107.952 71.1213 110.964 69.5331C113.975 67.945 115.719 69.0567 116.036 70.3272C116.353 71.5977 115.243 74.6152 108.903 76.3622C111.598 76.8387 111.122 82.0796 100.82 83.1913C101.612 88.1145 96.5403 89.2262 90.3588 88.591C93.2118 92.0849 84.4943 92.879 76.2523 92.0849C79.2638 96.2141 61.8289 94.626 59.4514 93.9907C57.0739 93.3554 49.1489 87.9557 46.9299 87.3205C44.7109 86.6852 43.1259 84.7794 44.7109 81.1267C38.8464 80.9679 37.7369 75.4093 40.7484 72.0742C31.5554 69.0567 32.1894 64.7687 36.7859 63.3394C29.6534 59.8454 29.0194 56.3515 31.3969 55.2398C27.5929 52.3811 25.6909 49.5224 28.2269 46.8226C24.1693 42.5028 27.4872 41.317 29.6534 41.264C29.2835 39.7817 28.639 36.4678 29.0194 35.0702C29.4949 33.3232 29.9704 33.0056 33.7744 39.6758C37.5784 46.3461 45.3449 52.3811 51.8434 57.3043Z" fill="url(#paint3_linear)"/>
<path d="M87.2621 54.3272C88.0229 56.233 89.9037 57.4506 90.7491 57.8211C85.3601 59.727 84.2506 63.3797 84.4091 65.4443C84.5676 67.5089 86.7866 69.7323 86.7866 75.6084C86.7866 82.1372 79.9711 87.0431 75.8501 88.9489C71.7291 90.8547 66.8156 91.9663 64.2796 93.078C61.7436 94.1898 58.2566 95.4603 51.4411 96.7308C50.6486 98.1601 50.6486 101.813 52.5506 108.007C54.4526 114.2 53.8186 115.947 53.5016 116.742C53.1846 117.536 49.8561 120.077 47.6371 113.565C48.1126 121.347 44.1501 120.712 41.6141 114.677C40.1876 121.665 37.0176 121.665 36.0666 115.312C34.4816 121.982 30.5191 120.235 30.5191 114.2C26.0811 119.759 23.3866 117.853 24.9716 112.295C17.2051 117.377 15.7786 114.677 18.7901 110.071C10.8651 113.883 9.75561 110.548 12.7671 107.689C10.2311 108.483 3.73262 109.118 4.20812 106.26C4.68362 103.401 15.1446 99.5895 18.3146 98.1601C21.4846 96.7308 44.4671 86.8843 50.3316 84.1844C56.1961 81.4846 60.1586 75.926 61.2681 74.3379C62.3776 72.7497 65.5476 66.8736 69.0346 61.4739C72.5216 56.0742 75.0576 51.9007 78.8616 50.8333C82.8241 49.7215 86.3111 51.945 87.2621 54.3272Z" fill="url(#paint4_linear)"/>
<defs>
<linearGradient id="paint0_linear" x1="165.202" y1="23.7598" x2="195.088" y2="176.304" gradientUnits="userSpaceOnUse">
<stop stop-color="#C9BBAE"/>
<stop offset="1" stop-color="#9A7F5F"/>
</linearGradient>
<linearGradient id="paint1_linear" x1="-21.239" y1="44.4804" x2="140.102" y2="99.7548" gradientUnits="userSpaceOnUse">
<stop stop-color="#E2EAFD"/>
<stop offset="0.420048" stop-color="#5B8AE6"/>
<stop offset="1" stop-color="#DDE9FC"/>
</linearGradient>
<linearGradient id="paint2_linear" x1="13.9469" y1="29.8689" x2="54.5527" y2="49.1816" gradientUnits="userSpaceOnUse">
<stop stop-color="#DDE8FB"/>
<stop offset="1" stop-color="#5486E7"/>
</linearGradient>
<linearGradient id="paint3_linear" x1="48.1837" y1="52.8976" x2="84.2492" y2="97.1368" gradientUnits="userSpaceOnUse">
<stop stop-color="#E2EAFD"/>
<stop offset="0.598153" stop-color="#5F8DE8"/>
<stop offset="1" stop-color="#DDE9FC"/>
</linearGradient>
<linearGradient id="paint4_linear" x1="64.3534" y1="38.6045" x2="16.0367" y2="110.936" gradientUnits="userSpaceOnUse">
<stop stop-color="#E4ECFF"/>
<stop offset="1" stop-color="#5381D9"/>
</linearGradient>
</defs>
</svg>
