<svg width="150" height="150" viewBox="0 0 150 150" fill="none" xmlns="http://www.w3.org/2000/svg">
<g opacity="0.1">
<path d="M142.492 37.3431H110.763V12.5174C110.763 10.2067 108.894 8.33331 106.589 8.33331H8.34143C6.03583 8.33331 4.16663 10.2067 4.16663 12.5174V120.746C4.16663 132.282 13.5307 141.667 25.0406 141.667H125.793C137.303 141.667 146.667 132.282 146.667 120.746V41.5272C146.667 39.2164 144.797 37.3431 142.492 37.3431ZM25.0406 133.298C18.1347 133.298 12.5162 127.667 12.5162 120.746V16.7015H102.414C102.414 127.292 102.361 121.143 102.509 122.72C102.872 126.599 104.316 130.257 106.598 133.298H25.0406ZM138.317 120.746C138.317 127.667 132.699 133.298 125.793 133.298C124.856 133.298 124.208 133.298 123.288 133.298C116.382 133.298 110.763 127.667 110.763 120.746V45.7113H138.317V120.746Z" fill="#321726"/>
<path d="M88.776 28.4171H26.4323C24.1266 28.4171 22.2574 30.2904 22.2574 32.6012C22.2574 34.9119 24.1266 36.7853 26.4323 36.7853H88.776C91.0816 36.7853 92.9508 34.9119 92.9508 32.6012C92.9508 30.2904 91.0816 28.4171 88.776 28.4171Z" fill="#321726"/>
<path d="M88.776 46.2692H26.4323C24.1266 46.2692 22.2574 48.1425 22.2574 50.4533C22.2574 52.764 24.1266 54.6374 26.4323 54.6374H88.776C91.0816 54.6374 92.9508 52.764 92.9508 50.4533C92.9508 48.1425 91.0816 46.2692 88.776 46.2692Z" fill="#321726"/>
<path d="M88.776 113.215H26.4323C24.1266 113.215 22.2574 115.088 22.2574 117.399C22.2574 119.71 24.1266 121.583 26.4323 121.583H88.776C91.0816 121.583 92.9508 119.71 92.9508 117.399C92.9508 115.088 91.0816 113.215 88.776 113.215Z" fill="#321726"/>
<path d="M88.7761 64.1214H57.6042C55.2986 64.1214 53.4294 65.9948 53.4294 68.3055V99.5468C53.4294 101.858 55.2986 103.731 57.6042 103.731H88.7761C91.0817 103.731 92.9509 101.858 92.9509 99.5468V68.3055C92.9509 65.9948 91.0817 64.1214 88.7761 64.1214ZM84.6013 95.3627H61.7791V72.4896H84.6013V95.3627Z" fill="#321726"/>
<path d="M26.4323 79.184H39.7916C42.0972 79.184 43.9664 77.3106 43.9664 74.9999C43.9664 72.6892 42.0972 70.8158 39.7916 70.8158H26.4323C24.1266 70.8158 22.2574 72.6892 22.2574 74.9999C22.2574 77.3106 24.1266 79.184 26.4323 79.184Z" fill="#321726"/>
<path d="M26.4323 97.0363H39.7916C42.0972 97.0363 43.9664 95.1629 43.9664 92.8522C43.9664 90.5415 42.0972 88.6681 39.7916 88.6681H26.4323C24.1266 88.6681 22.2574 90.5415 22.2574 92.8522C22.2574 95.1629 24.1266 97.0363 26.4323 97.0363Z" fill="#321726"/>
</g>
</svg>
