<svg width="30" height="30" viewBox="0 0 30 30" fill="none" xmlns="http://www.w3.org/2000/svg">
<path d="M24.1415 9.34955C24.4177 9.1692 24.5563 9.07862 24.9286 9.07862C25.3009 9.07862 25.4396 9.16914 25.7159 9.34955C26.0759 9.58457 26.5688 9.90648 27.4643 9.90648C28.3597 9.90648 28.8527 9.58457 29.2127 9.34955C29.4889 9.16914 29.6276 9.07862 30 9.07862V7.32081C29.1046 7.32081 28.6116 7.64272 28.2516 7.87774C27.9754 8.05815 27.8367 8.14868 27.4643 8.14868C27.0919 8.14868 26.9532 8.05815 26.6769 7.87774C26.3169 7.64272 25.824 7.32081 24.9286 7.32081C24.0332 7.32081 23.5402 7.64272 23.1803 7.87774C22.9041 8.05809 22.7655 8.14868 22.3932 8.14868C22.0209 8.14868 21.8823 8.05815 21.606 7.87774C21.3832 7.73225 21.1093 7.55372 20.7208 7.43858C18.5649 4.88303 15.3408 3.25659 11.7434 3.25659C5.26809 3.25665 0 8.52467 0 15C0 21.4754 5.26809 26.7434 11.7434 26.7434C15.461 26.7434 18.7802 25.0065 20.9334 22.3022C21.267 22.4942 21.7142 22.6792 22.3932 22.6792C23.2885 22.6792 23.7815 22.3573 24.1414 22.1223C24.4176 21.9419 24.5562 21.8513 24.9285 21.8513C25.3009 21.8513 25.4395 21.9419 25.7158 22.1223C26.0758 22.3573 26.5688 22.6792 27.4642 22.6792C28.3597 22.6792 28.8526 22.3573 29.2126 22.1223C29.4889 21.9419 29.6275 21.8513 29.9999 21.8513V20.0935C29.1045 20.0935 28.6116 20.4155 28.2516 20.6505C27.9753 20.8309 27.8367 20.9214 27.4642 20.9214C27.0918 20.9214 26.9531 20.8309 26.6769 20.6505C26.3169 20.4155 25.8239 20.0935 24.9285 20.0935C24.0331 20.0935 23.5402 20.4155 23.1802 20.6505C22.904 20.8308 22.7655 20.9214 22.3932 20.9214C22.1885 20.9214 22.0545 20.8939 21.9294 20.8393C22.3743 20.0664 22.7329 19.2378 22.9939 18.3676C23.5268 18.266 23.8715 18.041 24.1413 17.8647C24.4176 17.6844 24.5561 17.5938 24.9284 17.5938C25.3008 17.5938 25.4395 17.6843 25.7158 17.8647C26.0758 18.0997 26.5687 18.4216 27.4642 18.4216C28.3596 18.4216 28.8526 18.0997 29.2126 17.8647C29.4888 17.6843 29.6275 17.5938 29.9999 17.5938V15.836C29.1045 15.836 28.6115 16.1579 28.2515 16.3929C27.9752 16.5733 27.8366 16.6638 27.4642 16.6638C27.0918 16.6638 26.9531 16.5733 26.6768 16.3929C26.3168 16.1579 25.8239 15.836 24.9284 15.836C24.2167 15.836 23.7597 16.0394 23.4212 16.2409C23.4642 15.833 23.4867 15.4191 23.4867 15C23.4867 14.6574 23.4711 14.3185 23.4422 13.9832C23.7349 13.8719 23.9561 13.7281 24.1414 13.6071C24.4176 13.4267 24.5562 13.3361 24.9285 13.3361C25.3009 13.3361 25.4395 13.4267 25.7158 13.6071C26.0758 13.8421 26.5688 14.164 27.4642 14.164C28.3597 14.164 28.8526 13.8421 29.2126 13.6071C29.4889 13.4267 29.6275 13.3361 29.9999 13.3361V11.5783C29.1045 11.5783 28.6116 11.9002 28.2516 12.1353C27.9753 12.3157 27.8367 12.4062 27.4642 12.4062C27.0918 12.4062 26.9531 12.3157 26.6769 12.1353C26.3169 11.9002 25.8239 11.5783 24.9285 11.5783C24.0331 11.5783 23.5402 11.9002 23.1802 12.1353C23.1662 12.1445 23.1527 12.1532 23.1393 12.162C22.9433 11.3755 22.6687 10.62 22.3228 9.90484C22.3464 9.90531 22.3691 9.90642 22.3932 9.90642C23.2886 9.90654 23.7815 9.58457 24.1415 9.34955ZM19.0707 9.34961C19.3266 9.18244 19.4648 9.09262 19.7798 9.08031C20.4084 9.93144 20.9049 10.8855 21.2396 11.9121C20.9148 11.7365 20.4853 11.5784 19.8578 11.5784C19.8563 11.5784 19.855 11.5785 19.8536 11.5785C19.5498 10.861 19.1532 10.1921 18.6794 9.58633C18.8289 9.50734 18.9566 9.4242 19.0707 9.34961ZM11.7434 24.9856C6.23734 24.9856 1.75781 20.5062 1.75781 15C1.75781 9.49387 6.23734 5.01445 11.7434 5.01445C14.3425 5.01445 16.7126 6.013 18.4911 7.64618C18.3457 7.72364 18.2212 7.80491 18.1096 7.8778C17.8333 8.05815 17.6948 8.14874 17.3225 8.14874C17.3015 8.14874 17.2815 8.14833 17.2619 8.1478C15.7512 6.92876 13.8312 6.19763 11.7434 6.19763C6.88972 6.19763 2.94093 10.1464 2.94093 15.0001C2.94093 19.8537 6.88972 23.8025 11.7434 23.8025C13.4189 23.8025 14.9864 23.3318 16.321 22.5159C16.5881 22.6115 16.9128 22.6792 17.3225 22.6792C17.7203 22.6792 18.0383 22.6155 18.3009 22.5243C16.5453 24.0563 14.2509 24.9856 11.7434 24.9856ZM18.1095 16.393C17.8333 16.5734 17.6947 16.6639 17.3224 16.6639C16.9501 16.6639 16.8115 16.5734 16.5353 16.393C16.1754 16.1579 15.6825 15.8361 14.7871 15.8361V17.5939C15.1594 17.5939 15.298 17.6844 15.5742 17.8648C15.9341 18.0998 16.427 18.4218 17.3224 18.4218C17.5496 18.4218 17.7506 18.4009 17.9303 18.3661C17.4932 19.1664 16.9054 19.8728 16.2053 20.4473C15.8763 20.2639 15.4385 20.0935 14.7872 20.0935V21.3525C13.8654 21.796 12.8329 22.0447 11.7434 22.0447C7.85897 22.0447 4.69873 18.8845 4.69873 15.0001C4.69873 11.1157 7.85897 7.95544 11.7434 7.95544C12.8329 7.95544 13.8654 8.20417 14.7872 8.64766V9.07873C15.1595 9.07873 15.2981 9.16926 15.5743 9.34967C15.8023 9.49855 16.084 9.68207 16.4873 9.79674C17.1912 10.4391 17.7649 11.2219 18.1633 12.1005C18.1451 12.1122 18.1271 12.124 18.1096 12.1354C17.8333 12.3158 17.6948 12.4064 17.3225 12.4064C16.9502 12.4064 16.8116 12.3158 16.5354 12.1354C16.1754 11.9004 15.6826 11.5785 14.7872 11.5785V13.3363C15.1594 13.3363 15.2981 13.4268 15.5742 13.6072C15.9342 13.8423 16.427 14.1642 17.3225 14.1642C17.9416 14.1642 18.3681 14.0103 18.6915 13.8376C18.7546 14.2159 18.788 14.6042 18.788 15.0001C18.788 15.3594 18.7608 15.7124 18.7086 16.0573C18.4648 16.1616 18.2731 16.2861 18.1095 16.393ZM20.311 20.1237C20.1723 20.1046 20.0219 20.0935 19.8578 20.0935C19.407 20.0935 19.0584 20.1752 18.7772 20.2862C19.3764 19.4909 19.8442 18.5914 20.1477 17.62C20.3291 17.6586 20.4543 17.7403 20.6449 17.8647C20.8005 17.9663 20.9811 18.084 21.208 18.185C20.9779 18.8671 20.6757 19.5162 20.311 20.1237ZM21.6293 16.4081C21.6215 16.4031 21.614 16.3982 21.6061 16.393C21.3435 16.2215 21.0092 16.0043 20.5003 15.8991C20.5305 15.6035 20.5459 15.3036 20.5459 15.0001C20.5459 14.4757 20.4996 13.9619 20.4113 13.4625C20.4832 13.5017 20.5572 13.5499 20.6451 13.6072C20.8966 13.7715 21.2136 13.9778 21.687 14.0874C21.7142 14.3881 21.729 14.6923 21.729 15.0001C21.729 15.478 21.6945 15.9479 21.6293 16.4081Z" fill="#473512"/>
</svg>
