<svg width="19" height="19" viewBox="0 0 19 19" fill="none" xmlns="http://www.w3.org/2000/svg">
<g clip-path="url(#clip0)">
<path d="M16.3602 18.8244L11.5104 13.9747C10.3311 14.7049 8.97007 15.097 7.54816 15.0971C7.54798 15.0971 7.54816 15.0971 7.54798 15.0971C5.53196 15.0971 3.6364 14.3119 2.21088 12.8864C0.785177 11.4608 7.82013e-05 9.56516 7.82013e-05 7.54888C0.000165939 5.53268 0.785265 3.63721 2.21079 2.21169C3.6364 0.786075 5.53196 0.000976562 7.54816 0.000976562C9.56435 0.000976562 11.4598 0.786075 12.8854 2.21169C14.3111 3.6373 15.0962 5.53286 15.0962 7.54914C15.0961 8.97106 14.704 10.332 13.9739 11.5114L18.8236 16.361L16.3602 18.8244ZM10.4221 4.67503C9.65444 3.90745 8.63379 3.4847 7.54816 3.4847C6.46244 3.4847 5.44179 3.90745 4.67422 4.67503C3.90655 5.4426 3.4838 6.46325 3.4838 7.54897C3.48371 8.63469 3.90646 9.65533 4.67422 10.423C5.44179 11.1907 6.46244 11.6134 7.54807 11.6134C8.63379 11.6133 9.65444 11.1907 10.4221 10.423C11.1897 9.65542 11.6125 8.63486 11.6125 7.54914C11.6125 6.46343 11.1898 5.44269 10.4221 4.67503Z" fill="white"/>
</g>
<defs>
<clipPath id="clip0">
<rect width="18.8235" height="18.8235" fill="white" transform="matrix(-1 0 0 1 18.8236 0)"/>
</clipPath>
</defs>
</svg>
