<svg width="629" height="55" viewBox="0 0 629 55" fill="none" xmlns="http://www.w3.org/2000/svg">
<path d="M5.30907 42.8213V3.4256C5.30907 2.66437 6.21215 2.60069 6.21215 2.60069H10.2124C11.1802 2.60069 11.1802 3.4256 11.1802 3.4256V42.8213C11.1802 43.5826 12.084 43.6462 12.084 43.6462H15.4388C16.4066 43.6462 16.4066 42.8213 16.4066 42.8213V1.83946C16.4066 1.83946 16.4066 1.01525 15.4388 1.01525H0.985599C0.985599 1.01525 0.0825195 1.07824 0.0825195 1.83946V42.8213C0.0825195 43.5826 0.985599 43.6462 0.985599 43.6462H4.34109C5.30893 43.6462 5.30893 42.8213 5.30893 42.8213H5.30907ZM24.2792 5.39255C21.5691 8.81828 20.9885 14.7819 20.9885 17.6996C20.9885 24.9952 24.408 32.0371 25.6342 37.6199C26.6021 41.9336 25.9566 44.5343 27.3763 44.5343C30.7959 44.5343 32.9899 40.7917 33.9578 39.5231C37.0549 35.7168 37.2485 28.4847 37.2485 27.2791C37.2485 19.0317 33.3771 12.1803 32.4739 7.35868C31.6349 2.85471 32.4091 0.444359 30.8605 0.444359C28.1504 0.444359 26.0211 3.17172 24.279 5.39255H24.2792ZM27.4411 10.7844C28.2153 13.1319 29.6992 16.3673 31.8285 22.7114C32.474 24.6782 34.1514 28.104 33.3771 34.4474C33.1187 35.4627 32.8612 37.8731 31.9573 37.8731C31.4414 37.8731 31.6349 36.5409 30.7318 34.1305C28.5377 28.421 28.3441 27.7864 26.4085 22.3309C24.5375 16.8753 24.5375 15.2891 24.9246 10.5312C25.0534 9.13529 25.4405 7.10549 26.2796 7.10549C26.6021 7.10549 26.3437 7.6127 27.4411 10.7844ZM52.9918 41.2359C52.9918 41.2359 52.9918 42.0601 52.0239 42.0601H48.0237C48.0237 42.0601 47.1207 41.9971 47.1207 41.2359V25.5025C47.1207 25.0589 47.1207 24.6782 48.0237 24.6782C49.7011 24.6782 51.6369 23.8533 52.9918 22.5211V41.2359ZM44.7978 53.4791V44.4713C44.7978 43.7101 45.7009 43.6464 45.7009 43.6464H54.3468C55.3147 43.6464 55.3147 44.4713 55.3147 44.4713V53.4162C55.3147 53.8598 55.7019 54.3041 56.2184 54.3041C56.7991 54.3041 57.0568 53.8598 57.3151 53.4162L60.5411 44.7883C60.7994 44.0907 60.7994 43.6464 60.4123 43.6464H59.122C59.122 43.6464 58.2182 43.5827 58.2182 42.8215V1.8396C58.2182 1.8396 58.2182 1.01538 57.2504 1.01538H43.2491C43.2491 1.01538 42.3454 1.07837 42.3454 1.8396V12.1805C42.3454 12.6248 42.7326 13.0691 43.2491 13.0691C43.8298 13.0691 44.0875 12.6884 44.3458 12.1805L47.1207 3.42587C47.3782 2.66464 48.0237 2.60097 48.0237 2.60097H52.0239C52.9918 2.60097 52.9918 3.42587 52.9918 3.42587V18.0802C52.9918 21.0624 50.153 23.0922 47.1207 23.0922H42.7973C42.7973 23.0922 41.8942 23.1559 41.8942 23.9171V42.8215C41.8942 42.8215 41.8942 43.6464 40.9264 43.6464H39.7002C39.7002 43.6464 39.1195 43.71 39.5066 44.7883L42.7973 53.4162C42.7973 53.4162 43.0557 54.3041 43.8299 54.3041C44.733 54.3041 44.7978 53.4792 44.7978 53.4792V53.4791ZM68.672 42.8213V3.4256C68.672 2.66437 69.5751 2.60069 69.5751 2.60069H73.5753C74.5431 2.60069 74.5431 3.4256 74.5431 3.4256V42.8213C74.5431 43.5826 75.4469 43.6462 75.4469 43.6462H78.8017C79.7695 43.6462 79.7695 42.8213 79.7695 42.8213V1.83946C79.7695 1.83946 79.7695 1.01525 78.8017 1.01525H64.3485C64.3485 1.01525 63.4454 1.07824 63.4454 1.83946V42.8213C63.4454 43.5826 64.3485 43.6462 64.3485 43.6462H67.704C68.6719 43.6462 68.6719 42.8213 68.6719 42.8213H68.672ZM96.0945 15.9236V42.8213C96.0945 43.5826 96.9983 43.6462 96.9983 43.6462H100.353C101.321 43.6462 101.321 42.8213 101.321 42.8213V1.83946C101.321 1.83946 101.321 1.01525 100.353 1.01525H96.9983C96.9983 1.01525 96.0945 1.07824 96.0945 1.83946V10.3407C96.0945 11.3553 95.5138 12.8786 94.9978 13.8931L90.2232 23.5993V1.83946C90.2232 1.83946 90.2232 1.01525 89.2554 1.01525H85.8999C85.8999 1.01525 84.9968 1.07824 84.9968 1.83946V42.8213C84.9968 43.5826 85.8999 43.6462 85.8999 43.6462H89.2554C90.2232 43.6462 90.2232 42.8213 90.2232 42.8213V28.8015C90.2232 27.0887 90.9327 25.8831 91.2551 25.2491L96.0945 15.9236ZM128.744 1.83946V41.2359C128.744 41.2359 128.744 42.0601 127.776 42.0601H123.776C123.776 42.0601 122.872 41.9971 122.872 41.2359V1.83946C122.872 1.83946 122.872 1.01525 121.905 1.01525H118.55C118.55 1.01525 117.646 1.07824 117.646 1.83946V41.2359C117.646 41.2359 117.646 42.0601 116.678 42.0601H112.678C112.678 42.0601 111.775 41.9971 111.775 41.2359V1.83946C111.775 1.83946 111.775 1.01525 110.807 1.01525H107.451C107.451 1.01525 106.548 1.07824 106.548 1.83946V42.8213C106.548 43.5826 107.451 43.6462 107.451 43.6462H133.003C133.971 43.6462 133.971 42.8213 133.971 42.8213V1.83946C133.971 1.83946 133.971 1.01525 133.003 1.01525H129.648C129.648 1.01525 128.744 1.07824 128.744 1.83946H128.744ZM150.296 15.9236V42.8213C150.296 43.5826 151.199 43.6462 151.199 43.6462H154.554C155.522 43.6462 155.522 42.8213 155.522 42.8213V1.83946C155.522 1.83946 155.522 1.01525 154.554 1.01525H151.199C151.199 1.01525 150.296 1.07824 150.296 1.83946V10.3407C150.296 11.3553 149.715 12.8786 149.199 13.8931L144.424 23.5993V1.83946C144.424 1.83946 144.424 1.01525 143.456 1.01525H140.101C140.101 1.01525 139.198 1.07824 139.198 1.83946V42.8213C139.198 43.5826 140.101 43.6462 140.101 43.6462H143.456C144.424 43.6462 144.424 42.8213 144.424 42.8213V28.8015C144.424 27.0887 145.134 25.8831 145.456 25.2491L150.296 15.9236ZM180.17 1.01525H160.684C160.684 1.01525 159.781 1.07824 159.781 1.83946V12.1803C159.781 12.6247 160.169 13.0689 160.684 13.0689C161.265 13.0689 161.523 12.6882 161.781 12.1803L164.556 3.42573C164.878 2.66451 165.459 2.60083 165.459 2.60083H166.879C167.847 2.60083 167.847 3.42573 167.847 3.42573V42.8215C167.847 43.5827 168.75 43.6464 168.75 43.6464H172.105C173.073 43.6464 173.073 42.8215 173.073 42.8215V3.42573C173.073 2.66451 173.976 2.60083 173.976 2.60083H175.396C175.396 2.60083 175.977 2.66451 176.299 3.42573L179.074 12.1803C179.332 12.6884 179.59 13.0689 180.171 13.0689C180.687 13.0689 181.074 12.6246 181.074 12.1803V1.83946C181.074 1.07824 180.171 1.01525 180.171 1.01525H180.17ZM190.043 44.0269C194.624 44.0269 200.883 36.8586 200.883 28.7379C200.883 28.2943 200.56 27.7863 199.98 27.7863H196.624C196.043 27.7863 195.721 28.167 195.721 28.7379C195.721 34.2571 196.43 40.4108 191.333 42.4407C196.431 38.8246 191.978 26.8982 190.946 22.4573C190.495 20.5541 191.914 19.3492 193.269 19.3492C194.624 19.3492 195.721 20.4275 195.721 21.7597V24.0435C195.721 24.4879 196.302 24.9314 196.624 24.9314H199.98C200.367 24.9314 200.883 24.6144 200.883 24.0435V21.1252C200.883 17.9534 198.947 15.3527 195.721 15.3527C192.43 15.3527 190.623 17.8269 190.236 18.7785C190.107 17.4462 189.849 14.9722 189.849 13.7028C189.849 4.95876 190.946 1.96682 192.753 1.96682C194.688 1.96682 195.721 5.21264 195.721 12.1698C195.721 12.677 196.043 13.0577 196.624 13.0577H199.979C200.431 13.0577 200.882 12.7407 200.882 12.1698C200.882 5.46665 198.818 0 192.752 0C185.655 0 184.622 8.46916 184.622 13.7028C184.622 26.1372 191.72 34.9554 191.72 39.4593C191.72 40.9182 190.881 42.1238 190.236 42.568H189.59C190.301 41.9333 190.688 41.1084 190.688 40.0302C190.688 38.381 189.074 37.2391 187.59 37.2391C186.558 37.2391 184.622 38.0633 184.622 40.1568C184.622 42.4407 186.945 44.0269 190.042 44.0269H190.043ZM205.206 13.7028C205.206 25.7565 212.303 35.5893 212.303 39.4593C212.303 40.9182 211.465 42.1238 210.819 42.568H210.174C210.884 41.9333 211.271 41.1084 211.271 40.0302C211.271 38.381 209.658 37.2391 208.174 37.2391C207.142 37.2391 205.206 38.0633 205.206 40.1568C205.206 42.4407 207.529 44.0269 210.626 44.0269C215.207 44.0269 221.466 36.7312 221.466 28.2943V25.6298C221.466 25.1218 221.143 24.7412 220.563 24.7412H217.207C216.691 24.7412 216.304 25.2493 216.304 25.6298V28.9282C216.304 31.466 217.014 40.411 211.916 42.4408C217.917 36.7949 210.432 24.4244 210.432 12.8787C210.432 4.1871 211.529 1.71294 213.336 1.71294C215.271 1.71294 216.304 4.12342 216.304 12.8787V16.5576C216.304 17.0657 216.627 17.4462 217.207 17.4462H220.563C221.014 17.4462 221.466 17.1285 221.466 16.5576V13.7029C221.466 5.07499 219.401 0.000137232 213.336 0.000137232C206.238 0.000137232 205.206 8.50073 205.206 13.7029L205.206 13.7028ZM241.468 23.0921H237.209C234.112 23.0921 231.338 21.0623 231.338 18.0801V1.83946C231.338 1.83946 231.338 1.01525 230.37 1.01525H227.015C227.015 1.01525 226.112 1.07824 226.112 1.83946V42.8213C226.112 43.5826 227.015 43.6462 227.015 43.6462H241.468C242.436 43.6462 242.436 42.8213 242.436 42.8213V23.917C242.436 23.917 242.436 23.0921 241.468 23.0921H241.468ZM231.338 22.5212C232.628 23.8535 234.629 24.6784 236.241 24.6784C237.209 24.6784 237.209 25.5026 237.209 25.5026V41.236C237.209 41.236 237.209 42.0602 236.241 42.0602H232.241C232.241 42.0602 231.338 41.9973 231.338 41.236V22.5212ZM277.472 24.805V42.8215C277.472 43.5827 278.376 43.6464 278.376 43.6464H281.731C282.699 43.6464 282.699 42.8215 282.699 42.8215V1.8396C282.699 1.8396 282.699 1.01538 281.731 1.01538H278.376C278.376 1.01538 277.472 1.07837 277.472 1.8396V21.9503C275.537 21.4431 271.601 19.4125 271.601 17.1287V1.8396C271.601 1.8396 271.601 1.01538 270.633 1.01538H267.278C267.278 1.01538 266.375 1.07837 266.375 1.8396V42.8215C266.375 43.5827 267.278 43.6464 267.278 43.6464H270.633C271.601 43.6464 271.601 42.8215 271.601 42.8215V20.8083C273.601 23.4728 277.472 22.9018 277.472 24.8049V24.805ZM293.41 7.10549C291.862 11.5458 291.087 13.7029 289.023 20.6181C287.409 26.0106 286.7 29.8799 286.7 37.6199C286.7 42.3779 290.119 44.4714 291.539 44.4714C295.733 44.4714 299.282 40.0304 299.992 38.0006L300.959 42.8215C301.153 43.6464 301.863 43.6464 301.863 43.6464H305.283C306.251 43.6464 306.251 42.8215 306.251 42.8215L297.54 1.8396C297.54 1.8396 297.411 1.01538 296.572 1.01538H293.281C293.281 1.01538 292.185 1.07837 292.378 2.15729L293.41 7.10549ZM299.411 35.4628C298.314 38.1273 296.379 39.0789 293.927 39.0789C292.636 39.0789 291.346 36.2242 291.346 32.4177C291.346 23.9171 292.12 17.5094 294.12 10.2772L299.411 35.4628ZM333.351 44.0271C337.932 44.0271 344.191 36.8587 344.191 28.738C344.191 28.2945 343.868 27.7864 343.288 27.7864H339.932C339.352 27.7864 339.029 28.1671 339.029 28.738C339.029 34.2572 339.739 40.411 334.641 42.4408C339.739 38.8247 335.287 26.8984 334.254 22.4574C333.803 20.5543 335.222 19.3494 336.577 19.3494C337.932 19.3494 339.029 20.4276 339.029 21.7599V24.0437C339.029 24.488 339.61 24.9316 339.932 24.9316H343.288C343.675 24.9316 344.191 24.6146 344.191 24.0437V21.1253C344.191 17.9536 342.255 15.3529 339.029 15.3529C335.738 15.3529 333.931 17.827 333.544 18.7786C333.416 17.4464 333.157 14.9723 333.157 13.7029C333.157 4.9589 334.254 1.96695 336.061 1.96695C337.996 1.96695 339.029 5.21278 339.029 12.1699C339.029 12.6771 339.351 13.0578 339.932 13.0578H343.288C343.739 13.0578 344.191 12.7408 344.191 12.1699C344.191 5.46679 342.126 0.000137232 336.061 0.000137232C328.963 0.000137232 327.931 8.4693 327.931 13.7029C327.931 26.1373 335.028 34.9556 335.028 39.4594C335.028 40.9183 334.19 42.1239 333.544 42.5681H332.898C333.609 41.9334 333.996 41.1085 333.996 40.0303C333.996 38.3812 332.382 37.2393 330.899 37.2393C329.866 37.2393 327.93 38.0635 327.93 40.157C327.93 42.4408 330.253 44.0271 333.35 44.0271H333.351ZM375.614 1.01538H372.259C372.259 1.01538 371.356 1.07837 371.356 1.8396V9.13529C371.356 12.1175 368.517 14.1473 365.484 14.1473V1.8396C365.484 1.8396 365.484 1.01538 364.516 1.01538H361.161C361.161 1.01538 360.257 1.07837 360.257 1.8396V9.13529C360.257 12.1175 357.419 14.1473 354.386 14.1473H350.063C350.063 14.1473 349.16 14.211 349.16 14.9722V42.8215C349.16 43.5827 350.063 43.6464 350.063 43.6464H353.418C354.386 43.6464 354.386 42.8215 354.386 42.8215V16.5576C354.386 15.7964 355.289 15.7334 355.289 15.7334C357.225 15.7334 358.902 14.9085 360.257 13.5763V42.8215C360.257 43.5827 361.161 43.6464 361.161 43.6464H364.516C365.484 43.6464 365.484 42.8215 365.484 42.8215V16.5576C365.484 15.7964 366.388 15.7334 366.388 15.7334C368.323 15.7334 370.001 14.9085 371.356 13.5763V42.8215C371.356 43.5827 372.259 43.6464 372.259 43.6464H375.614C376.582 43.6464 376.582 42.8215 376.582 42.8215V1.8396C376.582 1.8396 376.582 1.01538 375.614 1.01538H375.614ZM387.294 7.10549C385.745 11.5458 384.971 13.7029 382.906 20.6181C381.293 26.0106 380.583 29.8799 380.583 37.6199C380.583 42.3779 384.003 44.4714 385.423 44.4714C389.616 44.4714 393.165 40.0304 393.875 38.0006L394.843 42.8215C395.036 43.6464 395.747 43.6464 395.747 43.6464H399.166C400.134 43.6464 400.134 42.8215 400.134 42.8215L391.423 1.8396C391.423 1.8396 391.294 1.01538 390.455 1.01538H387.165C387.165 1.01538 386.068 1.07837 386.262 2.15729L387.294 7.10549ZM393.294 35.4628C392.198 38.1273 390.262 39.0789 387.81 39.0789C386.519 39.0789 385.229 36.2242 385.229 32.4177C385.229 23.9171 386.003 17.5094 388.004 10.2772L393.294 35.4628ZM403.102 1.96695V42.7586C403.102 43.6465 404.006 43.6465 404.006 43.6465H407.361C407.361 43.6465 408.329 43.7102 408.329 42.7586V1.90328C408.329 1.07837 407.361 1.01538 407.361 1.01538H404.006C404.006 1.01538 403.102 1.01538 403.102 1.96695ZM429.751 43.6465C429.751 43.6465 430.654 43.5828 430.654 42.8216V32.4816C430.654 32.0372 430.267 31.593 429.751 31.593C429.17 31.593 428.912 31.9737 428.653 32.4816L425.879 41.2362C425.621 41.9974 424.975 42.0604 424.975 42.0604H420.975C420.975 42.0604 420.072 41.9974 420.072 41.2362V1.83974C420.072 1.83974 420.072 1.01552 419.104 1.01552H415.749C415.749 1.01552 414.846 1.07851 414.846 1.83974V42.8216C414.846 43.5828 415.749 43.6465 415.749 43.6465H429.751H429.751ZM470.852 20.7447V1.8396C470.852 1.8396 470.852 1.01538 469.884 1.01538H455.366C455.366 1.01538 454.463 1.07837 454.463 1.8396V42.8215C454.463 43.5827 455.366 43.6464 455.366 43.6464H458.722C459.689 43.6464 459.689 42.8215 459.689 42.8215V26.5815C459.689 23.5993 462.464 21.5695 465.561 21.5695H469.884C470.852 21.5695 470.852 20.7446 470.852 20.7446L470.852 20.7447ZM464.593 19.9835C462.98 19.9835 460.98 20.7447 459.69 22.077V3.42587C459.69 2.66464 460.593 2.60097 460.593 2.60097H464.593C465.561 2.60097 465.561 3.42587 465.561 3.42587V19.1593C465.561 19.1593 465.561 19.9835 464.593 19.9835ZM480.853 7.10562C479.304 11.5459 478.53 13.7031 476.466 20.6182C474.852 26.0108 474.143 29.88 474.143 37.6201C474.143 42.3781 477.562 44.4716 478.982 44.4716C483.176 44.4716 486.725 40.0306 487.434 38.0008L488.402 42.8216C488.596 43.6465 489.306 43.6465 489.306 43.6465H492.726C493.693 43.6465 493.693 42.8216 493.693 42.8216L484.983 1.83974C484.983 1.83974 484.854 1.01552 484.015 1.01552H480.724C480.724 1.01552 479.627 1.07851 479.821 2.15743L480.853 7.10562ZM486.854 35.4629C485.757 38.1274 483.821 39.079 481.37 39.079C480.079 39.079 478.788 36.2243 478.788 32.4179C478.788 23.9173 479.563 17.5095 481.563 10.2773L486.854 35.4629ZM496.016 13.7031C496.016 25.7568 503.114 35.5896 503.114 39.4595C503.114 40.9185 502.275 42.1241 501.63 42.5683H500.984C501.695 41.9336 502.082 41.1087 502.082 40.0304C502.082 38.3813 500.468 37.2394 498.985 37.2394C497.952 37.2394 496.016 38.0636 496.016 40.1571C496.016 42.4409 498.339 44.0272 501.436 44.0272C506.017 44.0272 512.276 36.7315 512.276 28.2946V25.6301C512.276 25.122 511.954 24.7415 511.373 24.7415H508.018C507.502 24.7415 507.115 25.2495 507.115 25.6301V28.9285C507.115 31.4663 507.824 40.4113 502.727 42.4411C508.727 36.7952 501.243 24.4246 501.243 12.879C501.243 4.18737 502.339 1.71321 504.146 1.71321C506.082 1.71321 507.115 4.1237 507.115 12.879V16.5579C507.115 17.066 507.437 17.4465 508.018 17.4465H511.373C511.824 17.4465 512.276 17.1288 512.276 16.5579V13.7032C512.276 5.07527 510.212 0.000411697 504.146 0.000411697C497.049 0.000411697 496.016 8.501 496.016 13.7032L496.016 13.7031ZM516.277 13.7031C516.277 25.7568 523.374 35.5896 523.374 39.4595C523.374 40.9185 522.536 42.1241 521.89 42.5683H521.245C521.955 41.9336 522.342 41.1087 522.342 40.0304C522.342 38.3813 520.729 37.2394 519.245 37.2394C518.212 37.2394 516.276 38.0636 516.276 40.1571C516.276 42.4409 518.599 44.0272 521.697 44.0272C526.278 44.0272 532.537 36.7315 532.537 28.2946V25.6301C532.537 25.122 532.214 24.7415 531.633 24.7415H528.278C527.762 24.7415 527.375 25.2495 527.375 25.6301V28.9285C527.375 31.4663 528.084 40.4113 522.987 42.4411C528.988 36.7952 521.503 24.4246 521.503 12.879C521.503 4.18737 522.6 1.71321 524.406 1.71321C526.342 1.71321 527.375 4.1237 527.375 12.879V16.5579C527.375 17.066 527.697 17.4465 528.278 17.4465H531.633C532.084 17.4465 532.536 17.1288 532.536 16.5579V13.7032C532.536 5.07527 530.472 0.000411697 524.406 0.000411697C517.309 0.000411697 516.276 8.501 516.276 13.7032L516.277 13.7031ZM552.539 23.0924H548.28C545.183 23.0924 542.409 21.0626 542.409 18.0804V1.83974C542.409 1.83974 542.409 1.01552 541.441 1.01552H538.086C538.086 1.01552 537.183 1.07851 537.183 1.83974V42.8216C537.183 43.5828 538.086 43.6465 538.086 43.6465H552.539C553.507 43.6465 553.507 42.8216 553.507 42.8216V23.9173C553.507 23.9173 553.507 23.0924 552.539 23.0924H552.539ZM559.314 1.83974V42.8216C559.314 43.5828 560.218 43.6465 560.218 43.6465H563.572C564.54 43.6465 564.54 42.8216 564.54 42.8216V1.83974C564.54 1.83974 564.54 1.01552 563.572 1.01552H560.218C560.218 1.01552 559.314 1.07851 559.314 1.83974ZM542.409 22.5214C543.699 23.8536 545.7 24.6785 547.312 24.6785C548.28 24.6785 548.28 25.5027 548.28 25.5027V41.2362C548.28 41.2362 548.28 42.0604 547.312 42.0604H543.312C543.312 42.0604 542.409 41.9974 542.409 41.2362V22.5214ZM577.252 42.8216C575.962 41.2362 573.317 37.6201 573.317 32.4179C573.317 23.9173 574.091 17.5732 576.091 10.341L582.93 42.8216C583.124 43.6465 583.833 43.6465 583.833 43.6465H587.254C588.221 43.6465 588.221 42.8216 588.221 42.8216L579.511 1.83974C579.511 1.83974 579.381 1.01552 578.543 1.01552H575.252C575.252 1.01552 574.155 1.07851 574.348 2.15743L575.381 7.10562C573.832 11.5459 573.058 13.7031 570.994 20.6182C569.38 26.0108 568.671 29.8172 568.671 35.2089C568.671 39.9669 570.735 43.6465 571.574 43.6465H576.284C577.252 43.6465 577.252 42.8216 577.252 42.8216H577.252ZM601.255 24.9955C602.223 24.9955 602.223 25.8204 602.223 25.8204V42.8216C602.223 43.5828 603.127 43.6465 603.127 43.6465H606.481C607.449 43.6465 607.449 42.8216 607.449 42.8216V23.9173C607.449 23.9173 607.449 23.0924 606.481 23.0924H602.223C599.126 23.0924 596.352 21.0626 596.352 18.0804C596.352 15.099 599.126 13.0692 602.223 13.0692H606.03C606.998 13.0692 606.998 12.2443 606.998 12.2443V1.83974C606.998 1.83974 606.998 1.01552 606.03 1.01552H603.127C603.127 1.01552 602.223 1.07851 602.223 1.83974V10.2773C602.223 11.1022 601.255 11.1022 601.255 11.1022C599.643 11.1022 597.642 11.9265 596.352 13.2594V1.8396C596.352 1.8396 596.352 1.01538 595.384 1.01538H592.028C592.028 1.01538 591.125 1.07837 591.125 1.8396V42.8215C591.125 43.5827 592.028 43.6464 592.028 43.6464H595.384C596.352 43.6464 596.352 42.8215 596.352 42.8215V22.8381C597.642 24.1703 599.707 24.9952 601.255 24.9952L601.255 24.9955ZM623.774 15.924V42.8217C623.774 43.583 624.678 43.6466 624.678 43.6466H628.033C629 43.6466 629 42.8217 629 42.8217V1.83988C629 1.83988 629 1.01566 628.033 1.01566H624.678C624.678 1.01566 623.774 1.07865 623.774 1.83988V10.3412C623.774 11.3557 623.193 12.879 622.677 13.8936L617.903 23.5997V1.83988C617.903 1.83988 617.903 1.01566 616.935 1.01566H613.579C613.579 1.01566 612.676 1.07865 612.676 1.83988V42.8217C612.676 43.583 613.579 43.6466 613.579 43.6466H616.935C617.903 43.6466 617.903 42.8217 617.903 42.8217V28.8019C617.903 27.0891 618.612 25.8836 618.935 25.2495L623.774 15.924Z" fill="#473512"/>
</svg>
