<svg width="413" height="30" viewBox="0 0 413 30" fill="none" xmlns="http://www.w3.org/2000/svg">
<path d="M56.1464 14.498V15.5988H54.9377V14.498C54.9377 14.4614 54.9226 14.4298 54.9165 14.3944H56.1676C56.1606 14.4298 56.1465 14.4614 56.1465 14.498H56.1464ZM53.7304 14.498V15.5988H48.8053V14.3944H53.7515C53.7455 14.4298 53.7304 14.4614 53.7304 14.498ZM64.8528 14.0216C64.9471 13.796 64.8955 13.5356 64.722 13.363L56.6226 5.26163C56.3868 5.02509 56.0047 5.02509 55.7688 5.26163L49.8828 11.1506C49.7107 11.3227 49.6588 11.5832 49.7529 11.8088C49.8449 12.0339 50.0668 12.1811 50.3099 12.1811H58.7616C59.0055 12.1811 59.2262 12.0339 59.3194 11.8088C59.4124 11.5832 59.3606 11.3227 59.1884 11.1506L56.823 8.785C56.5872 8.54897 56.205 8.54897 55.9694 8.785C55.7334 9.02065 55.7334 9.40293 55.9694 9.63934L57.3041 10.9735H51.7672L56.1959 6.54276L62.8375 13.1863H48.2016C47.8676 13.1863 47.5977 13.4562 47.5977 13.7907V16.2028C47.5977 16.5367 47.8675 16.8067 48.2016 16.8067H62.8375L56.1959 23.4508L51.7672 19.02H57.3041L55.9694 20.3541C55.7334 20.5901 55.7334 20.972 55.9694 21.2084C56.205 21.444 56.5872 21.444 56.823 21.2084L59.1884 18.8428C59.3605 18.6708 59.4124 18.4098 59.3194 18.1846C59.2262 17.9595 59.0055 17.8119 58.7616 17.8119H50.3099C50.0668 17.8119 49.8449 17.9595 49.7529 18.1846C49.6588 18.4098 49.7107 18.6708 49.8828 18.8428L55.7688 24.7318C55.8867 24.85 56.0422 24.9089 56.1958 24.9089C56.3515 24.9089 56.5046 24.85 56.6225 24.7318L64.7219 16.6295C64.8953 16.4573 64.9469 16.1969 64.8527 15.9713C64.7595 15.7461 64.5389 15.599 64.2949 15.599H57.3535V14.4982C57.3535 14.4616 57.3394 14.4299 57.3324 14.3945H64.2949C64.5389 14.3945 64.7595 14.2473 64.8527 14.0217L64.8528 14.0216Z" fill="#C6B89E"/>
<path d="M98.7601 28.7923L86.7322 16.7585L88.0643 15.4263C88.3003 15.1906 88.3003 14.8084 88.0643 14.5723L86.7337 13.2405L98.7589 1.20757H132.084L130.361 2.93122C130.34 2.92895 130.321 2.9194 130.3 2.9194H99.8121C99.5681 2.9194 99.3475 3.06703 99.2543 3.29224C99.16 3.51733 99.2118 3.77827 99.3852 3.95042L109.145 13.716C109.258 13.8293 109.411 13.8927 109.571 13.8927H111.295V15.5987H109.571C109.411 15.5987 109.258 15.6626 109.145 15.7757L99.3852 25.5406C99.2118 25.7131 99.1601 25.9736 99.2543 26.1987C99.3475 26.4243 99.5681 26.572 99.8121 26.572H129.866L132.085 28.7921H98.7603L98.7601 28.7923ZM84.9753 14.9995L85.8795 14.0949L86.7837 14.9995L85.8795 15.9041L84.9753 14.9995ZM84.067 17.7174L81.3504 14.9995L84.067 12.2814L85.026 13.2404L83.695 14.5722C83.459 14.8082 83.459 15.1905 83.695 15.4262L85.026 16.7584L84.067 17.7173V17.7174ZM93.4295 28.7923H89.5076L89.2174 27.9733L88.7673 26.7019L88.3146 27.9733L88.0243 28.7923H88.0171L87.7272 27.9733L87.2768 26.7019L86.8239 27.9733L86.5337 28.7923H86.5264L86.2367 27.9733L85.7861 26.7019L85.3334 27.9733L85.0436 28.7923H85.0363L84.7461 27.9733L84.296 26.7019L83.8433 27.9733L83.5529 28.7923H83.5458L83.2559 27.9733L82.8055 26.7019L82.3526 27.9733L82.0624 28.7923H82.0551L81.7654 27.9733L81.315 26.7019L80.8621 27.9733L80.5723 28.7923H80.5651L80.2748 27.9733L79.8248 26.7019L79.372 27.9733L79.1479 28.6071V26.9508L84.1212 21.9416L86.7268 24.5617H84.0373L84.3171 24.3126C84.5643 24.0912 84.5856 23.7089 84.3642 23.4595C84.1424 23.2113 83.7602 23.1909 83.5126 23.4115L82.0534 24.7153C81.8668 24.8825 81.8021 25.147 81.8903 25.3809C81.9801 25.6151 82.2042 25.7699 82.4551 25.7699H88.1785C88.4225 25.7699 88.6416 25.6237 88.7363 25.3985C88.8291 25.1729 88.7789 24.9133 88.6064 24.7403L84.5481 20.6597C84.435 20.5452 84.2815 20.4813 84.1213 20.4813C83.96 20.4813 83.8052 20.5453 83.6919 20.6597L78.1161 26.2761C78.0042 26.3894 77.9404 26.5424 77.9404 26.7019V28.7923H76.2049V26.7019C76.2049 26.5424 76.141 26.3894 76.0292 26.2761L70.4528 20.6597C70.3396 20.5452 70.1857 20.4813 70.024 20.4813C69.8639 20.4813 69.7103 20.5453 69.5971 20.6597L65.5385 24.7403C65.3664 24.9134 65.3156 25.1729 65.409 25.3985C65.5033 25.6237 65.7227 25.7699 65.9668 25.7699H71.6898C71.9411 25.7699 72.1652 25.615 72.2549 25.3809C72.3433 25.147 72.2784 24.8825 72.0923 24.7153L70.6321 23.4115C70.3848 23.1909 70.0027 23.2113 69.7809 23.4595C69.5596 23.7088 69.5808 24.0911 69.8284 24.3126L70.1078 24.5617H67.4179L70.024 21.9416L74.9973 26.9508V28.6071L74.7732 27.9733L74.3203 26.7019L73.8699 27.9733L73.5802 28.7923H73.5729L73.2827 27.9733L72.8298 26.7019L72.3797 27.9733L72.0895 28.7923H72.0827L71.7925 27.9733L71.3397 26.7019L70.8892 27.9733L70.5994 28.7923H70.5922L70.3019 27.9733L69.8492 26.7019L69.3987 27.9733L69.1088 28.7923H69.1016L68.8113 27.9733L68.3585 26.7019L67.9085 27.9733L67.6182 28.7923H67.6114L67.3212 27.9733L66.8684 26.7019L66.4179 27.9733L66.1281 28.7923H66.1209L65.8307 27.9733L65.3778 26.7019L64.9274 27.9733L64.6375 28.7923H60.7159L70.0776 19.4252L77.0726 26.4232L84.0666 19.4252L93.4292 28.7923H93.4295ZM69.1197 16.7585L70.4512 15.4263C70.6867 15.1906 70.6867 14.8084 70.4512 14.5723L69.1197 13.2405L70.0781 12.2816L72.7949 14.9996L70.0781 17.7176L69.1197 16.7586V16.7585ZM68.2661 15.9041L67.3615 14.9995L68.2661 14.0949L69.1703 14.9995L68.2661 15.9041ZM55.3856 28.7923H22.0607L24.2797 26.5722H54.3338C54.5779 26.5722 54.7985 26.4246 54.8915 26.199C54.986 25.9739 54.934 25.7133 54.7605 25.5408L45.0012 15.776C44.888 15.6627 44.7349 15.5989 44.5744 15.5989H42.8506V13.8929H44.5744C44.7349 13.8929 44.8881 13.8295 45.0012 13.7162L54.7605 3.95067C54.934 3.77852 54.9859 3.51759 54.8915 3.29249C54.7985 3.06728 54.5779 2.91965 54.3338 2.91965H23.8459C23.8248 2.91965 23.8057 2.9292 23.7846 2.93147L22.0619 1.20783H55.3868L67.4127 13.2408L66.0812 14.5726C65.8458 14.8086 65.8458 15.1909 66.0812 15.4265L67.4137 16.7587L55.3858 28.7926L55.3856 28.7923ZM41.6432 13.8928V15.5988H40.4345V13.8928H41.6432ZM35.4198 15.4263C35.6556 15.1906 35.6556 14.8084 35.4198 14.5723L24.98 4.1276H52.8762L44.3245 12.6847H37.58L31.7434 6.84554H45.4302L42.5627 9.71438H39.1893L38.6364 9.16134H40.1469C40.4804 9.16134 40.7505 8.89085 40.7505 8.55699C40.7505 8.2235 40.4802 7.95314 40.1469 7.95314H37.1791C36.935 7.95314 36.7142 8.10039 36.6213 8.32586C36.5283 8.55108 36.58 8.81201 36.7521 8.98403L38.5126 10.7453C38.6259 10.8586 38.7791 10.9225 38.9394 10.9225H42.8127C42.9731 10.9225 43.1263 10.8584 43.2394 10.7453L47.3145 6.66824C47.4867 6.49621 47.5386 6.23528 47.4454 6.01006C47.3524 5.78497 47.1316 5.63734 46.8878 5.63734H30.2859C30.0419 5.63734 29.8215 5.78497 29.7281 6.01006C29.6351 6.23528 29.687 6.49621 29.8591 6.66824L36.9032 13.716C37.0164 13.8293 37.1696 13.8927 37.3298 13.8927H39.2273V15.5987H37.3298C37.1696 15.5987 37.0163 15.6626 36.9032 15.7757L29.8591 22.8226C29.6871 22.9951 29.6351 23.2557 29.7281 23.4808C29.8215 23.7064 30.0419 23.854 30.2859 23.854H46.8878C47.1316 23.854 47.3524 23.7064 47.4454 23.4808C47.5386 23.2557 47.4868 22.9951 47.3145 22.8226L43.2394 18.7456C43.1262 18.6323 42.9731 18.569 42.8127 18.569H38.9394C38.7791 18.569 38.6257 18.6323 38.5126 18.7456L36.7521 20.5073C36.5802 20.6793 36.5283 20.9399 36.6213 21.1655C36.7142 21.3906 36.935 21.5378 37.1791 21.5378H40.1469C40.4804 21.5378 40.7505 21.2683 40.7505 20.934C40.7505 20.6001 40.4802 20.3303 40.1469 20.3303H38.6364L39.1893 19.7771H42.5627L45.4302 22.6461H31.7434L37.58 16.8064H44.3245L52.8762 25.364H25.4872L35.42 15.4262L35.4198 15.4263ZM80.0698 15.4263L83.2135 18.5714L77.0729 24.7154L70.9319 18.5714L74.075 15.4263C74.3109 15.1906 74.3109 14.8084 74.075 14.5723L70.9319 11.4272L77.0729 5.28311L83.2135 11.4272L80.0698 14.5723C79.8339 14.8084 79.8339 15.1906 80.0698 15.4263ZM60.7174 1.20757H64.6189L64.9277 2.07965L65.3782 3.3511L65.8311 2.07965L66.1235 1.25159L66.4183 2.07965L66.8687 3.3511L67.3216 2.07965L67.6141 1.25159L67.9089 2.07965L68.3589 3.3511L68.8117 2.07965L69.1042 1.25159L69.3991 2.07965L69.8495 3.3511L70.3022 2.07965L70.5947 1.25159L70.8896 2.07965L71.34 3.3511L71.7929 2.07965L72.0854 1.25159L72.3801 2.07965L72.8302 3.3511L73.283 2.07965L73.5755 1.25159L73.8703 2.07965L74.3207 3.3511L74.7736 2.07965L74.9977 1.44637V3.10261L70.0244 8.11133L67.4182 5.49122H70.1082L69.8288 5.73983C69.5812 5.96228 69.5599 6.34418 69.7813 6.59291C70.0032 6.84202 70.3853 6.8634 70.6324 6.64183L72.0927 5.33806C72.2788 5.16993 72.3435 4.90598 72.2553 4.67259C72.1656 4.43744 71.9415 4.28302 71.6902 4.28302H65.9672C65.7231 4.28302 65.5036 4.42977 65.4094 4.65487C65.3161 4.88008 65.3668 5.13963 65.5388 5.31304L69.5975 9.3936C69.7108 9.50828 69.8642 9.57166 70.0244 9.57166C70.1861 9.57166 70.34 9.50828 70.4532 9.3936L76.0296 3.77688C76.1414 3.66371 76.2053 3.51017 76.2053 3.3511V1.20757H77.9408V3.3511C77.9408 3.51017 78.0046 3.66383 78.1165 3.77688L83.6923 9.3936C83.8056 9.50828 83.9604 9.57166 84.1217 9.57166C84.2819 9.57166 84.4355 9.50828 84.5485 9.3936L88.6068 5.31304C88.7793 5.1395 88.8297 4.88008 88.7366 4.65487C88.642 4.42977 88.4229 4.28302 88.1788 4.28302H82.4554C82.2046 4.28302 81.9805 4.43744 81.8907 4.67259C81.8024 4.90586 81.8672 5.16993 82.0537 5.33806L83.513 6.64183C83.7607 6.86327 84.1429 6.84202 84.3646 6.59291C84.586 6.34418 84.5647 5.96228 84.3175 5.73983L84.0377 5.49122H86.7272L84.1215 8.11133L79.1482 3.10261V1.44637L79.3723 2.07965L79.8252 3.3511L80.2751 2.07965L80.57 1.25159L80.8625 2.07965L81.3153 3.3511L81.7658 2.07965L82.0605 1.25159L82.353 2.07965L82.8058 3.3511L83.2563 2.07965L83.5512 1.25159L83.8436 2.07965L84.2964 3.3511L84.7465 2.07965L85.0413 1.25159L85.3338 2.07965L85.7865 3.3511L86.2371 2.07965L86.5318 1.25159L86.8243 2.07965L87.2772 3.3511L87.7276 2.07965L88.0225 1.25159L88.315 2.07965L88.7677 3.3511L89.2178 2.07965L89.5266 1.20757H93.4285L84.0674 10.5734L77.0734 3.57543L70.0784 10.5734L60.7177 1.20757H60.7174ZM112.502 15.5988V13.8928H113.711V15.5988H112.502ZM118.725 14.5723C118.489 14.8084 118.489 15.1906 118.725 15.4263L128.658 25.3641H101.269L109.821 16.8065H116.565L122.402 22.6462H108.715L111.583 19.7772H114.956L115.509 20.3304H113.998C113.665 20.3304 113.395 20.6003 113.395 20.9341C113.395 21.2685 113.665 21.538 113.998 21.538H116.966C117.21 21.538 117.431 21.3907 117.524 21.1656C117.617 20.94 117.565 20.6795 117.393 20.5074L115.633 18.7457C115.52 18.6324 115.366 18.5691 115.206 18.5691H111.333C111.172 18.5691 111.019 18.6324 110.906 18.7457L106.831 22.8227C106.659 22.9953 106.607 23.2558 106.7 23.4809C106.793 23.7065 107.014 23.8541 107.258 23.8541H123.859C124.103 23.8541 124.324 23.7065 124.417 23.4809C124.51 23.2558 124.459 22.9953 124.286 22.8227L117.242 15.7759C117.129 15.6626 116.975 15.5988 116.815 15.5988H114.919V13.8928H116.815C116.975 13.8928 117.129 13.8294 117.242 13.7161L124.286 6.66836C124.458 6.49633 124.51 6.23541 124.417 6.01019C124.324 5.7851 124.103 5.63747 123.859 5.63747H107.258C107.014 5.63747 106.793 5.7851 106.7 6.01019C106.607 6.23541 106.658 6.49633 106.831 6.66836L110.906 10.7454C111.019 10.8587 111.172 10.9226 111.333 10.9226H115.206C115.366 10.9226 115.52 10.8586 115.633 10.7454L117.393 8.98416C117.565 8.81213 117.617 8.55121 117.524 8.32599C117.431 8.10052 117.21 7.95327 116.966 7.95327H113.998C113.665 7.95327 113.395 8.22375 113.395 8.55711C113.395 8.89098 113.665 9.16147 113.998 9.16147H115.509L114.956 9.71451H111.583L108.715 6.84567H122.402L116.565 12.6848H109.821L101.269 4.12772H129.165L118.725 14.5725L118.725 14.5723ZM130.19 25.1897L130.511 24.5148L131.091 23.2962L129.872 23.8765L129.198 24.1973L129.137 24.1352L129.457 23.4598L130.036 22.2416L128.818 22.822L128.144 23.1428L128.083 23.0808L128.403 22.4066L128.983 21.1881L127.764 21.7675L127.091 22.0881L127.029 22.0256L127.349 21.3521L127.929 20.1335L126.71 20.7128L126.038 21.0348L125.974 20.972L126.295 20.2974L126.875 19.0788L125.656 19.6591L124.984 19.9804L124.92 19.9174L125.241 19.2429L125.821 18.0239L124.603 18.6047L123.93 18.9259L123.867 18.863L124.188 18.1898L124.767 16.9694L123.549 17.5502L122.876 17.8714L120.006 14.9999L123.038 11.9652L123.549 12.2089L124.767 12.7892L124.188 11.5688L123.944 11.0588L124.093 10.9106L124.603 11.154L125.821 11.7347L125.241 10.5157L124.998 10.0047L125.146 9.85623L125.656 10.0994L126.875 10.6803L126.295 9.46113L126.052 8.9502L126.2 8.80169L126.71 9.0459L127.929 9.62523L127.349 8.40659L127.106 7.89555L127.253 7.74842L127.764 7.99124L128.983 8.57057L128.403 7.35194L128.16 6.84101L128.307 6.69376L128.818 6.93658L130.036 7.51691L129.457 6.29879L129.214 5.78786L129.362 5.63935L129.872 5.88217L131.09 6.46251L130.511 5.24425L130.267 4.73333L133.967 1.0314C134.141 0.859371 134.193 0.598443 134.098 0.373226C134.005 0.148135 133.784 0 133.54 0H98.5083C98.3482 0 98.1946 0.0640106 98.0815 0.177185L85.8791 12.3868L84.9207 11.4278L95.3117 1.03152C95.4852 0.8595 95.5372 0.598566 95.4427 0.373349C95.3499 0.148258 95.1288 0.000128942 94.8849 0.000128942H59.2598C59.0157 0.000128942 58.7952 0.148258 58.7018 0.373349C58.6077 0.598566 58.6596 0.8595 58.8329 1.03152L69.2242 11.4278L68.2657 12.3868L56.063 0.177185C55.9498 0.0638848 55.7966 0 55.6365 0H20.6042C20.3601 0 20.1397 0.148135 20.0465 0.373226C19.9522 0.598443 20.0041 0.859371 20.1774 1.0314L23.8775 4.73333L23.6333 5.24425L23.0546 6.46251L24.2725 5.88217L24.7832 5.63935L24.9305 5.78786L24.6874 6.29879L24.1088 7.51691L25.3267 6.93658L25.8373 6.69376L25.9846 6.84101L25.7418 7.35194L25.1614 8.57057L26.3807 7.99124L26.8911 7.74842L27.0386 7.89555L26.7958 8.40659L26.2154 9.62523L27.4347 9.0459L27.9441 8.80169L28.0927 8.9502L27.8496 9.46113L27.2697 10.6803L28.4887 10.0994L28.9981 9.85623L29.1467 10.0047L28.9036 10.5157L28.3237 11.7347L29.5417 11.154L30.0522 10.9106L30.2007 11.0588L29.9566 11.5688L29.3776 12.7892L30.5958 12.2089L31.1064 11.9652L34.1388 14.9999L31.269 17.8714L30.5958 17.5502L29.3776 16.9694L29.9566 18.1898L30.2775 18.863L30.2149 18.9259L29.5417 18.6047L28.3237 18.0239L28.9036 19.2429L29.2245 19.9174L29.1609 19.9804L28.4887 19.6591L27.2697 19.0788L27.8496 20.2974L28.1705 20.972L28.1069 21.0348L27.4347 20.7128L26.2154 20.1335L26.7958 21.3521L27.1164 22.0256L27.0541 22.0881L26.3807 21.7675L25.1614 21.1881L25.7418 22.4066L26.0624 23.0808L26.0012 23.1428L25.3267 22.822L24.1088 22.2416L24.6874 23.4598L25.0083 24.1352L24.9471 24.1973L24.2725 23.8765L23.0546 23.2962L23.6333 24.5148L23.9552 25.1897L20.1763 28.9696C20.0042 29.1413 19.9523 29.4022 20.0467 29.6278C20.1384 29.8529 20.3603 30 20.6032 30H55.6353C55.7957 30 55.949 29.9361 56.0622 29.823L68.2667 17.6124L69.2244 18.5714L58.8318 28.9696C58.6597 29.1413 58.6078 29.4022 58.702 29.6278C58.7941 29.8529 59.0158 30 59.2588 30H94.8863C95.129 30 95.3509 29.8529 95.4428 29.6278C95.5374 29.4022 95.4853 29.1413 95.3133 28.9696L84.9208 18.5714L85.878 17.6124L98.0829 29.823C98.1961 29.9363 98.3496 30 98.5098 30H133.542C133.785 30 134.006 29.8529 134.098 29.6278C134.193 29.4022 134.141 29.1413 133.969 28.9696L130.19 25.1897Z" fill="#C6B89E"/>
<path d="M99.2294 14.3943C99.2235 14.4296 99.208 14.4613 99.208 14.4979V15.5987H97.9997V14.4979C97.9997 14.4613 97.9856 14.4296 97.9783 14.3943H99.2293H99.2294ZM105.341 14.3943V15.5987H100.416V14.4979C100.416 14.4613 100.4 14.4296 100.394 14.3943H105.341H105.341ZM104.393 18.1844C104.301 17.9593 104.079 17.8117 103.836 17.8117H95.3844C95.1404 17.8117 94.9199 17.9593 94.8271 18.1844C94.7333 18.4096 94.7854 18.6705 94.9579 18.8426L97.3229 21.2082C97.5588 21.4438 97.9409 21.4438 98.1768 21.2082C98.4122 20.9717 98.4122 20.5898 98.1768 20.3538L96.842 19.0197H102.379L97.9503 23.4505L91.3086 16.8064H105.945C106.278 16.8064 106.548 16.5364 106.548 16.2026V13.7905C106.548 13.4561 106.278 13.1861 105.945 13.1861H91.3086L97.9503 6.54252L102.379 10.9733H96.842L98.1768 9.63909C98.4122 9.40268 98.4122 9.02041 98.1768 8.78475C97.9409 8.54872 97.5588 8.54872 97.3229 8.78475L94.9579 11.1503C94.7855 11.3225 94.7333 11.5829 94.8271 11.8085C94.9199 12.0336 95.1404 12.1809 95.3844 12.1809H103.836C104.079 12.1809 104.301 12.0336 104.393 11.8085C104.487 11.5829 104.435 11.3225 104.263 11.1503L98.3769 5.26139C98.1415 5.02485 97.7593 5.02485 97.5233 5.26139L89.4242 13.3628C89.2506 13.5353 89.1991 13.7957 89.2932 14.0213C89.3865 14.2469 89.6071 14.3942 89.851 14.3942H96.8133C96.8065 14.4295 96.792 14.4612 96.792 14.4978V15.5986H89.8509C89.6069 15.5986 89.3864 15.7457 89.2931 15.9709C89.1988 16.1965 89.2505 16.457 89.4241 16.6291L97.5232 24.7314C97.641 24.8496 97.7946 24.9086 97.9502 24.9086C98.1033 24.9086 98.259 24.8496 98.3766 24.7314L104.263 18.8424C104.435 18.6704 104.487 18.4095 104.393 18.1843L104.393 18.1844Z" fill="#C6B89E"/>
<path d="M78.4335 13.2386C78.3769 13.2952 78.3326 13.3622 78.3018 13.4356C78.271 13.5099 78.2555 13.5878 78.2555 13.6666V14.3933H75.8902V13.6666C75.8902 13.5878 75.8753 13.5099 75.8444 13.4356C75.8137 13.3622 75.7688 13.2952 75.7121 13.2386L73.8517 11.3772L77.0732 8.15358L80.2942 11.3772L78.4333 13.2386H78.4335ZM80.2944 18.4928L77.0734 21.7155L73.852 18.4928L75.7138 16.6297C75.827 16.5164 75.8904 16.3632 75.8904 16.2029V15.6015H78.2557V16.2029C78.2557 16.3632 78.3195 16.5165 78.4326 16.6297L80.2944 18.4928ZM81.5749 11.8038C81.8108 11.5683 81.8108 11.1859 81.5749 10.9495L77.198 6.57077C77.1604 6.53418 77.1156 6.5128 77.0734 6.48828C77.0308 6.5128 76.9861 6.53418 76.948 6.57077L72.5715 10.9495C72.3356 11.1859 72.3356 11.5683 72.5715 11.8038L74.6833 13.9167V15.9528L72.5715 18.0656C72.3356 18.3017 72.3356 18.684 72.5715 18.9196L76.948 23.2987C76.986 23.3353 77.0308 23.3567 77.0734 23.3816C77.1156 23.3567 77.1603 23.3353 77.198 23.2987L81.5749 18.9196C81.8108 18.684 81.8108 18.3017 81.5749 18.0656L79.4631 15.9528V13.9167L81.5749 11.8038Z" fill="#C6B89E"/>
<path d="M149.627 14.9995L141.854 22.7761L134.082 14.9995L141.854 7.22282L149.627 14.9995ZM132.801 14.5724C132.565 14.8084 132.565 15.1907 132.801 15.4263L141.854 24.484L150.907 15.4263C151.144 15.1907 151.144 14.8084 150.907 14.5724L141.854 5.51465L132.801 14.5724Z" fill="#C6B89E"/>
<path d="M146.003 14.9998L141.855 19.1498L137.706 14.9998L141.855 10.8498L146.003 14.9998ZM136.426 14.5726C136.19 14.8086 136.19 15.1909 136.426 15.4266L141.855 20.8581L147.283 15.4266C147.519 15.1909 147.519 14.8086 147.283 14.5726L141.855 9.14111L136.426 14.5726Z" fill="#C6B89E"/>
<path d="M141.855 26.4027L130.457 14.9999L141.855 3.59697L153.252 14.9999L141.855 26.4027ZM154.532 14.5726L141.855 1.88867L129.177 14.5726C128.941 14.8087 128.941 15.1909 129.177 15.4266L141.855 28.1105L154.532 15.4266C154.768 15.1909 154.768 14.8087 154.532 14.5726Z" fill="#C6B89E"/>
<path d="M185.146 14.498V15.5988H183.938V14.498C183.938 14.4614 183.922 14.4298 183.917 14.3944H185.167C185.161 14.4298 185.146 14.4614 185.146 14.498ZM182.73 14.498V15.5988H177.805V14.3944H182.751C182.746 14.4298 182.73 14.4614 182.73 14.498ZM193.853 14.0216C193.947 13.796 193.895 13.5356 193.722 13.363L185.622 5.26163C185.387 5.02509 185.005 5.02509 184.769 5.26163L178.883 11.1506C178.71 11.3227 178.659 11.5832 178.753 11.8088C178.845 12.0339 179.067 12.1811 179.31 12.1811H187.762C188.006 12.1811 188.226 12.0339 188.319 11.8088C188.412 11.5832 188.36 11.3227 188.188 11.1506L185.823 8.785C185.587 8.54897 185.205 8.54897 184.969 8.785C184.733 9.02065 184.733 9.40293 184.969 9.63934L186.304 10.9735H180.767L185.196 6.54276L191.837 13.1863H177.201C176.867 13.1863 176.597 13.4562 176.597 13.7907V16.2028C176.597 16.5367 176.867 16.8067 177.201 16.8067H191.837L185.196 23.4508L180.767 19.02H186.304L184.969 20.3541C184.733 20.5901 184.733 20.972 184.969 21.2084C185.205 21.444 185.587 21.444 185.823 21.2084L188.188 18.8428C188.36 18.6708 188.412 18.4098 188.319 18.1846C188.226 17.9595 188.006 17.8119 187.762 17.8119H179.31C179.067 17.8119 178.845 17.9595 178.753 18.1846C178.659 18.4098 178.71 18.6708 178.883 18.8428L184.769 24.7318C184.886 24.85 185.042 24.9089 185.196 24.9089C185.351 24.9089 185.504 24.85 185.622 24.7318L193.722 16.6295C193.895 16.4573 193.947 16.1969 193.853 15.9713C193.759 15.7461 193.539 15.599 193.294 15.599H186.353V14.4982C186.353 14.4616 186.339 14.4299 186.332 14.3945H193.294C193.539 14.3945 193.759 14.2473 193.853 14.0217L193.853 14.0216Z" fill="#C6B89E"/>
<path d="M227.76 28.7923L215.732 16.7585L217.064 15.4263C217.3 15.1906 217.3 14.8084 217.064 14.5723L215.733 13.2405L227.759 1.20757H261.084L259.361 2.93122C259.34 2.92895 259.321 2.9194 259.3 2.9194H228.812C228.568 2.9194 228.347 3.06703 228.254 3.29224C228.16 3.51733 228.212 3.77827 228.385 3.95042L238.144 13.716C238.257 13.8293 238.411 13.8927 238.571 13.8927H240.295V15.5987H238.571C238.411 15.5987 238.257 15.6626 238.144 15.7757L228.385 25.5406C228.212 25.7131 228.16 25.9736 228.254 26.1987C228.347 26.4243 228.568 26.572 228.812 26.572H258.866L261.085 28.7921H227.76L227.76 28.7923ZM213.975 14.9995L214.879 14.0949L215.784 14.9995L214.879 15.9041L213.975 14.9995ZM213.067 17.7174L210.35 14.9995L213.067 12.2814L214.026 13.2404L212.694 14.5722C212.459 14.8082 212.459 15.1905 212.694 15.4262L214.026 16.7584L213.067 17.7173V17.7174ZM222.429 28.7923H218.508L218.217 27.9733L217.767 26.7019L217.314 27.9733L217.024 28.7923H217.017L216.727 27.9733L216.276 26.7019L215.823 27.9733L215.534 28.7923H215.526L215.236 27.9733L214.786 26.7019L214.333 27.9733L214.044 28.7923H214.036L213.746 27.9733L213.296 26.7019L212.843 27.9733L212.553 28.7923H212.546L212.256 27.9733L211.805 26.7019L211.352 27.9733L211.062 28.7923H211.055L210.765 27.9733L210.315 26.7019L209.862 27.9733L209.572 28.7923H209.565L209.275 27.9733L208.824 26.7019L208.371 27.9733L208.147 28.6071V26.9508L213.121 21.9416L215.727 24.5617H213.037L213.317 24.3126C213.564 24.0912 213.586 23.7089 213.364 23.4595C213.142 23.2113 212.76 23.1909 212.513 23.4115L211.053 24.7153C210.867 24.8825 210.802 25.147 210.89 25.3809C210.98 25.6151 211.204 25.7699 211.455 25.7699H217.178C217.422 25.7699 217.641 25.6237 217.736 25.3985C217.829 25.1729 217.779 24.9133 217.606 24.7403L213.548 20.6597C213.435 20.5452 213.281 20.4813 213.121 20.4813C212.959 20.4813 212.805 20.5453 212.692 20.6597L207.116 26.2761C207.004 26.3894 206.94 26.5424 206.94 26.7019V28.7923H205.204V26.7019C205.204 26.5424 205.14 26.3894 205.029 26.2761L199.453 20.6597C199.339 20.5452 199.185 20.4813 199.024 20.4813C198.863 20.4813 198.71 20.5453 198.596 20.6597L194.538 24.7403C194.366 24.9134 194.315 25.1729 194.408 25.3985C194.503 25.6237 194.723 25.7699 194.967 25.7699H200.69C200.941 25.7699 201.165 25.615 201.254 25.3809C201.343 25.147 201.278 24.8825 201.092 24.7153L199.632 23.4115C199.385 23.1909 199.003 23.2113 198.781 23.4595C198.559 23.7088 198.58 24.0911 198.828 24.3126L199.107 24.5617H196.418L199.024 21.9416L203.997 26.9508V28.6071L203.773 27.9733L203.32 26.7019L202.87 27.9733L202.58 28.7923H202.573L202.283 27.9733L201.83 26.7019L201.38 27.9733L201.089 28.7923H201.083L200.792 27.9733L200.34 26.7019L199.889 27.9733L199.599 28.7923H199.592L199.302 27.9733L198.849 26.7019L198.398 27.9733L198.108 28.7923H198.101L197.811 27.9733L197.358 26.7019L196.908 27.9733L196.618 28.7923H196.611L196.321 27.9733L195.868 26.7019L195.418 27.9733L195.128 28.7923H195.121L194.831 27.9733L194.378 26.7019L193.927 27.9733L193.637 28.7923H189.715L199.078 19.4252L206.072 26.4232L213.066 19.4252L222.429 28.7923H222.429ZM198.12 16.7585L199.451 15.4263C199.687 15.1906 199.687 14.8084 199.451 14.5723L198.12 13.2405L199.078 12.2816L201.795 14.9996L199.078 17.7176L198.12 16.7586V16.7585ZM197.266 15.9041L196.361 14.9995L197.266 14.0949L198.17 14.9995L197.266 15.9041ZM184.386 28.7923H151.06L153.28 26.5722H183.333C183.577 26.5722 183.798 26.4246 183.892 26.199C183.986 25.9739 183.934 25.7133 183.761 25.5408L174.001 15.776C173.888 15.6627 173.734 15.5989 173.574 15.5989H171.851V13.8929H173.574C173.734 13.8929 173.888 13.8295 174.001 13.7162L183.761 3.95067C183.934 3.77852 183.986 3.51759 183.892 3.29249C183.798 3.06728 183.577 2.91965 183.333 2.91965H152.845C152.825 2.91965 152.806 2.9292 152.785 2.93147L151.062 1.20783H184.387L196.412 13.2408L195.081 14.5726C194.845 14.8086 194.845 15.1909 195.081 15.4265L196.414 16.7587L184.386 28.7926L184.386 28.7923ZM170.643 13.8928V15.5988H169.434V13.8928H170.643ZM164.419 15.4263C164.655 15.1906 164.655 14.8084 164.419 14.5723L153.98 4.1276H181.876L173.324 12.6847H166.58L160.743 6.84554H174.43L171.562 9.71438H168.189L167.636 9.16134H169.146C169.481 9.16134 169.75 8.89085 169.75 8.55699C169.75 8.2235 169.481 7.95314 169.146 7.95314H166.179C165.935 7.95314 165.714 8.10039 165.621 8.32586C165.528 8.55108 165.579 8.81201 165.752 8.98403L167.512 10.7453C167.626 10.8586 167.779 10.9225 167.939 10.9225H171.812C171.973 10.9225 172.126 10.8584 172.239 10.7453L176.314 6.66824C176.486 6.49621 176.538 6.23528 176.446 6.01006C176.352 5.78497 176.131 5.63734 175.887 5.63734H159.286C159.042 5.63734 158.821 5.78497 158.728 6.01006C158.635 6.23528 158.687 6.49621 158.859 6.66824L165.903 13.716C166.016 13.8293 166.169 13.8927 166.33 13.8927H168.227V15.5987H166.33C166.169 15.5987 166.016 15.6626 165.903 15.7757L158.859 22.8226C158.687 22.9951 158.635 23.2557 158.728 23.4808C158.821 23.7064 159.042 23.854 159.286 23.854H175.887C176.131 23.854 176.352 23.7064 176.446 23.4808C176.538 23.2557 176.486 22.9951 176.314 22.8226L172.239 18.7456C172.126 18.6323 171.973 18.569 171.812 18.569H167.939C167.779 18.569 167.625 18.6323 167.512 18.7456L165.752 20.5073C165.58 20.6793 165.528 20.9399 165.621 21.1655C165.714 21.3906 165.935 21.5378 166.179 21.5378H169.146C169.481 21.5378 169.75 21.2683 169.75 20.934C169.75 20.6001 169.481 20.3303 169.146 20.3303H167.636L168.189 19.7771H171.562L174.43 22.6461H160.743L166.58 16.8064H173.324L181.876 25.364H154.487L164.419 15.4262V15.4263ZM209.07 15.4263L212.213 18.5714L206.072 24.7154L199.932 18.5714L203.075 15.4263C203.311 15.1906 203.311 14.8084 203.075 14.5723L199.932 11.4272L206.072 5.28311L212.213 11.4272L209.07 14.5723C208.834 14.8084 208.834 15.1906 209.07 15.4263ZM189.717 1.20757H193.619L193.928 2.07965L194.378 3.3511L194.831 2.07965L195.123 1.25159L195.418 2.07965L195.869 3.3511L196.322 2.07965L196.614 1.25159L196.909 2.07965L197.359 3.3511L197.812 2.07965L198.104 1.25159L198.399 2.07965L198.849 3.3511L199.302 2.07965L199.594 1.25159L199.89 2.07965L200.34 3.3511L200.793 2.07965L201.085 1.25159L201.38 2.07965L201.83 3.3511L202.283 2.07965L202.575 1.25159L202.87 2.07965L203.321 3.3511L203.774 2.07965L203.998 1.44637V3.10261L199.024 8.11133L196.418 5.49122H199.108L198.828 5.73983C198.581 5.96228 198.559 6.34418 198.781 6.59291C199.003 6.84202 199.385 6.8634 199.632 6.64183L201.092 5.33806C201.278 5.16993 201.344 4.90598 201.255 4.67259C201.165 4.43744 200.941 4.28302 200.69 4.28302H194.967C194.723 4.28302 194.503 4.42977 194.409 4.65487C194.316 4.88008 194.367 5.13963 194.539 5.31304L198.597 9.3936C198.71 9.50828 198.864 9.57166 199.024 9.57166C199.186 9.57166 199.34 9.50828 199.453 9.3936L205.029 3.77688C205.141 3.66371 205.205 3.51017 205.205 3.3511V1.20757H206.941V3.3511C206.941 3.51017 207.005 3.66383 207.116 3.77688L212.692 9.3936C212.806 9.50828 212.96 9.57166 213.121 9.57166C213.282 9.57166 213.435 9.50828 213.548 9.3936L217.607 5.31304C217.779 5.1395 217.83 4.88008 217.737 4.65487C217.642 4.42977 217.422 4.28302 217.178 4.28302H211.455C211.204 4.28302 210.98 4.43744 210.891 4.67259C210.802 4.90586 210.867 5.16993 211.053 5.33806L212.513 6.64183C212.761 6.86327 213.143 6.84202 213.365 6.59291C213.586 6.34418 213.565 5.96228 213.317 5.73983L213.038 5.49122H215.727L213.121 8.11133L208.148 3.10261V1.44637L208.372 2.07965L208.825 3.3511L209.275 2.07965L209.57 1.25159L209.863 2.07965L210.315 3.3511L210.765 2.07965L211.061 1.25159L211.353 2.07965L211.805 3.3511L212.256 2.07965L212.551 1.25159L212.843 2.07965L213.296 3.3511L213.747 2.07965L214.041 1.25159L214.334 2.07965L214.787 3.3511L215.237 2.07965L215.532 1.25159L215.824 2.07965L216.277 3.3511L216.727 2.07965L217.022 1.25159L217.315 2.07965L217.767 3.3511L218.218 2.07965L218.527 1.20757H222.428L213.067 10.5734L206.073 3.57543L199.078 10.5734L189.718 1.20757H189.717ZM241.502 15.5988V13.8928H242.71V15.5988H241.502ZM247.725 14.5723C247.489 14.8084 247.489 15.1906 247.725 15.4263L257.658 25.3641H230.269L238.821 16.8065H245.565L251.401 22.6462H237.715L240.583 19.7772H243.956L244.509 20.3304H242.999C242.665 20.3304 242.395 20.6003 242.395 20.9341C242.395 21.2685 242.665 21.538 242.999 21.538H245.966C246.211 21.538 246.431 21.3907 246.524 21.1656C246.617 20.94 246.566 20.6795 246.393 20.5074L244.633 18.7457C244.519 18.6324 244.366 18.5691 244.206 18.5691H240.333C240.172 18.5691 240.019 18.6324 239.906 18.7457L235.831 22.8227C235.659 22.9953 235.607 23.2558 235.7 23.4809C235.793 23.7065 236.014 23.8541 236.258 23.8541H252.859C253.103 23.8541 253.324 23.7065 253.417 23.4809C253.51 23.2558 253.458 22.9953 253.286 22.8227L246.242 15.7759C246.129 15.6626 245.975 15.5988 245.815 15.5988H243.918V13.8928H245.815C245.975 13.8928 246.129 13.8294 246.242 13.7161L253.286 6.66836C253.458 6.49633 253.51 6.23541 253.417 6.01019C253.324 5.7851 253.103 5.63747 252.859 5.63747H236.258C236.014 5.63747 235.793 5.7851 235.7 6.01019C235.607 6.23541 235.659 6.49633 235.831 6.66836L239.906 10.7454C240.019 10.8587 240.172 10.9226 240.333 10.9226H244.206C244.366 10.9226 244.52 10.8586 244.633 10.7454L246.393 8.98416C246.565 8.81213 246.617 8.55121 246.524 8.32599C246.431 8.10052 246.211 7.95327 245.966 7.95327H242.999C242.665 7.95327 242.395 8.22375 242.395 8.55711C242.395 8.89098 242.665 9.16147 242.999 9.16147H244.509L243.956 9.71451H240.583L237.715 6.84567H251.401L245.565 12.6848H238.821L230.269 4.12772H258.165L247.726 14.5725L247.725 14.5723ZM259.19 25.1897L259.512 24.5148L260.091 23.2962L258.872 23.8765L258.198 24.1973L258.136 24.1352L258.457 23.4598L259.036 22.2416L257.818 22.822L257.144 23.1428L257.082 23.0808L257.403 22.4066L257.983 21.1881L256.764 21.7675L256.091 22.0881L256.028 22.0256L256.349 21.3521L256.929 20.1335L255.71 20.7128L255.038 21.0348L254.974 20.972L255.295 20.2974L255.875 19.0788L254.656 19.6591L253.984 19.9804L253.92 19.9174L254.241 19.2429L254.821 18.0239L253.603 18.6047L252.93 18.9259L252.868 18.863L253.188 18.1898L253.767 16.9694L252.549 17.5502L251.876 17.8714L249.006 14.9999L252.039 11.9652L252.549 12.2089L253.767 12.7892L253.188 11.5688L252.944 11.0588L253.093 10.9106L253.603 11.154L254.821 11.7347L254.241 10.5157L253.998 10.0047L254.147 9.85623L254.656 10.0994L255.875 10.6803L255.295 9.46113L255.052 8.9502L255.201 8.80169L255.71 9.0459L256.929 9.62523L256.349 8.40659L256.106 7.89555L256.254 7.74842L256.764 7.99124L257.983 8.57057L257.403 7.35194L257.16 6.84101L257.308 6.69376L257.818 6.93658L259.036 7.51691L258.457 6.29879L258.214 5.78786L258.362 5.63935L258.872 5.88217L260.09 6.46251L259.511 5.24425L259.267 4.73333L262.967 1.0314C263.141 0.859371 263.193 0.598443 263.098 0.373226C263.005 0.148135 262.785 0 262.541 0H227.509C227.348 0 227.195 0.0640106 227.082 0.177185L214.879 12.3868L213.92 11.4278L224.312 1.03152C224.485 0.8595 224.537 0.598566 224.443 0.373349C224.35 0.148258 224.129 0.000128942 223.885 0.000128942H188.26C188.016 0.000128942 187.795 0.148258 187.702 0.373349C187.608 0.598566 187.659 0.8595 187.833 1.03152L198.224 11.4278L197.266 12.3868L185.063 0.177185C184.95 0.0638848 184.797 0 184.636 0H149.604C149.36 0 149.14 0.148135 149.047 0.373226C148.952 0.598443 149.004 0.859371 149.177 1.0314L152.877 4.73333L152.633 5.24425L152.054 6.46251L153.273 5.88217L153.783 5.63935L153.931 5.78786L153.688 6.29879L153.109 7.51691L154.327 6.93658L154.837 6.69376L154.985 6.84101L154.742 7.35194L154.162 8.57057L155.381 7.99124L155.891 7.74842L156.039 7.89555L155.796 8.40659L155.216 9.62523L156.435 9.0459L156.944 8.80169L157.093 8.9502L156.85 9.46113L156.269 10.6803L157.489 10.0994L157.998 9.85623L158.147 10.0047L157.904 10.5157L157.324 11.7347L158.542 11.154L159.052 10.9106L159.201 11.0588L158.957 11.5688L158.378 12.7892L159.596 12.2089L160.107 11.9652L163.139 14.9999L160.269 17.8714L159.596 17.5502L158.378 16.9694L158.957 18.1898L159.278 18.863L159.215 18.9259L158.542 18.6047L157.324 18.0239L157.904 19.2429L158.225 19.9174L158.161 19.9804L157.489 19.6591L156.27 19.0788L156.85 20.2974L157.171 20.972L157.107 21.0348L156.435 20.7128L155.216 20.1335L155.796 21.3521L156.117 22.0256L156.054 22.0881L155.381 21.7675L154.162 21.1881L154.742 22.4066L155.063 23.0808L155.001 23.1428L154.327 22.822L153.109 22.2416L153.688 23.4598L154.009 24.1352L153.947 24.1973L153.273 23.8765L152.055 23.2962L152.634 24.5148L152.956 25.1897L149.177 28.9696C149.004 29.1413 148.953 29.4022 149.047 29.6278C149.139 29.8529 149.36 30 149.603 30H184.635C184.796 30 184.95 29.9361 185.063 29.823L197.267 17.6124L198.225 18.5714L187.832 28.9696C187.66 29.1413 187.608 29.4022 187.702 29.6278C187.794 29.8529 188.016 30 188.259 30H223.887C224.129 30 224.351 29.8529 224.443 29.6278C224.537 29.4022 224.486 29.1413 224.313 28.9696L213.921 18.5714L214.878 17.6124L227.083 29.823C227.196 29.9363 227.35 30 227.51 30H262.542C262.785 30 263.007 29.8529 263.099 29.6278C263.193 29.4022 263.141 29.1413 262.969 28.9696L259.19 25.1897H259.19Z" fill="#C6B89E"/>
<path d="M228.229 14.3943C228.223 14.4296 228.208 14.4613 228.208 14.4979V15.5987H226.999V14.4979C226.999 14.4613 226.985 14.4296 226.978 14.3943H228.229H228.229ZM234.341 14.3943V15.5987H229.415V14.4979C229.415 14.4613 229.4 14.4296 229.394 14.3943H234.34H234.341ZM233.392 18.1844C233.301 17.9593 233.079 17.8117 232.836 17.8117H224.384C224.14 17.8117 223.92 17.9593 223.826 18.1844C223.733 18.4096 223.785 18.6705 223.957 18.8426L226.322 21.2082C226.558 21.4438 226.94 21.4438 227.176 21.2082C227.412 20.9717 227.412 20.5898 227.176 20.3538L225.841 19.0197H231.378L226.95 23.4505L220.308 16.8064H234.944C235.278 16.8064 235.548 16.5364 235.548 16.2026V13.7905C235.548 13.4561 235.278 13.1861 234.944 13.1861H220.308L226.95 6.54252L231.378 10.9733H225.841L227.176 9.63909C227.412 9.40268 227.412 9.02041 227.176 8.78475C226.94 8.54872 226.558 8.54872 226.322 8.78475L223.957 11.1503C223.785 11.3225 223.733 11.5829 223.826 11.8085C223.919 12.0336 224.14 12.1809 224.384 12.1809H232.836C233.079 12.1809 233.301 12.0336 233.392 11.8085C233.487 11.5829 233.435 11.3225 233.262 11.1503L227.376 5.26139C227.141 5.02485 226.759 5.02485 226.523 5.26139L218.423 13.3628C218.25 13.5353 218.198 13.7957 218.292 14.0213C218.386 14.2469 218.607 14.3942 218.851 14.3942H225.813C225.806 14.4295 225.792 14.4612 225.792 14.4978V15.5986H218.851C218.607 15.5986 218.385 15.7457 218.292 15.9709C218.198 16.1965 218.25 16.457 218.423 16.6291L226.523 24.7314C226.641 24.8496 226.794 24.9086 226.949 24.9086C227.103 24.9086 227.259 24.8496 227.376 24.7314L233.262 18.8424C233.435 18.6704 233.486 18.4095 233.392 18.1843L233.392 18.1844Z" fill="#C6B89E"/>
<path d="M207.433 13.2386C207.377 13.2952 207.332 13.3622 207.302 13.4356C207.271 13.5099 207.255 13.5878 207.255 13.6666V14.3933H204.89V13.6666C204.89 13.5878 204.875 13.5099 204.844 13.4356C204.813 13.3622 204.769 13.2952 204.712 13.2386L202.852 11.3772L206.072 8.15358L209.294 11.3772L207.433 13.2386H207.433ZM209.294 18.4928L206.073 21.7155L202.852 18.4928L204.713 16.6297C204.826 16.5164 204.89 16.3632 204.89 16.2029V15.6015H207.255V16.2029C207.255 16.3632 207.319 16.5165 207.432 16.6297L209.294 18.4928ZM210.574 11.8038C210.811 11.5683 210.811 11.1859 210.574 10.9495L206.198 6.57077C206.16 6.53418 206.115 6.5128 206.073 6.48828C206.03 6.5128 205.986 6.53418 205.948 6.57077L201.571 10.9495C201.335 11.1859 201.335 11.5683 201.571 11.8038L203.683 13.9167V15.9528L201.571 18.0656C201.335 18.3017 201.335 18.684 201.571 18.9196L205.948 23.2987C205.986 23.3353 206.03 23.3567 206.073 23.3816C206.115 23.3567 206.16 23.3353 206.198 23.2987L210.574 18.9196C210.811 18.684 210.811 18.3017 210.574 18.0656L208.463 15.9528V13.9167L210.574 11.8038Z" fill="#C6B89E"/>
<path d="M278.627 14.9995L270.854 22.7761L263.082 14.9995L270.854 7.22282L278.627 14.9995ZM261.801 14.5724C261.565 14.8084 261.565 15.1907 261.801 15.4263L270.854 24.484L279.907 15.4263C280.143 15.1907 280.143 14.8084 279.907 14.5724L270.854 5.51465L261.801 14.5724Z" fill="#C6B89E"/>
<path d="M275.002 14.9998L270.854 19.1498L266.706 14.9998L270.854 10.8498L275.002 14.9998ZM265.426 14.5726C265.19 14.8086 265.19 15.1909 265.426 15.4266L270.854 20.8581L276.283 15.4266C276.519 15.1909 276.519 14.8086 276.283 14.5726L270.854 9.14111L265.426 14.5726Z" fill="#C6B89E"/>
<path d="M270.854 26.4027L259.457 14.9999L270.854 3.59697L282.251 14.9999L270.854 26.4027ZM283.532 14.5726L270.854 1.88867L258.177 14.5726C257.941 14.8087 257.941 15.1909 258.177 15.4266L270.854 28.1105L283.532 15.4266C283.768 15.1909 283.768 14.8087 283.532 14.5726Z" fill="#C6B89E"/>
<path d="M407.627 14.9995L399.854 22.7761L392.082 14.9995L399.854 7.22282L407.627 14.9995ZM390.801 14.5724C390.565 14.8084 390.565 15.1907 390.801 15.4263L399.854 24.484L408.907 15.4263C409.143 15.1907 409.143 14.8084 408.907 14.5724L399.854 5.51465L390.801 14.5724Z" fill="#C6B89E"/>
<path d="M404.002 14.9998L399.854 19.1498L395.706 14.9998L399.854 10.8498L404.002 14.9998ZM394.426 14.5726C394.19 14.8086 394.19 15.1909 394.426 15.4266L399.854 20.8581L405.283 15.4266C405.519 15.1909 405.519 14.8086 405.283 14.5726L399.854 9.14111L394.426 14.5726Z" fill="#C6B89E"/>
<path d="M399.854 26.4027L388.457 14.9999L399.854 3.59697L411.251 14.9999L399.854 26.4027ZM412.532 14.5726L399.854 1.88867L387.177 14.5726C386.941 14.8087 386.941 15.1909 387.177 15.4266L399.854 28.1105L412.532 15.4266C412.768 15.1909 412.768 14.8087 412.532 14.5726Z" fill="#C6B89E"/>
<path d="M20.6268 15.1109L12.854 22.8874L5.08175 15.1109L12.854 7.33415L20.6268 15.1109ZM3.80124 14.6837C3.56495 14.9197 3.56495 15.302 3.80124 15.5377L12.854 24.5954L21.9072 15.5377C22.1431 15.302 22.1431 14.9197 21.9072 14.6837L12.854 5.62598L3.80124 14.6837Z" fill="#C6B89E"/>
<path d="M17.0023 15.1111L12.8539 19.2611L8.70595 15.1111L12.8539 10.9611L17.0023 15.1111ZM7.42571 14.6839C7.1898 14.92 7.1898 15.3022 7.42571 15.5379L12.854 20.9694L18.2828 15.5379C18.5187 15.3022 18.5187 14.92 18.2828 14.6839L12.854 9.25244L7.42571 14.6839Z" fill="#C6B89E"/>
<path d="M12.8542 26.5141L1.45702 15.1112L12.8542 3.7083L24.2515 15.1112L12.8542 26.5141ZM25.5319 14.684L12.8542 2L0.176653 14.684C-0.0588844 14.92 -0.0588844 15.3023 0.176653 15.5379L12.8542 28.2219L25.5319 15.5379C25.7683 15.3023 25.7683 14.92 25.5319 14.684Z" fill="#C6B89E"/>
<path d="M314.146 14.498V15.5988H312.937V14.498C312.937 14.4614 312.922 14.4298 312.916 14.3944H314.168C314.161 14.4298 314.146 14.4614 314.146 14.498ZM311.73 14.498V15.5988H306.805V14.3944H311.751C311.746 14.4298 311.73 14.4614 311.73 14.498ZM322.852 14.0216C322.947 13.796 322.895 13.5356 322.722 13.363L314.622 5.26163C314.387 5.02509 314.005 5.02509 313.768 5.26163L307.882 11.1506C307.71 11.3227 307.659 11.5832 307.753 11.8088C307.845 12.0339 308.067 12.1811 308.31 12.1811H316.761C317.005 12.1811 317.226 12.0339 317.319 11.8088C317.412 11.5832 317.36 11.3227 317.188 11.1506L314.822 8.785C314.587 8.54897 314.205 8.54897 313.969 8.785C313.733 9.02065 313.733 9.40293 313.969 9.63934L315.304 10.9735H309.767L314.196 6.54276L320.838 13.1863H306.201C305.868 13.1863 305.597 13.4562 305.597 13.7907V16.2028C305.597 16.5367 305.868 16.8067 306.201 16.8067H320.838L314.196 23.4508L309.767 19.02H315.304L313.969 20.3541C313.733 20.5901 313.733 20.972 313.969 21.2084C314.205 21.444 314.587 21.444 314.822 21.2084L317.188 18.8428C317.36 18.6708 317.412 18.4098 317.319 18.1846C317.226 17.9595 317.005 17.8119 316.761 17.8119H308.31C308.067 17.8119 307.845 17.9595 307.753 18.1846C307.659 18.4098 307.71 18.6708 307.882 18.8428L313.768 24.7318C313.886 24.85 314.042 24.9089 314.196 24.9089C314.351 24.9089 314.504 24.85 314.622 24.7318L322.722 16.6295C322.895 16.4573 322.947 16.1969 322.852 15.9713C322.76 15.7461 322.539 15.599 322.295 15.599H315.353V14.4982C315.353 14.4616 315.339 14.4299 315.332 14.3945H322.294C322.539 14.3945 322.759 14.2473 322.852 14.0217L322.852 14.0216Z" fill="#C6B89E"/>
<path d="M356.76 28.7923L344.732 16.7585L346.064 15.4263C346.3 15.1906 346.3 14.8084 346.064 14.5723L344.733 13.2405L356.759 1.20757H390.084L388.361 2.93122C388.34 2.92895 388.321 2.9194 388.3 2.9194H357.812C357.568 2.9194 357.347 3.06703 357.254 3.29224C357.16 3.51733 357.212 3.77827 357.385 3.95042L367.144 13.716C367.257 13.8293 367.411 13.8927 367.571 13.8927H369.295V15.5987H367.571C367.411 15.5987 367.257 15.6626 367.144 15.7757L357.385 25.5406C357.212 25.7131 357.16 25.9736 357.254 26.1987C357.347 26.4243 357.568 26.572 357.812 26.572H387.866L390.085 28.7921H356.76L356.76 28.7923ZM342.975 14.9995L343.879 14.0949L344.783 14.9995L343.879 15.9041L342.975 14.9995ZM342.067 17.7174L339.35 14.9995L342.067 12.2814L343.026 13.2404L341.694 14.5722C341.459 14.8082 341.459 15.1905 341.694 15.4262L343.026 16.7584L342.067 17.7173V17.7174ZM351.429 28.7923H347.507L347.217 27.9733L346.767 26.7019L346.314 27.9733L346.024 28.7923H346.017L345.727 27.9733L345.276 26.7019L344.823 27.9733L344.534 28.7923H344.526L344.236 27.9733L343.786 26.7019L343.333 27.9733L343.043 28.7923H343.036L342.746 27.9733L342.296 26.7019L341.843 27.9733L341.553 28.7923H341.546L341.255 27.9733L340.805 26.7019L340.352 27.9733L340.062 28.7923H340.055L339.765 27.9733L339.314 26.7019L338.862 27.9733L338.572 28.7923H338.565L338.274 27.9733L337.824 26.7019L337.371 27.9733L337.147 28.6071V26.9508L342.121 21.9416L344.726 24.5617H342.037L342.317 24.3126C342.564 24.0912 342.586 23.7089 342.364 23.4595C342.142 23.2113 341.76 23.1909 341.513 23.4115L340.053 24.7153C339.866 24.8825 339.802 25.147 339.89 25.3809C339.979 25.6151 340.204 25.7699 340.455 25.7699H346.178C346.422 25.7699 346.641 25.6237 346.736 25.3985C346.829 25.1729 346.778 24.9133 346.606 24.7403L342.548 20.6597C342.434 20.5452 342.281 20.4813 342.121 20.4813C341.959 20.4813 341.805 20.5453 341.691 20.6597L336.116 26.2761C336.004 26.3894 335.94 26.5424 335.94 26.7019V28.7923H334.204V26.7019C334.204 26.5424 334.14 26.3894 334.029 26.2761L328.453 20.6597C328.339 20.5452 328.185 20.4813 328.023 20.4813C327.863 20.4813 327.71 20.5453 327.596 20.6597L323.538 24.7403C323.366 24.9134 323.315 25.1729 323.408 25.3985C323.503 25.6237 323.722 25.7699 323.966 25.7699H329.689C329.94 25.7699 330.165 25.615 330.254 25.3809C330.343 25.147 330.278 24.8825 330.092 24.7153L328.632 23.4115C328.384 23.1909 328.002 23.2113 327.781 23.4595C327.559 23.7088 327.58 24.0911 327.828 24.3126L328.107 24.5617H325.418L328.023 21.9416L332.997 26.9508V28.6071L332.773 27.9733L332.32 26.7019L331.87 27.9733L331.58 28.7923H331.573L331.283 27.9733L330.83 26.7019L330.379 27.9733L330.089 28.7923H330.082L329.792 27.9733L329.339 26.7019L328.889 27.9733L328.599 28.7923H328.592L328.302 27.9733L327.849 26.7019L327.398 27.9733L327.108 28.7923H327.101L326.811 27.9733L326.358 26.7019L325.908 27.9733L325.618 28.7923H325.611L325.321 27.9733L324.868 26.7019L324.418 27.9733L324.128 28.7923H324.121L323.83 27.9733L323.378 26.7019L322.927 27.9733L322.637 28.7923H318.715L328.077 19.4252L335.072 26.4232L342.066 19.4252L351.429 28.7923H351.429ZM327.12 16.7585L328.451 15.4263C328.687 15.1906 328.687 14.8084 328.451 14.5723L327.12 13.2405L328.078 12.2816L330.795 14.9996L328.078 17.7176L327.12 16.7586V16.7585ZM326.266 15.9041L325.361 14.9995L326.266 14.0949L327.17 14.9995L326.266 15.9041ZM313.386 28.7923H280.061L282.279 26.5722H312.333C312.578 26.5722 312.798 26.4246 312.891 26.199C312.986 25.9739 312.934 25.7133 312.76 25.5408L303.001 15.776C302.888 15.6627 302.735 15.5989 302.574 15.5989H300.85V13.8929H302.574C302.735 13.8929 302.888 13.8295 303.001 13.7162L312.76 3.95067C312.934 3.77852 312.986 3.51759 312.891 3.29249C312.798 3.06728 312.578 2.91965 312.333 2.91965H281.846C281.825 2.91965 281.806 2.9292 281.784 2.93147L280.062 1.20783H313.387L325.412 13.2408L324.081 14.5726C323.845 14.8086 323.845 15.1909 324.081 15.4265L325.413 16.7587L313.386 28.7926L313.386 28.7923ZM299.643 13.8928V15.5988H298.434V13.8928H299.643ZM293.42 15.4263C293.655 15.1906 293.655 14.8084 293.42 14.5723L282.98 4.1276H310.876L302.324 12.6847H295.579L289.743 6.84554H303.43L300.562 9.71438H297.189L296.636 9.16134H298.146C298.48 9.16134 298.75 8.89085 298.75 8.55699C298.75 8.2235 298.48 7.95314 298.146 7.95314H295.179C294.935 7.95314 294.714 8.10039 294.621 8.32586C294.528 8.55108 294.579 8.81201 294.752 8.98403L296.512 10.7453C296.626 10.8586 296.779 10.9225 296.939 10.9225H300.812C300.973 10.9225 301.126 10.8584 301.239 10.7453L305.314 6.66824C305.486 6.49621 305.538 6.23528 305.445 6.01006C305.352 5.78497 305.131 5.63734 304.887 5.63734H288.285C288.041 5.63734 287.821 5.78497 287.728 6.01006C287.635 6.23528 287.687 6.49621 287.859 6.66824L294.903 13.716C295.016 13.8293 295.169 13.8927 295.33 13.8927H297.227V15.5987H295.33C295.169 15.5987 295.016 15.6626 294.903 15.7757L287.859 22.8226C287.687 22.9951 287.635 23.2557 287.728 23.4808C287.821 23.7064 288.041 23.854 288.285 23.854H304.887C305.131 23.854 305.352 23.7064 305.445 23.4808C305.538 23.2557 305.486 22.9951 305.314 22.8226L301.239 18.7456C301.126 18.6323 300.973 18.569 300.812 18.569H296.939C296.779 18.569 296.625 18.6323 296.512 18.7456L294.752 20.5073C294.58 20.6793 294.528 20.9399 294.621 21.1655C294.714 21.3906 294.935 21.5378 295.179 21.5378H298.146C298.48 21.5378 298.75 21.2683 298.75 20.934C298.75 20.6001 298.48 20.3303 298.146 20.3303H296.636L297.189 19.7771H300.562L303.43 22.6461H289.743L295.579 16.8064H302.324L310.876 25.364H283.487L293.42 15.4262V15.4263ZM338.069 15.4263L341.213 18.5714L335.072 24.7154L328.932 18.5714L332.075 15.4263C332.311 15.1906 332.311 14.8084 332.075 14.5723L328.932 11.4272L335.072 5.28311L341.213 11.4272L338.069 14.5723C337.834 14.8084 337.834 15.1906 338.069 15.4263ZM318.717 1.20757H322.619L322.928 2.07965L323.378 3.3511L323.831 2.07965L324.123 1.25159L324.418 2.07965L324.868 3.3511L325.321 2.07965L325.614 1.25159L325.909 2.07965L326.359 3.3511L326.812 2.07965L327.104 1.25159L327.399 2.07965L327.85 3.3511L328.302 2.07965L328.594 1.25159L328.89 2.07965L329.34 3.3511L329.792 2.07965L330.085 1.25159L330.38 2.07965L330.83 3.3511L331.283 2.07965L331.575 1.25159L331.87 2.07965L332.321 3.3511L332.774 2.07965L332.997 1.44637V3.10261L328.024 8.11133L325.418 5.49122H328.108L327.829 5.73983C327.581 5.96228 327.56 6.34418 327.781 6.59291C328.003 6.84202 328.385 6.8634 328.632 6.64183L330.092 5.33806C330.279 5.16993 330.344 4.90598 330.255 4.67259C330.165 4.43744 329.941 4.28302 329.69 4.28302H323.967C323.723 4.28302 323.503 4.42977 323.409 4.65487C323.316 4.88008 323.367 5.13963 323.538 5.31304L327.597 9.3936C327.71 9.50828 327.864 9.57166 328.024 9.57166C328.186 9.57166 328.34 9.50828 328.453 9.3936L334.029 3.77688C334.141 3.66371 334.205 3.51017 334.205 3.3511V1.20757H335.94V3.3511C335.94 3.51017 336.004 3.66383 336.117 3.77688L341.692 9.3936C341.805 9.50828 341.96 9.57166 342.121 9.57166C342.282 9.57166 342.435 9.50828 342.548 9.3936L346.607 5.31304C346.779 5.1395 346.83 4.88008 346.736 4.65487C346.642 4.42977 346.423 4.28302 346.178 4.28302H340.455C340.204 4.28302 339.98 4.43744 339.891 4.67259C339.802 4.90586 339.867 5.16993 340.053 5.33806L341.513 6.64183C341.761 6.86327 342.143 6.84202 342.364 6.59291C342.586 6.34418 342.565 5.96228 342.317 5.73983L342.038 5.49122H344.727L342.121 8.11133L337.148 3.10261V1.44637L337.372 2.07965L337.825 3.3511L338.275 2.07965L338.57 1.25159L338.862 2.07965L339.315 3.3511L339.766 2.07965L340.061 1.25159L340.353 2.07965L340.806 3.3511L341.256 2.07965L341.551 1.25159L341.843 2.07965L342.296 3.3511L342.746 2.07965L343.042 1.25159L343.334 2.07965L343.786 3.3511L344.237 2.07965L344.532 1.25159L344.824 2.07965L345.277 3.3511L345.727 2.07965L346.022 1.25159L346.315 2.07965L346.768 3.3511L347.217 2.07965L347.527 1.20757H351.428L342.067 10.5734L335.073 3.57543L328.079 10.5734L318.717 1.20757H318.717ZM370.502 15.5988V13.8928H371.71V15.5988H370.502ZM376.725 14.5723C376.489 14.8084 376.489 15.1906 376.725 15.4263L386.658 25.3641H359.269L367.821 16.8065H374.565L380.401 22.6462H366.715L369.583 19.7772H372.956L373.509 20.3304H371.999C371.664 20.3304 371.395 20.6003 371.395 20.9341C371.395 21.2685 371.664 21.538 371.999 21.538H374.966C375.21 21.538 375.431 21.3907 375.524 21.1656C375.617 20.94 375.565 20.6795 375.393 20.5074L373.633 18.7457C373.519 18.6324 373.366 18.5691 373.206 18.5691H369.332C369.173 18.5691 369.019 18.6324 368.906 18.7457L364.831 22.8227C364.659 22.9953 364.607 23.2558 364.7 23.4809C364.793 23.7065 365.013 23.8541 365.257 23.8541H381.859C382.103 23.8541 382.324 23.7065 382.417 23.4809C382.51 23.2558 382.458 22.9953 382.286 22.8227L375.242 15.7759C375.129 15.6626 374.975 15.5988 374.815 15.5988H372.918V13.8928H374.815C374.975 13.8928 375.129 13.8294 375.242 13.7161L382.286 6.66836C382.458 6.49633 382.51 6.23541 382.417 6.01019C382.324 5.7851 382.103 5.63747 381.859 5.63747H365.257C365.013 5.63747 364.793 5.7851 364.7 6.01019C364.607 6.23541 364.659 6.49633 364.831 6.66836L368.906 10.7454C369.019 10.8587 369.173 10.9226 369.332 10.9226H373.206C373.366 10.9226 373.519 10.8586 373.633 10.7454L375.393 8.98416C375.565 8.81213 375.617 8.55121 375.524 8.32599C375.431 8.10052 375.21 7.95327 374.966 7.95327H371.999C371.664 7.95327 371.395 8.22375 371.395 8.55711C371.395 8.89098 371.664 9.16147 371.999 9.16147H373.509L372.956 9.71451H369.583L366.715 6.84567H380.401L374.565 12.6848H367.821L359.269 4.12772H387.165L376.725 14.5725L376.725 14.5723ZM388.19 25.1897L388.511 24.5148L389.091 23.2962L387.872 23.8765L387.198 24.1973L387.137 24.1352L387.457 23.4598L388.037 22.2416L386.818 22.822L386.144 23.1428L386.083 23.0808L386.403 22.4066L386.983 21.1881L385.764 21.7675L385.091 22.0881L385.029 22.0256L385.349 21.3521L385.929 20.1335L384.71 20.7128L384.038 21.0348L383.975 20.972L384.295 20.2974L384.875 19.0788L383.656 19.6591L382.984 19.9804L382.921 19.9174L383.241 19.2429L383.821 18.0239L382.604 18.6047L381.93 18.9259L381.868 18.863L382.189 18.1898L382.767 16.9694L381.55 17.5502L380.876 17.8714L378.006 14.9999L381.039 11.9652L381.55 12.2089L382.767 12.7892L382.189 11.5688L381.944 11.0588L382.093 10.9106L382.604 11.154L383.821 11.7347L383.241 10.5157L382.998 10.0047L383.147 9.85623L383.656 10.0994L384.875 10.6803L384.295 9.46113L384.052 8.9502L384.201 8.80169L384.71 9.0459L385.929 9.62523L385.349 8.40659L385.106 7.89555L385.254 7.74842L385.764 7.99124L386.983 8.57057L386.403 7.35194L386.16 6.84101L386.307 6.69376L386.818 6.93658L388.037 7.51691L387.457 6.29879L387.214 5.78786L387.361 5.63935L387.872 5.88217L389.091 6.46251L388.511 5.24425L388.267 4.73333L391.967 1.0314C392.141 0.859371 392.192 0.598443 392.098 0.373226C392.005 0.148135 391.785 0 391.541 0H356.509C356.348 0 356.194 0.0640106 356.081 0.177185L343.879 12.3868L342.92 11.4278L353.312 1.03152C353.485 0.8595 353.537 0.598566 353.442 0.373349C353.35 0.148258 353.129 0.000128942 352.885 0.000128942H317.259C317.015 0.000128942 316.795 0.148258 316.702 0.373349C316.608 0.598566 316.659 0.8595 316.833 1.03152L327.224 11.4278L326.265 12.3868L314.063 0.177185C313.95 0.0638848 313.797 0 313.636 0H278.604C278.36 0 278.14 0.148135 278.047 0.373226C277.952 0.598443 278.004 0.859371 278.177 1.0314L281.877 4.73333L281.634 5.24425L281.054 6.46251L282.272 5.88217L282.783 5.63935L282.93 5.78786L282.688 6.29879L282.109 7.51691L283.327 6.93658L283.837 6.69376L283.984 6.84101L283.742 7.35194L283.162 8.57057L284.381 7.99124L284.891 7.74842L285.038 7.89555L284.796 8.40659L284.216 9.62523L285.434 9.0459L285.944 8.80169L286.092 8.9502L285.85 9.46113L285.269 10.6803L286.488 10.0994L286.998 9.85623L287.146 10.0047L286.904 10.5157L286.324 11.7347L287.542 11.154L288.052 10.9106L288.201 11.0588L287.957 11.5688L287.378 12.7892L288.596 12.2089L289.106 11.9652L292.139 14.9999L289.269 17.8714L288.596 17.5502L287.378 16.9694L287.957 18.1898L288.278 18.863L288.215 18.9259L287.542 18.6047L286.324 18.0239L286.904 19.2429L287.224 19.9174L287.161 19.9804L286.489 19.6591L285.27 19.0788L285.85 20.2974L286.17 20.972L286.107 21.0348L285.435 20.7128L284.216 20.1335L284.796 21.3521L285.116 22.0256L285.054 22.0881L284.381 21.7675L283.162 21.1881L283.742 22.4066L284.062 23.0808L284.001 23.1428L283.327 22.822L282.109 22.2416L282.688 23.4598L283.008 24.1352L282.947 24.1973L282.272 23.8765L281.055 23.2962L281.634 24.5148L281.956 25.1897L278.176 28.9696C278.004 29.1413 277.952 29.4022 278.047 29.6278C278.139 29.8529 278.36 30 278.603 30H313.635C313.796 30 313.949 29.9361 314.062 29.823L326.267 17.6124L327.224 18.5714L316.832 28.9696C316.66 29.1413 316.608 29.4022 316.702 29.6278C316.794 29.8529 317.016 30 317.259 30H352.887C353.129 30 353.351 29.8529 353.443 29.6278C353.537 29.4022 353.485 29.1413 353.313 28.9696L342.921 18.5714L343.878 17.6124L356.083 29.823C356.196 29.9363 356.349 30 356.51 30H391.542C391.785 30 392.006 29.8529 392.098 29.6278C392.193 29.4022 392.141 29.1413 391.969 28.9696L388.19 25.1897H388.19Z" fill="#C6B89E"/>
<path d="M357.229 14.3943C357.223 14.4296 357.208 14.4613 357.208 14.4979V15.5987H355.999V14.4979C355.999 14.4613 355.985 14.4296 355.978 14.3943H357.229H357.229ZM363.34 14.3943V15.5987H358.415V14.4979C358.415 14.4613 358.4 14.4296 358.394 14.3943H363.34H363.34ZM362.392 18.1844C362.3 17.9593 362.079 17.8117 361.836 17.8117H353.384C353.14 17.8117 352.919 17.9593 352.826 18.1844C352.733 18.4096 352.785 18.6705 352.957 18.8426L355.322 21.2082C355.558 21.4438 355.94 21.4438 356.176 21.2082C356.412 20.9717 356.412 20.5898 356.176 20.3538L354.841 19.0197H360.379L355.95 23.4505L349.308 16.8064H363.944C364.278 16.8064 364.548 16.5364 364.548 16.2026V13.7905C364.548 13.4561 364.278 13.1861 363.944 13.1861H349.308L355.95 6.54252L360.379 10.9733H354.841L356.176 9.63909C356.412 9.40268 356.412 9.02041 356.176 8.78475C355.94 8.54872 355.558 8.54872 355.322 8.78475L352.957 11.1503C352.785 11.3225 352.733 11.5829 352.826 11.8085C352.919 12.0336 353.14 12.1809 353.384 12.1809H361.836C362.079 12.1809 362.3 12.0336 362.392 11.8085C362.487 11.5829 362.435 11.3225 362.263 11.1503L356.377 5.26139C356.141 5.02485 355.759 5.02485 355.523 5.26139L347.423 13.3628C347.25 13.5353 347.198 13.7957 347.292 14.0213C347.386 14.2469 347.606 14.3942 347.85 14.3942H354.813C354.806 14.4295 354.792 14.4612 354.792 14.4978V15.5986H347.85C347.606 15.5986 347.386 15.7457 347.292 15.9709C347.198 16.1965 347.25 16.457 347.423 16.6291L355.523 24.7314C355.641 24.8496 355.794 24.9086 355.949 24.9086C356.102 24.9086 356.258 24.8496 356.376 24.7314L362.262 18.8424C362.434 18.6704 362.487 18.4095 362.392 18.1843L362.392 18.1844Z" fill="#C6B89E"/>
<path d="M336.433 13.2386C336.377 13.2952 336.332 13.3622 336.301 13.4356C336.271 13.5099 336.255 13.5878 336.255 13.6666V14.3933H333.89V13.6666C333.89 13.5878 333.875 13.5099 333.844 13.4356C333.813 13.3622 333.768 13.2952 333.712 13.2386L331.851 11.3772L335.072 8.15358L338.294 11.3772L336.433 13.2386H336.433ZM338.294 18.4928L335.073 21.7155L331.851 18.4928L333.713 16.6297C333.826 16.5164 333.89 16.3632 333.89 16.2029V15.6015H336.255V16.2029C336.255 16.3632 336.319 16.5165 336.432 16.6297L338.294 18.4928ZM339.574 11.8038C339.81 11.5683 339.81 11.1859 339.574 10.9495L335.197 6.57077C335.16 6.53418 335.115 6.5128 335.073 6.48828C335.03 6.5128 334.985 6.53418 334.948 6.57077L330.571 10.9495C330.335 11.1859 330.335 11.5683 330.571 11.8038L332.683 13.9167V15.9528L330.571 18.0656C330.335 18.3017 330.335 18.684 330.571 18.9196L334.948 23.2987C334.985 23.3353 335.03 23.3567 335.073 23.3816C335.115 23.3567 335.16 23.3353 335.197 23.2987L339.574 18.9196C339.81 18.684 339.81 18.3017 339.574 18.0656L337.463 15.9528V13.9167L339.574 11.8038Z" fill="#C6B89E"/>
</svg>
