<svg width="80" height="80" viewBox="0 0 80 80" fill="none" xmlns="http://www.w3.org/2000/svg">
<path d="M66.9271 17.0053C65.1432 12.973 62.3086 10.0847 58.7143 8.62953C55.7027 4.42219 50.4858 1.52266 43.9749 0.44891C38.4483 -0.46234 32.4419 0.0357849 28.3002 1.74938C24.2421 3.42844 20.786 5.9261 18.0278 9.17328C17.6088 9.66657 17.6689 10.4061 18.1622 10.825C18.6553 11.2442 19.3952 11.1838 19.8139 10.6906C22.3289 7.73016 25.4855 5.45047 29.1961 3.91532C32.9 2.38282 38.5508 1.93016 43.5935 2.76157C49.6203 3.75547 54.3775 6.41547 56.9883 10.2516C57.1246 10.4517 57.3194 10.6048 57.5463 10.6898C60.7461 11.8877 63.1811 14.3316 64.7835 17.9538C67.4974 24.0878 67.355 33.137 64.4296 40.4711C63.0196 44.0058 61.6363 47.1598 60.4158 49.9423C59.6018 51.7986 58.8328 53.5517 58.1314 55.2408C57.8833 55.8384 58.1666 56.5242 58.7644 56.7725C58.9113 56.8336 59.0635 56.8623 59.2133 56.8623C59.6727 56.8623 60.1088 56.5903 60.2961 56.1395C60.9886 54.4719 61.753 52.7289 62.5622 50.8837C63.79 48.0841 65.1819 44.9108 66.6064 41.3394C69.7996 33.3347 69.9255 23.7828 66.9271 17.0053Z" fill="url(#paint0_linear)"/>
<path d="M21.1949 56.3457C19.9121 52.3767 18.2385 48.194 16.1196 42.8984C15.8047 42.1121 15.4813 41.3037 15.1491 40.4709C13.7071 36.8557 13.0539 32.3954 13.31 27.9117C13.5924 22.9679 14.9488 18.2785 17.2325 14.3499C17.5577 13.7904 17.3678 13.0731 16.8083 12.7477C16.2486 12.4226 15.5314 12.6124 15.2061 13.172C9.68783 22.6645 10.1077 34.1588 12.9721 41.3395C13.3046 42.1729 13.6283 42.9821 13.9433 43.7693C16.0456 49.0232 17.7064 53.1732 18.9646 57.0665C19.1249 57.5626 19.5847 57.8782 20.0794 57.8782C20.1989 57.8781 20.3203 57.8596 20.4402 57.821C21.056 57.6223 21.3939 56.9615 21.1949 56.3457Z" fill="url(#paint1_linear)"/>
<path d="M58.5557 30.1826H56.0432V29.0185C56.6024 29.099 57.1785 29.1404 57.7682 29.1404C58.4155 29.1404 58.94 28.6159 58.94 27.9685C58.94 27.3212 58.4155 26.7966 57.7682 26.7966C56.8575 26.7966 55.9941 26.6785 55.2022 26.446C53.7536 26.0195 51.9235 25.0141 51.1144 22.6543C51.8213 21.8526 52.4596 20.9774 53.0139 20.0432C53.7188 18.8599 54.3128 17.5507 54.7797 16.152C54.9847 15.5381 54.653 14.8743 54.0391 14.6695C53.4257 14.4646 52.7613 14.7962 52.5566 15.4101C52.143 16.6496 51.6194 17.8048 50.9994 18.8456C50.4161 19.8287 49.7291 20.7354 48.9579 21.5407C48.183 22.3496 47.3033 23.0762 46.3433 23.7002C45.8007 24.0529 45.6468 24.7787 45.9996 25.3215C46.2241 25.667 46.5997 25.8548 46.9832 25.8548C47.2021 25.8548 47.4235 25.7934 47.6208 25.6652C48.2125 25.2805 48.7774 24.8609 49.3129 24.4116C49.3505 24.4884 49.3888 24.5645 49.4285 24.6395C49.4633 24.7054 49.4996 24.7702 49.536 24.8348C49.5852 24.9221 49.6358 25.0082 49.688 25.0932C49.7268 25.1562 49.7661 25.2187 49.8064 25.2806C49.8611 25.3643 49.9177 25.4465 49.9753 25.5277C50.0172 25.5868 50.0589 25.6459 50.1024 25.7037C50.1636 25.7854 50.2274 25.8649 50.2916 25.944C50.3352 25.9977 50.3782 26.052 50.4232 26.1045C50.4939 26.187 50.5677 26.2666 50.6418 26.346C50.6841 26.3915 50.7252 26.438 50.7686 26.4826C50.8597 26.5759 50.9546 26.6655 51.0505 26.7543C51.0802 26.7818 51.1083 26.8109 51.1385 26.8379C51.2664 26.9527 51.3985 27.0637 51.5343 27.1707C51.5636 27.1938 51.5949 27.2151 51.6246 27.2377C51.7321 27.3199 51.8407 27.4009 51.953 27.4782C52.0035 27.513 52.0561 27.5454 52.1077 27.5791C52.2024 27.6412 52.2974 27.703 52.3952 27.7616C52.4547 27.7973 52.516 27.8309 52.5766 27.8654C52.67 27.9184 52.7641 27.9709 52.8603 28.0207C52.9257 28.0546 52.9922 28.087 53.0589 28.1193C53.1543 28.1657 53.2503 28.2112 53.3482 28.2546C53.4178 28.2855 53.4883 28.3157 53.5593 28.3451C53.6064 28.3646 53.6519 28.3863 53.6997 28.4052V31.3545V40.9107C53.6997 41.0349 53.6943 41.1623 53.6832 41.292C53.6722 41.4215 53.6557 41.5532 53.6338 41.6863C53.6338 41.6868 53.6338 41.6871 53.6336 41.6876C53.1577 44.6062 49.9664 48.1196 45.8741 50.2313C45.7291 50.306 45.583 50.3779 45.4366 50.4485C45.1371 50.593 44.836 50.7291 44.5364 50.8538C43.3177 51.3616 42.1299 51.6899 41.0447 51.8221C40.683 51.8663 40.3327 51.8887 39.9964 51.8887C39.8247 51.8887 39.6496 51.8829 39.4711 51.8713C38.2219 51.7907 36.8144 51.4299 35.3644 50.8159C35.3644 50.8159 35.3643 50.8159 35.3641 50.8157C34.9241 50.629 34.4863 50.4229 34.063 50.2032H34.0627C29.5607 47.8585 26.2933 43.9507 26.2933 40.9107V39.9843V32.6891V28.9604C32.7322 28.4629 36.2577 27.0098 38.1827 25.6187C38.1796 26.162 38.1543 26.7151 38.0889 27.1929C38.0263 27.6141 38.1719 28.043 38.4786 28.3401C38.7863 28.6376 39.22 28.7698 39.6402 28.6935C40.8118 28.4809 41.9393 28.1979 42.9911 27.8527C43.6061 27.651 43.9411 26.989 43.7393 26.374C43.5377 25.7591 42.8758 25.424 42.2605 25.6259C41.7025 25.809 41.1196 25.9729 40.5174 26.1162C40.5511 24.9973 40.4852 23.8684 40.4308 23.1784C40.3891 22.6096 39.9902 22.1321 39.4377 21.9898C38.8852 21.8474 38.305 22.0732 37.9949 22.5498C37.4532 23.3796 34.9189 26.1309 25.0533 26.6955C23.9004 26.7627 22.6632 26.7966 21.3761 26.7966C20.7288 26.7966 20.2043 27.3212 20.2043 27.9685C20.2043 28.6159 20.7288 29.1404 21.3761 29.1404C22.2602 29.1404 23.1196 29.1234 23.9496 29.0924V31.5173H21.2775C18.62 31.5173 16.458 33.6793 16.458 36.3368C16.458 38.9943 18.62 41.1563 21.2775 41.1563H23.9566C24.0293 43.177 24.9925 45.3321 26.7588 47.407C28.0554 48.9302 29.7383 50.3476 31.5961 51.4948C30.7182 52.5543 30.13 53.832 29.8961 55.1909L26.3143 56.4766C22.1682 57.9657 19.3824 61.926 19.3824 66.331V77.8904C19.3824 79.0535 20.3286 79.9998 21.4918 79.9998H58.4029C59.566 79.9998 60.5122 79.0535 60.5122 77.8904V66.331C60.5118 61.9259 57.726 57.9657 53.5797 56.4766L49.9977 55.1907C49.7668 53.8509 49.1913 52.5885 48.3332 51.537C52.0686 49.2666 54.8185 46.109 55.7196 43.0482H57.5758V47.0826C57.5758 47.3252 57.4777 47.5624 57.3069 47.7332L56.3374 48.7018C55.9996 48.569 55.6372 48.4976 55.2632 48.4976C54.4786 48.4976 53.7414 48.8031 53.1869 49.3576L52.3307 50.214C51.776 50.7685 51.4705 51.5059 51.4705 52.2902C51.4705 53.0746 51.776 53.8118 52.3305 54.3663C52.903 54.9387 53.6549 55.2248 54.4066 55.2248C55.1586 55.2248 55.9103 54.9387 56.4828 54.3663L57.3393 53.5099C58.1896 52.6596 58.4069 51.4135 57.9941 50.3596L58.9638 49.3909C59.5711 48.7834 59.9194 47.9421 59.9194 47.0826V42.8634C62.09 42.2665 63.6649 40.2837 63.6649 37.9388V35.292C63.665 32.4746 61.373 30.1826 58.5557 30.1826ZM23.9493 38.8124H21.2772C19.9119 38.8126 18.8014 37.7018 18.8014 36.3368C18.8014 34.9718 19.9119 33.861 21.2772 33.861H23.9493V38.8124ZM46.1586 55.4499V52.6999C46.1741 52.6927 46.1894 52.6859 46.2049 52.6787C46.2083 52.677 46.2118 52.6755 46.2152 52.674C47.2371 53.7298 47.8085 55.1735 47.7685 56.6599L47.5438 64.8616L42.0391 61.637C43.7254 60.2305 46.1586 57.7951 46.1586 55.4499ZM36.0789 53.5754C36.0999 53.582 36.1207 53.5874 36.1416 53.594C36.2788 53.6365 36.4157 53.6773 36.5519 53.7157C36.5686 53.7204 36.5855 53.7255 36.6022 53.7302C36.7522 53.772 36.9013 53.8106 37.0499 53.8471C37.0908 53.8571 37.1316 53.8668 37.1724 53.8765C37.2933 53.9052 37.4136 53.9323 37.5333 53.9576C37.5657 53.9645 37.5982 53.9718 37.6303 53.9784C37.776 54.008 37.9205 54.0349 38.0643 54.0596C38.0994 54.0655 38.1343 54.0709 38.1693 54.0765C38.2855 54.0954 38.4011 54.1124 38.516 54.1281C38.5532 54.133 38.5905 54.1384 38.6275 54.143C38.7693 54.1609 38.91 54.1763 39.0493 54.1888C39.0727 54.1909 39.0957 54.1923 39.1189 54.1941C39.2385 54.2041 39.3569 54.212 39.4744 54.2179C39.5119 54.2198 39.5494 54.2216 39.5868 54.2232C39.7244 54.2287 39.861 54.2326 39.9958 54.2326C40.1277 54.2326 40.2611 54.229 40.3955 54.2237C40.4319 54.2223 40.4683 54.2204 40.5049 54.2185C40.5397 54.2168 40.5743 54.2157 40.6093 54.2137C40.6149 54.2134 40.6202 54.2134 40.6258 54.2129C40.6996 54.2084 40.7741 54.2021 40.8486 54.196C40.8727 54.194 40.8963 54.1927 40.9204 54.1905C41.0572 54.1785 41.1954 54.1637 41.3346 54.1465C41.368 54.1424 41.4018 54.1376 41.4355 54.1332C41.5494 54.1182 41.6643 54.1015 41.7796 54.0832C41.8135 54.0777 41.8472 54.0727 41.8811 54.067C42.0232 54.0432 42.166 54.0173 42.3097 53.9885C42.3349 53.9835 42.3602 53.9777 42.3854 53.9726C42.5074 53.9474 42.6302 53.9204 42.7535 53.8916C42.793 53.8824 42.8324 53.8732 42.8721 53.8637C42.9982 53.8332 43.1246 53.8012 43.2516 53.7671C43.2721 53.7616 43.2922 53.7568 43.3127 53.7512C43.3155 53.7504 43.3185 53.7495 43.3213 53.7487C43.3514 53.7404 43.3818 53.7313 43.4121 53.7227C43.5271 53.6905 43.6424 53.657 43.7582 53.6218C43.7771 53.616 43.7958 53.6112 43.8149 53.6054V55.4496C43.8149 56.7726 41.7327 58.9163 39.9469 60.3109C38.1607 58.9187 36.0789 56.7768 36.0789 55.4496V53.5754ZM33.7097 52.643C33.7182 52.647 33.7268 52.6506 33.7352 52.6545V55.4498C33.7352 57.7949 36.1691 60.2305 37.856 61.6371L32.35 64.8616L32.1253 56.6605C32.085 55.1571 32.6682 53.7012 33.7097 52.643ZM48.8747 67.2585C49.4777 66.9235 49.8489 66.3118 49.8675 65.6226L50.0843 57.7121L52.7875 58.6826C56.0058 59.8384 58.168 62.9121 58.168 66.3312V77.6562H21.7257V66.3312C21.7257 62.9121 23.8879 59.8384 27.106 58.6826L29.8094 57.7121L30.026 65.6224C30.0447 66.3121 30.416 66.9238 31.0191 67.2587C31.3141 67.4224 31.6358 67.504 31.9572 67.504C32.2933 67.504 32.6293 67.4146 32.9333 67.2362L39.9474 63.1284L46.9594 67.236C47.5553 67.5851 48.2713 67.5934 48.8747 67.2585ZM55.6821 51.8527L54.8257 52.7091C54.6747 52.8602 54.4985 52.8826 54.4068 52.8826C54.3152 52.8826 54.1389 52.8601 53.9878 52.7091C53.8369 52.5582 53.8144 52.382 53.8144 52.2904C53.8144 52.1987 53.8371 52.0224 53.988 51.8715L54.8444 51.0149C54.9953 50.864 55.1716 50.8415 55.2633 50.8415C55.3549 50.8415 55.5311 50.8641 55.6821 51.0151C55.913 51.246 55.913 51.6218 55.6821 51.8527ZM61.3213 37.9388C61.3213 39.417 60.1661 40.6304 58.6921 40.7012C58.6466 40.7034 58.601 40.7045 58.5557 40.7045H56.0432V32.5263H58.5557C60.0807 32.5263 61.3213 33.767 61.3213 35.292V37.9388Z" fill="url(#paint2_linear)"/>
<path d="M39.9463 66.7764C39.2989 66.7764 38.7744 67.3009 38.7744 67.9482V68.1045C38.7744 68.7518 39.2989 69.2764 39.9463 69.2764C40.5936 69.2764 41.1182 68.7518 41.1182 68.1045V67.9482C41.1182 67.3011 40.5935 66.7764 39.9463 66.7764Z" fill="url(#paint3_linear)"/>
<path d="M39.9463 72.6562C39.2989 72.6562 38.7744 73.1808 38.7744 73.8281V73.9844C38.7744 74.6317 39.2989 75.1562 39.9463 75.1562C40.5936 75.1562 41.1182 74.6317 41.1182 73.9844V73.8281C41.1182 73.1809 40.5935 72.6562 39.9463 72.6562Z" fill="url(#paint4_linear)"/>
<path d="M44.0896 40.9525C43.6395 40.4879 42.8976 40.476 42.4326 40.9266C41.0593 42.2574 38.9076 42.2579 37.5343 40.9266C37.0693 40.476 36.3274 40.4879 35.8773 40.9525C35.4268 41.4174 35.4384 42.1593 35.9032 42.6096C37.0473 43.7183 38.5151 44.2726 39.9834 44.2726C41.4514 44.2726 42.9198 43.7182 44.0637 42.6096C44.5286 42.1593 44.5401 41.4172 44.0896 40.9525Z" fill="url(#paint5_linear)"/>
<path d="M51.0009 31.9929C50.3503 31.2437 49.4353 30.814 48.4906 30.814C47.5459 30.814 46.631 31.2437 45.9804 31.9929C45.556 32.4815 45.6082 33.2216 46.097 33.646C46.5854 34.0702 47.3256 34.0182 47.7501 33.5294C47.9582 33.2897 48.2214 33.1577 48.4906 33.1577C48.7601 33.1577 49.0231 33.2897 49.2312 33.5294C49.4629 33.7965 49.7887 33.933 50.1165 33.933C50.3889 33.933 50.6626 33.8387 50.8843 33.646C51.3731 33.2216 51.4253 32.4815 51.0009 31.9929Z" fill="url(#paint6_linear)"/>
<path d="M33.913 31.9929C33.2624 31.2437 32.3475 30.814 31.4027 30.814C30.458 30.814 29.5432 31.2437 28.8925 31.9929C28.4682 32.4815 28.5203 33.2216 29.0091 33.646C29.4974 34.0702 30.2377 34.0182 30.6622 33.5294C30.8703 33.2897 31.1335 33.1577 31.4027 33.1577C31.6722 33.1577 31.9352 33.2897 32.1433 33.5294C32.375 33.7965 32.7008 33.933 33.0286 33.933C33.301 33.933 33.5747 33.8387 33.7964 33.646C34.2852 33.2216 34.3374 32.4815 33.913 31.9929Z" fill="url(#paint7_linear)"/>
<defs>
<linearGradient id="paint0_linear" x1="17.749" y1="0.000244141" x2="74.316" y2="51.0763" gradientUnits="userSpaceOnUse">
<stop stop-color="#C9BBAE"/>
<stop offset="1" stop-color="#9A7F5F"/>
</linearGradient>
<linearGradient id="paint1_linear" x1="10.9082" y1="12.5889" x2="30.5701" y2="17.0795" gradientUnits="userSpaceOnUse">
<stop stop-color="#C9BBAE"/>
<stop offset="1" stop-color="#9A7F5F"/>
</linearGradient>
<linearGradient id="paint2_linear" x1="16.458" y1="14.6089" x2="78.5247" y2="59.416" gradientUnits="userSpaceOnUse">
<stop stop-color="#C9BBAE"/>
<stop offset="1" stop-color="#9A7F5F"/>
</linearGradient>
<linearGradient id="paint3_linear" x1="38.7744" y1="66.7764" x2="41.2692" y2="69.1152" gradientUnits="userSpaceOnUse">
<stop stop-color="#C9BBAE"/>
<stop offset="1" stop-color="#9A7F5F"/>
</linearGradient>
<linearGradient id="paint4_linear" x1="38.7744" y1="72.6562" x2="41.2692" y2="74.9951" gradientUnits="userSpaceOnUse">
<stop stop-color="#C9BBAE"/>
<stop offset="1" stop-color="#9A7F5F"/>
</linearGradient>
<linearGradient id="paint5_linear" x1="35.5469" y1="40.5962" x2="38.1469" y2="46.8717" gradientUnits="userSpaceOnUse">
<stop stop-color="#C9BBAE"/>
<stop offset="1" stop-color="#9A7F5F"/>
</linearGradient>
<linearGradient id="paint6_linear" x1="45.6934" y1="30.814" x2="48.3465" y2="35.5729" gradientUnits="userSpaceOnUse">
<stop stop-color="#C9BBAE"/>
<stop offset="1" stop-color="#9A7F5F"/>
</linearGradient>
<linearGradient id="paint7_linear" x1="28.6055" y1="30.814" x2="31.2586" y2="35.5729" gradientUnits="userSpaceOnUse">
<stop stop-color="#C9BBAE"/>
<stop offset="1" stop-color="#9A7F5F"/>
</linearGradient>
</defs>
</svg>
