<svg width="80" height="80" viewBox="0 0 80 80" fill="none" xmlns="http://www.w3.org/2000/svg">
<path d="M43.75 66.25H36.25C34.8712 66.25 33.75 67.3712 33.75 68.75V71.25C33.75 72.6287 34.8712 73.75 36.25 73.75H43.75C45.1287 73.75 46.25 72.6287 46.25 71.25V68.75C46.25 67.3712 45.1287 66.25 43.75 66.25ZM36.25 71.25V68.75H43.75L43.7512 71.25H36.25Z" fill="url(#paint0_linear)"/>
<path d="M26.25 66.25H23.75C22.3712 66.25 21.25 67.3712 21.25 68.75V71.25C21.25 72.6287 22.3712 73.75 23.75 73.75H26.25C27.6287 73.75 28.75 72.6287 28.75 71.25V68.75C28.75 67.3712 27.6287 66.25 26.25 66.25ZM23.75 71.25V68.75H26.25L26.2512 71.25H23.75Z" fill="url(#paint1_linear)"/>
<path d="M56.25 66.25H53.75C52.3712 66.25 51.25 67.3712 51.25 68.75V71.25C51.25 72.6287 52.3712 73.75 53.75 73.75H56.25C57.6287 73.75 58.75 72.6287 58.75 71.25V68.75C58.75 67.3712 57.6287 66.25 56.25 66.25ZM53.75 71.25V68.75H56.25L56.2512 71.25H53.75Z" fill="url(#paint2_linear)"/>
<path d="M40 8.75C40.6904 8.75 41.25 8.19036 41.25 7.5C41.25 6.80964 40.6904 6.25 40 6.25C39.3096 6.25 38.75 6.80964 38.75 7.5C38.75 8.19036 39.3096 8.75 40 8.75Z" fill="url(#paint3_linear)"/>
<path d="M63.75 21.25V7.5C63.75 4.05375 60.9463 1.25 57.5 1.25H22.5C19.0538 1.25 16.25 4.05375 16.25 7.5V18.75V42.335V72.5C16.25 75.9463 19.0538 78.75 22.5 78.75H57.5C60.9463 78.75 63.75 75.9463 63.75 72.5V53.75V21.25ZM61.25 7.5V11.25H44.9675C45.7612 10.2025 46.25 8.9125 46.25 7.5V3.75H57.5C59.5675 3.75 61.25 5.4325 61.25 7.5ZM36.25 7.5V3.75H43.75V7.5C43.75 9.5675 42.0675 11.25 40 11.25C37.9325 11.25 36.25 9.5675 36.25 7.5ZM22.5 3.75H33.75V7.5C33.75 8.9125 34.2387 10.2025 35.0325 11.25H18.75V7.5C18.75 5.4325 20.4325 3.75 22.5 3.75ZM57.5 76.25H22.5C20.4325 76.25 18.75 74.5675 18.75 72.5V63.75H61.25V72.5C61.25 74.5675 59.5675 76.25 57.5 76.25ZM61.25 61.25H18.75V44.0025V18.75V13.75H61.25V21.25V53.75V61.25Z" fill="url(#paint4_linear)"/>
<path d="M45.5892 52.6667C42.04 52.6667 37.9513 50.9431 34.0747 47.8125C30.4188 44.8604 27.4296 41.0132 25.8736 37.2575C23.8718 32.4259 24.3732 28.1612 27.2854 25.249L28.9029 23.6315C29.5249 23.0094 30.3521 22.6667 31.232 22.6667C32.1104 22.6667 32.9368 23.0085 33.5585 23.629L36.794 26.8577C37.4171 27.4796 37.7607 28.3069 37.7611 29.1873C37.7616 30.0678 37.419 30.8955 36.7964 31.5181L36.1991 32.1154C35.1858 33.1286 35.5031 34.6209 35.9477 35.6944C37.2496 38.8378 40.9234 41.8098 43.5072 41.8099H43.5073C44.2062 41.8099 44.7664 41.5895 45.2198 41.1361L45.8122 40.5436C46.4342 39.9216 47.2614 39.5789 48.1412 39.5789C49.021 39.5789 49.8482 39.9215 50.4703 40.5436L53.7023 43.7757C54.3244 44.3978 54.667 45.2249 54.667 46.1047C54.667 46.9844 54.3244 47.8116 53.7023 48.4337L52.0863 50.0497C50.3503 51.7858 48.165 52.6663 45.5911 52.6667C45.5907 52.6668 45.5896 52.6667 45.5892 52.6667ZM31.232 25.1394C31.0126 25.1394 30.8064 25.2247 30.6514 25.3799L29.0339 26.9974C26.267 29.7643 27.0304 33.5894 28.1581 36.3111C29.561 39.6971 32.2837 43.188 35.6283 45.8889C39.0164 48.6249 42.6471 50.1941 45.5893 50.1941H45.5908C47.4852 50.1938 49.0824 49.557 50.3381 48.3014L51.954 46.6853C52.1091 46.5302 52.1945 46.324 52.1945 46.1048C52.1945 45.8855 52.1091 45.6792 51.954 45.5242L48.7221 42.2922C48.5669 42.1371 48.3607 42.0517 48.1414 42.0517C47.9221 42.0517 47.7159 42.1371 47.5608 42.2922L46.9683 42.8846C46.0538 43.7992 44.8569 44.2826 43.5075 44.2826C43.5073 44.2826 43.5074 44.2826 43.5072 44.2826C41.7001 44.2825 39.6386 43.4192 37.7023 41.8516C35.9042 40.3959 34.432 38.4966 33.6633 36.6405C32.6272 34.1389 32.9068 31.9109 34.4507 30.367L35.048 29.7697C35.2032 29.6145 35.2886 29.4082 35.2885 29.1887C35.2883 28.9693 35.2028 28.763 35.0474 28.6079L31.812 25.3793C31.6569 25.2246 31.451 25.1394 31.232 25.1394Z" fill="url(#paint5_linear)"/>
<defs>
<linearGradient id="paint0_linear" x1="33.75" y1="66.25" x2="40.3676" y2="77.2794" gradientUnits="userSpaceOnUse">
<stop stop-color="#C9BBAE"/>
<stop offset="1" stop-color="#9A7F5F"/>
</linearGradient>
<linearGradient id="paint1_linear" x1="21.25" y1="66.25" x2="28.75" y2="73.75" gradientUnits="userSpaceOnUse">
<stop stop-color="#C9BBAE"/>
<stop offset="1" stop-color="#9A7F5F"/>
</linearGradient>
<linearGradient id="paint2_linear" x1="51.25" y1="66.25" x2="58.75" y2="73.75" gradientUnits="userSpaceOnUse">
<stop stop-color="#C9BBAE"/>
<stop offset="1" stop-color="#9A7F5F"/>
</linearGradient>
<linearGradient id="paint3_linear" x1="38.75" y1="6.25" x2="41.25" y2="8.75" gradientUnits="userSpaceOnUse">
<stop stop-color="#C9BBAE"/>
<stop offset="1" stop-color="#9A7F5F"/>
</linearGradient>
<linearGradient id="paint4_linear" x1="16.25" y1="1.25" x2="85.3082" y2="43.576" gradientUnits="userSpaceOnUse">
<stop stop-color="#C9BBAE"/>
<stop offset="1" stop-color="#9A7F5F"/>
</linearGradient>
<linearGradient id="paint5_linear" x1="24.667" y1="22.6667" x2="54.667" y2="52.6667" gradientUnits="userSpaceOnUse">
<stop stop-color="#C9BBAE"/>
<stop offset="1" stop-color="#9A7F5F"/>
</linearGradient>
</defs>
</svg>
