<svg width="30" height="30" viewBox="0 0 30 30" fill="none" xmlns="http://www.w3.org/2000/svg">
<g clip-path="url(#clip0)">
<path d="M23.0566 8.3821C23.2057 8.3821 23.3536 8.32315 23.4631 8.2058L23.8424 7.79982C24.0521 7.57514 24.0393 7.2231 23.8152 7.01343C23.5905 6.80432 23.2385 6.81656 23.0288 7.04068L22.6495 7.44667C22.4398 7.67135 22.4526 8.02339 22.6768 8.23305C22.7847 8.3326 22.9209 8.3821 23.0566 8.3821Z" fill="#473512"/>
<path d="M21.5388 10.0083C21.6879 10.0083 21.8358 9.94938 21.9454 9.83147L22.3247 9.42493C22.5343 9.20025 22.5216 8.84821 22.2969 8.6391C22.0733 8.43 21.7213 8.44223 21.511 8.66691L21.1318 9.07345C20.9221 9.29813 20.9349 9.65017 21.1596 9.85928C21.2669 9.95939 21.4032 10.0083 21.5388 10.0083Z" fill="#473512"/>
<path d="M19.9939 10.2921L19.614 10.6986C19.4049 10.9233 19.4171 11.2753 19.6413 11.485C19.7486 11.5851 19.8849 11.6346 20.0211 11.6346C20.1702 11.6346 20.3181 11.5756 20.4277 11.4583L20.8075 11.0518C21.0166 10.8271 21.0044 10.475 20.7802 10.2654C20.555 10.0557 20.2035 10.0679 19.9939 10.2921Z" fill="#473512"/>
<path d="M24.5743 6.75595C24.7234 6.75595 24.8713 6.69699 24.9809 6.57965L25.3607 6.17311C25.5698 5.94843 25.5576 5.59639 25.3335 5.38672C25.1088 5.17761 24.7573 5.18985 24.5471 5.41397L24.1672 5.82051C23.9581 6.0452 23.9704 6.39723 24.1945 6.6069C24.3024 6.70645 24.4386 6.75595 24.5743 6.75595Z" fill="#473512"/>
<path d="M27.6103 3.5033C27.7594 3.5033 27.9073 3.44435 28.0169 3.327L28.2137 3.11622C28.4234 2.89154 28.4106 2.5395 28.1865 2.32984C27.9612 2.12073 27.6103 2.13296 27.4001 2.35709L27.2032 2.56787C26.9936 2.79255 27.0064 3.14459 27.2305 3.35425C27.3384 3.4538 27.4746 3.5033 27.6103 3.5033Z" fill="#473512"/>
<path d="M26.092 5.12942C26.2404 5.12942 26.3889 5.07047 26.4979 4.95312L26.8778 4.54713C27.0874 4.32301 27.0752 3.97097 26.8511 3.76131C26.6281 3.55108 26.2744 3.56221 26.0653 3.788L25.6854 4.19398C25.4758 4.41811 25.488 4.77015 25.7121 4.97981C25.8194 5.07992 25.9557 5.12942 26.092 5.12942Z" fill="#473512"/>
<path d="M14.4592 6.07321C14.7668 6.07321 15.0154 5.82462 15.0154 5.51707V4.96093C15.0154 4.65338 14.7668 4.40479 14.4592 4.40479C14.1517 4.40479 13.9031 4.65338 13.9031 4.96093V5.51707C13.9031 5.82462 14.1522 6.07321 14.4592 6.07321Z" fill="#473512"/>
<path d="M14.4592 8.29758C14.7668 8.29758 15.0154 8.04898 15.0154 7.74144V7.18529C15.0154 6.87775 14.7668 6.62915 14.4592 6.62915C14.1517 6.62915 13.9031 6.87775 13.9031 7.18529V7.74144C13.9031 8.04898 14.1522 8.29758 14.4592 8.29758Z" fill="#473512"/>
<path d="M14.4592 3.8486C14.7668 3.8486 15.0154 3.60001 15.0154 3.29246V2.73632C15.0154 2.42877 14.7668 2.18018 14.4592 2.18018C14.1517 2.18018 13.9031 2.42877 13.9031 2.73632V3.29246C13.9031 3.60001 14.1522 3.8486 14.4592 3.8486Z" fill="#473512"/>
<path d="M14.4592 10.5222C14.7668 10.5222 15.0154 10.2736 15.0154 9.96605V9.4099C15.0154 9.10236 14.7668 8.85376 14.4592 8.85376C14.1517 8.85376 13.9031 9.10236 13.9031 9.4099V9.96605C13.9031 10.2736 14.1522 10.5222 14.4592 10.5222Z" fill="#473512"/>
<path d="M23.2268 16.6399H23.7829C24.0905 16.6399 24.3391 16.3913 24.3391 16.0837C24.3391 15.7762 24.0905 15.5276 23.7829 15.5276H23.2268C22.9193 15.5276 22.6707 15.7762 22.6707 16.0837C22.6707 16.3913 22.9193 16.6399 23.2268 16.6399Z" fill="#473512"/>
<path d="M21.5583 15.5276H21.0022C20.6946 15.5276 20.446 15.7762 20.446 16.0837C20.446 16.3913 20.6946 16.6399 21.0022 16.6399H21.5583C21.8659 16.6399 22.1145 16.3913 22.1145 16.0837C22.1145 15.7762 21.8659 15.5276 21.5583 15.5276Z" fill="#473512"/>
<path d="M27.6759 15.5276C27.3683 15.5276 27.1198 15.7762 27.1198 16.0837C27.1198 16.3913 27.3683 16.6399 27.6759 16.6399H28.232C28.5396 16.6399 28.7882 16.3913 28.7882 16.0837C28.7882 15.7762 28.5396 15.5276 28.232 15.5276H27.6759Z" fill="#473512"/>
<path d="M25.4514 16.6399H26.0076C26.3151 16.6399 26.5637 16.3913 26.5637 16.0837C26.5637 15.7762 26.3151 15.5276 26.0076 15.5276H25.4514C25.1439 15.5276 24.8953 15.7762 24.8953 16.0837C24.8953 16.3913 25.1439 16.6399 25.4514 16.6399Z" fill="#473512"/>
<path d="M29.6769 22.7513C28.5602 20.6407 24.6822 18.3511 24.5115 18.251C23.8018 17.8461 23.0666 17.7182 22.4421 17.8917C21.9727 18.0219 21.59 18.3188 21.3326 18.7515C20.7647 19.43 20.0612 20.2231 19.891 20.346C18.573 21.238 17.5263 21.1324 16.3901 19.9962L10.0023 13.6089C8.86495 12.4715 8.76039 11.4243 9.65133 10.1096C9.77591 9.93721 10.5684 9.23369 11.2469 8.66642C11.6796 8.40837 11.9766 8.0263 12.1067 7.55636C12.2797 6.93181 12.1517 6.19715 11.7435 5.48139C11.6473 5.31678 9.35825 1.43824 7.24713 0.32206C6.17489 -0.244649 4.88019 -0.0505555 4.02373 0.807016L2.61279 2.21795C-1.50377 6.33452 -0.741859 11.4471 4.81623 17.0047L12.9943 25.1833C15.5186 27.7082 17.9646 29.2576 20.262 29.7887C20.8715 29.9294 21.4688 30.0001 22.055 30.0001C24.1222 30.0001 26.042 29.1252 27.781 27.3862L29.192 25.9752C30.049 25.1177 30.2436 23.8224 29.6769 22.7513ZM28.4056 25.1883L26.9946 26.5992C23.3419 30.252 18.8955 29.5118 13.7807 24.3964L5.60262 16.2177C0.487773 11.1034 -0.253566 6.65764 3.39918 3.00378L4.81011 1.59285C5.12489 1.27807 5.54033 1.11345 5.96133 1.11345C6.22105 1.11345 6.48355 1.17574 6.72658 1.30476C8.55851 2.27412 10.762 6.00639 10.7803 6.03809C11.03 6.47578 11.1251 6.93237 11.0345 7.25938C10.9788 7.45959 10.8548 7.61198 10.6541 7.72432L10.5706 7.78216C10.0962 8.17813 8.96728 9.13581 8.73092 9.48451C8.39056 9.98726 8.16476 10.4811 8.04631 10.9666C7.65089 10.178 7.33166 9.26483 7.22655 8.2521C7.1943 7.94677 6.92512 7.72932 6.61535 7.75602C6.31003 7.78827 6.08813 8.06134 6.11927 8.36722C6.52081 12.2341 9.52843 14.7512 9.65578 14.8563C9.66969 14.868 9.68637 14.8719 9.70083 14.8819L15.6037 20.7831C15.6288 20.8081 15.6543 20.8298 15.6794 20.8537C15.6988 20.8827 15.7116 20.9144 15.7372 20.9399C15.8423 21.0439 18.3533 23.4798 22.1879 23.878C22.2074 23.8797 22.2268 23.8808 22.2457 23.8808C22.5271 23.8808 22.7685 23.6678 22.7985 23.3825C22.8302 23.0766 22.6078 22.8036 22.3025 22.7713C21.1268 22.6495 20.0851 22.3047 19.217 21.9048C19.643 21.7769 20.0757 21.5645 20.5145 21.2675C20.8637 21.0306 21.8208 19.9022 22.2163 19.4278L22.2741 19.3438C22.3864 19.1441 22.5388 19.0196 22.739 18.9634C23.0638 18.875 23.5221 18.9673 23.9542 19.2137C24.9992 19.8265 27.8878 21.7497 28.6931 23.2713C29.0307 23.9092 28.915 24.6789 28.4056 25.1883Z" fill="#473512"/>
<path d="M22.1278 12.8058C21.9899 12.531 21.6557 12.4203 21.3815 12.5572L20.8838 12.8058C20.609 12.9431 20.4978 13.2774 20.6352 13.5521C20.733 13.7473 20.9288 13.8596 21.1335 13.8596C21.2169 13.8596 21.302 13.8407 21.3815 13.8012L21.8792 13.5527C22.154 13.4142 22.2652 13.0805 22.1278 12.8058Z" fill="#473512"/>
<path d="M25.3612 11.8109L25.859 11.5624C26.1337 11.425 26.2449 11.0907 26.1076 10.816C25.9697 10.5413 25.6354 10.4312 25.3612 10.5674L24.8635 10.816C24.5888 10.9534 24.4775 11.2876 24.6149 11.5624C24.7128 11.7576 24.9085 11.8699 25.1132 11.8699C25.1966 11.8693 25.2812 11.8504 25.3612 11.8109Z" fill="#473512"/>
<path d="M27.1031 10.875C27.1865 10.875 27.2716 10.856 27.3511 10.8166L27.8489 10.568C28.1236 10.4306 28.2348 10.0964 28.0974 9.82162C27.9595 9.54689 27.6258 9.43677 27.3511 9.57302L26.8534 9.82162C26.5786 9.95899 26.4674 10.2932 26.6048 10.568C26.7026 10.7626 26.899 10.875 27.1031 10.875Z" fill="#473512"/>
<path d="M23.3719 12.8058L23.8691 12.5572C24.1438 12.4199 24.255 12.0851 24.1176 11.8109C23.9797 11.5361 23.646 11.4266 23.3713 11.5623L22.8741 11.8109C22.5994 11.9482 22.4881 12.283 22.6255 12.5572C22.7234 12.7524 22.9192 12.8648 23.1238 12.8648C23.2072 12.8642 23.2918 12.8453 23.3719 12.8058Z" fill="#473512"/>
<path d="M17.0264 10.4796C17.0965 10.509 17.1688 10.5224 17.2405 10.5224C17.4585 10.5224 17.6649 10.3939 17.7538 10.1804L17.968 9.66704C18.0864 9.3834 17.9524 9.0575 17.6687 8.9396C17.3857 8.82114 17.0603 8.95517 16.9413 9.2388L16.7272 9.75212C16.6087 10.0358 16.7428 10.3617 17.0264 10.4796Z" fill="#473512"/>
<path d="M19.5929 4.31917C19.663 4.34864 19.7353 4.36199 19.807 4.36199C20.0251 4.36199 20.2314 4.23352 20.3204 4.01996L20.5345 3.50664C20.6529 3.22301 20.5189 2.89711 20.2353 2.77921C19.9528 2.66131 19.6263 2.79478 19.5078 3.07841L19.2937 3.59173C19.1753 3.87537 19.3093 4.20127 19.5929 4.31917Z" fill="#473512"/>
<path d="M18.7376 6.37239C18.8077 6.40187 18.88 6.41521 18.9517 6.41521C19.1697 6.41521 19.376 6.28675 19.465 6.07319L19.6791 5.55987C19.7976 5.27623 19.6636 4.95034 19.3799 4.83243C19.0974 4.71453 18.771 4.848 18.6525 5.13164L18.4384 5.64496C18.3199 5.92859 18.454 6.25449 18.7376 6.37239Z" fill="#473512"/>
<path d="M17.8816 8.42611C17.9517 8.45559 18.024 8.46894 18.0957 8.46894C18.3137 8.46894 18.5201 8.34047 18.6091 8.12691L18.8232 7.61359C18.9416 7.32996 18.8076 7.00406 18.524 6.88615C18.242 6.76881 17.915 6.90173 17.7965 7.18536L17.5824 7.69868C17.464 7.98231 17.598 8.30821 17.8816 8.42611Z" fill="#473512"/>
</g>
<defs>
<clipPath id="clip0">
<rect width="30" height="30" fill="white"/>
</clipPath>
</defs>
</svg>
