<svg width="82" height="112" viewBox="0 0 82 112" fill="none" xmlns="http://www.w3.org/2000/svg">
<path d="M0.913693 2.67236H2.09503V7.25928L5.56522 2.67236H6.68196V9.13281H5.50062V4.55512L2.03043 9.13281H0.913693V2.67236ZM11.8897 5.76415C12.2773 5.8872 12.5788 6.08717 12.7942 6.36405C13.0157 6.63477 13.1264 6.95472 13.1264 7.32389C13.1264 7.71151 13.0003 8.04992 12.748 8.3391C12.4957 8.62213 12.1573 8.84055 11.7328 8.99437C11.3144 9.14819 10.856 9.2251 10.3576 9.2251C9.92694 9.2251 9.49317 9.16665 9.05632 9.04975C8.62562 8.92669 8.22569 8.74519 7.85652 8.50523L8.24415 7.62845C8.52717 7.81919 8.84097 7.96685 9.18553 8.07145C9.53008 8.1699 9.87156 8.21912 10.21 8.21912C10.696 8.21912 11.0991 8.12375 11.419 7.93301C11.7451 7.74228 11.9081 7.48078 11.9081 7.14853C11.9081 6.8655 11.7912 6.65015 11.5574 6.50248C11.3236 6.35482 11.0006 6.28098 10.5884 6.28098H9.084V5.3396H10.4961C10.8529 5.3396 11.1329 5.26577 11.3359 5.1181C11.539 4.97043 11.6405 4.77047 11.6405 4.5182C11.6405 4.21671 11.5021 3.98291 11.2252 3.81678C10.9545 3.65066 10.6068 3.56759 10.1823 3.56759C9.8931 3.56759 9.59469 3.61066 9.28705 3.6968C8.97941 3.77679 8.69022 3.89677 8.4195 4.05674L8.0411 3.08767C8.37335 2.90924 8.72406 2.77696 9.09323 2.69082C9.46856 2.59852 9.8408 2.55238 10.21 2.55238C10.6899 2.55238 11.1298 2.62621 11.5297 2.77388C11.9358 2.92155 12.2589 3.13382 12.4988 3.4107C12.7388 3.68142 12.8588 4.00137 12.8588 4.37053C12.8588 4.69048 12.7726 4.97043 12.6003 5.21039C12.4281 5.45035 12.1912 5.63494 11.8897 5.76415ZM18.8708 3.68757H15.6683L15.6775 9.13281H14.4961V2.67236H18.88L18.8708 3.68757ZM22.1369 9.2251C21.4785 9.2251 20.8848 9.08359 20.3556 8.80056C19.8265 8.51138 19.4112 8.11452 19.1097 7.60999C18.8082 7.09931 18.6574 6.53017 18.6574 5.90259C18.6574 5.275 18.8082 4.70894 19.1097 4.20441C19.4112 3.69372 19.8265 3.29687 20.3556 3.01384C20.8848 2.72466 21.4785 2.58007 22.1369 2.58007C22.7952 2.58007 23.389 2.72466 23.9181 3.01384C24.4472 3.29687 24.8626 3.69065 25.164 4.19518C25.4655 4.69971 25.6163 5.26885 25.6163 5.90259C25.6163 6.53633 25.4655 7.10546 25.164 7.60999C24.8626 8.11452 24.4472 8.51138 23.9181 8.80056C23.389 9.08359 22.7952 9.2251 22.1369 9.2251ZM22.1369 8.17297C22.5676 8.17297 22.9552 8.0776 23.2997 7.88687C23.6443 7.68998 23.915 7.41925 24.1119 7.0747C24.3088 6.72399 24.4072 6.33328 24.4072 5.90259C24.4072 5.47189 24.3088 5.08426 24.1119 4.7397C23.915 4.38899 23.6443 4.11827 23.2997 3.92753C22.9552 3.73064 22.5676 3.6322 22.1369 3.6322C21.7062 3.6322 21.3185 3.73064 20.974 3.92753C20.6294 4.11827 20.3587 4.38899 20.1618 4.7397C19.9649 5.08426 19.8665 5.47189 19.8665 5.90259C19.8665 6.33328 19.9649 6.72399 20.1618 7.0747C20.3587 7.41925 20.6294 7.68998 20.974 7.88687C21.3185 8.0776 21.7062 8.17297 22.1369 8.17297ZM31.5411 3.68757H29.3999V9.13281H28.2093V3.68757H26.0774V2.67236H31.5411V3.68757ZM35.476 9.2251C34.8176 9.2251 34.2239 9.08359 33.6947 8.80056C33.1656 8.51138 32.7503 8.11452 32.4488 7.60999C32.1473 7.09931 31.9966 6.53017 31.9966 5.90259C31.9966 5.275 32.1473 4.70894 32.4488 4.20441C32.7503 3.69372 33.1656 3.29687 33.6947 3.01384C34.2239 2.72466 34.8176 2.58007 35.476 2.58007C36.1343 2.58007 36.7281 2.72466 37.2572 3.01384C37.7864 3.29687 38.2017 3.69065 38.5032 4.19518C38.8046 4.69971 38.9554 5.26885 38.9554 5.90259C38.9554 6.53633 38.8046 7.10546 38.5032 7.60999C38.2017 8.11452 37.7864 8.51138 37.2572 8.80056C36.7281 9.08359 36.1343 9.2251 35.476 9.2251ZM35.476 8.17297C35.9067 8.17297 36.2943 8.0776 36.6389 7.88687C36.9834 7.68998 37.2541 7.41925 37.451 7.0747C37.6479 6.72399 37.7464 6.33328 37.7464 5.90259C37.7464 5.47189 37.6479 5.08426 37.451 4.7397C37.2541 4.38899 36.9834 4.11827 36.6389 3.92753C36.2943 3.73064 35.9067 3.6322 35.476 3.6322C35.0453 3.6322 34.6576 3.73064 34.3131 3.92753C33.9685 4.11827 33.6978 4.38899 33.5009 4.7397C33.304 5.08426 33.2056 5.47189 33.2056 5.90259C33.2056 6.33328 33.304 6.72399 33.5009 7.0747C33.6978 7.41925 33.9685 7.68998 34.3131 7.88687C34.6576 8.0776 35.0453 8.17297 35.476 8.17297ZM44.5365 5.77338C44.9488 5.88413 45.2626 6.07486 45.4779 6.34559C45.6933 6.61016 45.8009 6.94241 45.8009 7.34234C45.8009 7.9084 45.5917 8.34833 45.1734 8.66212C44.755 8.97592 44.1489 9.13281 43.3552 9.13281H40.2911V2.67236H43.1798C43.9059 2.67236 44.4719 2.81695 44.878 3.10613C45.2841 3.39531 45.4872 3.80448 45.4872 4.33362C45.4872 4.67202 45.4041 4.96428 45.238 5.21039C45.078 5.45651 44.8442 5.64417 44.5365 5.77338ZM41.4724 5.43189H43.0783C43.466 5.43189 43.7613 5.35498 43.9643 5.20116C44.1674 5.04734 44.2689 4.81969 44.2689 4.5182C44.2689 4.21671 44.1674 3.98906 43.9643 3.83524C43.7613 3.67527 43.466 3.59528 43.0783 3.59528H41.4724V5.43189ZM43.3183 8.20989C44.1674 8.20989 44.5919 7.88994 44.5919 7.25005C44.5919 6.62246 44.1674 6.30867 43.3183 6.30867H41.4724V8.20989H43.3183ZM52.6868 2.67236V9.13281H51.5055V3.68757H48.9582L48.9028 5.30269C48.8721 6.20715 48.7982 6.94241 48.6813 7.50847C48.5644 8.06838 48.3768 8.496 48.1183 8.79133C47.8599 9.08051 47.5031 9.2251 47.0478 9.2251C46.8878 9.2251 46.6694 9.19434 46.3925 9.13281L46.4755 8.08991C46.5555 8.11452 46.6478 8.12683 46.7524 8.12683C47.1277 8.12683 47.3923 7.90533 47.5461 7.46232C47.7061 7.01317 47.8046 6.30867 47.8415 5.34883L47.9338 2.67236H52.6868ZM59.3496 8.12683V9.13281H54.5042V2.67236H59.2204V3.67834H55.704V5.35806H58.8235V6.34559H55.704V8.12683H59.3496ZM66.4277 2.67236V9.13281H65.2279V6.36405H61.8869V9.13281H60.6871V2.67236H61.8869V5.3396H65.2279V2.67236H66.4277ZM68.2491 2.67236H69.4305V7.25928L72.9007 2.67236H74.0174V9.13281H72.8361V4.55512L69.3659 9.13281H68.2491V2.67236ZM80.6741 8.12683V9.13281H75.8288V2.67236H80.5449V3.67834H77.0286V5.35806H80.1481V6.34559H77.0286V8.12683H80.6741Z" fill="#473512"/>
<path d="M10.0609 105.198H8.19331V107.592H6.29559V105.198H0.512082V103.842L5.7082 97.0494H7.80171L2.90682 103.541H6.35584V101.417H8.19331V103.541H10.0609V105.198ZM17.8698 102.05C18.422 102.301 18.8438 102.642 19.1349 103.074C19.4362 103.496 19.5868 103.993 19.5868 104.565C19.5868 105.208 19.406 105.77 19.0446 106.252C18.6931 106.734 18.1911 107.105 17.5384 107.366C16.8858 107.617 16.1277 107.743 15.2642 107.743C14.4007 107.743 13.6426 107.617 12.99 107.366C12.3473 107.105 11.8503 106.734 11.4989 106.252C11.1475 105.77 10.9717 105.208 10.9717 104.565C10.9717 103.993 11.1173 103.496 11.4085 103.074C11.6997 102.642 12.1164 102.301 12.6586 102.05C12.2369 101.819 11.9106 101.518 11.6796 101.146C11.4587 100.765 11.3483 100.328 11.3483 99.8358C11.3483 99.2433 11.5089 98.7262 11.8302 98.2844C12.1616 97.8427 12.6235 97.5013 13.2159 97.2603C13.8083 97.0193 14.4911 96.8988 15.2642 96.8988C16.0474 96.8988 16.7352 97.0193 17.3276 97.2603C17.92 97.5013 18.3819 97.8427 18.7132 98.2844C19.0446 98.7262 19.2102 99.2433 19.2102 99.8358C19.2102 100.328 19.0948 100.76 18.8638 101.131C18.6329 101.503 18.3015 101.809 17.8698 102.05ZM15.2642 98.4351C14.6517 98.4351 14.1647 98.5656 13.8033 98.8267C13.4518 99.0877 13.2761 99.4542 13.2761 99.9261C13.2761 100.378 13.4518 100.739 13.8033 101.011C14.1647 101.272 14.6517 101.402 15.2642 101.402C15.8867 101.402 16.3787 101.272 16.7402 101.011C17.1017 100.739 17.2824 100.378 17.2824 99.9261C17.2824 99.4542 17.0966 99.0877 16.7251 98.8267C16.3637 98.5656 15.8767 98.4351 15.2642 98.4351ZM15.2642 106.207C15.9871 106.207 16.5595 106.056 16.9812 105.755C17.4029 105.454 17.6138 105.037 17.6138 104.505C17.6138 103.983 17.4029 103.571 16.9812 103.27C16.5595 102.968 15.9871 102.818 15.2642 102.818C14.5413 102.818 13.974 102.968 13.5623 103.27C13.1506 103.571 12.9448 103.983 12.9448 104.505C12.9448 105.037 13.1506 105.454 13.5623 105.755C13.974 106.056 14.5413 106.207 15.2642 106.207ZM34.0563 97.0494V107.592H32.1134V103.616C31.1193 103.988 30.1755 104.173 29.2818 104.173C27.9364 104.173 26.8972 103.852 26.1642 103.209C25.4412 102.557 25.0798 101.623 25.0798 100.408V97.0494H27.0227V100.197C27.0227 100.94 27.2385 101.508 27.6703 101.899C28.102 102.291 28.7196 102.487 29.5228 102.487C30.4365 102.487 31.3 102.301 32.1134 101.929V97.0494H34.0563ZM43.9995 105.152H38.7281L37.6888 107.592H35.6706L40.4149 97.0494H42.3428L47.1021 107.592H45.0538L43.9995 105.152ZM43.3519 103.616L41.3638 99.0074L39.3908 103.616H43.3519ZM53.4215 107.743C52.3571 107.743 51.3932 107.512 50.5297 107.05C49.6762 106.578 49.0035 105.931 48.5115 105.107C48.0295 104.284 47.7886 103.355 47.7886 102.321C47.7886 101.287 48.0346 100.358 48.5266 99.5345C49.0186 98.7112 49.6913 98.0686 50.5448 97.6067C51.4083 97.1348 52.3722 96.8988 53.4365 96.8988C54.3 96.8988 55.0882 97.0494 55.8011 97.3507C56.514 97.6519 57.1165 98.0887 57.6085 98.661L56.3433 99.8508C55.5802 99.0275 54.6414 98.6158 53.5269 98.6158C52.8039 98.6158 52.1563 98.7764 51.584 99.0978C51.0117 99.409 50.5648 99.8458 50.2435 100.408C49.9222 100.97 49.7616 101.608 49.7616 102.321C49.7616 103.034 49.9222 103.671 50.2435 104.234C50.5648 104.796 51.0117 105.238 51.584 105.559C52.1563 105.87 52.8039 106.026 53.5269 106.026C54.6414 106.026 55.5802 105.609 56.3433 104.776L57.6085 105.981C57.1165 106.553 56.509 106.99 55.7861 107.291C55.0732 107.592 54.285 107.743 53.4215 107.743ZM64.0856 107.743C63.0113 107.743 62.0423 107.512 61.1788 107.05C60.3153 106.578 59.6375 105.931 59.1455 105.107C58.6535 104.274 58.4075 103.345 58.4075 102.321C58.4075 101.297 58.6535 100.373 59.1455 99.5496C59.6375 98.7162 60.3153 98.0686 61.1788 97.6067C62.0423 97.1348 63.0113 96.8988 64.0856 96.8988C65.16 96.8988 66.1289 97.1348 66.9924 97.6067C67.856 98.0686 68.5337 98.7112 69.0257 99.5345C69.5177 100.358 69.7637 101.287 69.7637 102.321C69.7637 103.355 69.5177 104.284 69.0257 105.107C68.5337 105.931 67.856 106.578 66.9924 107.05C66.1289 107.512 65.16 107.743 64.0856 107.743ZM64.0856 106.026C64.7885 106.026 65.4211 105.87 65.9833 105.559C66.5456 105.238 66.9874 104.796 67.3087 104.234C67.63 103.661 67.7907 103.024 67.7907 102.321C67.7907 101.618 67.63 100.985 67.3087 100.423C66.9874 99.8508 66.5456 99.409 65.9833 99.0978C65.4211 98.7764 64.7885 98.6158 64.0856 98.6158C63.3828 98.6158 62.7502 98.7764 62.1879 99.0978C61.6256 99.409 61.1838 99.8508 60.8625 100.423C60.5412 100.985 60.3806 101.618 60.3806 102.321C60.3806 103.024 60.5412 103.661 60.8625 104.234C61.1838 104.796 61.6256 105.238 62.1879 105.559C62.7502 105.87 63.3828 106.026 64.0856 106.026ZM78.8716 102.11C79.5444 102.291 80.0564 102.602 80.4079 103.044C80.7593 103.476 80.935 104.018 80.935 104.67C80.935 105.594 80.5936 106.312 79.9109 106.824C79.2281 107.336 78.2391 107.592 76.9438 107.592H71.9435V97.0494H76.6576C77.8424 97.0494 78.7662 97.2854 79.4289 97.7573C80.0916 98.2292 80.4229 98.8969 80.4229 99.7604C80.4229 100.313 80.2874 100.79 80.0163 101.191C79.7552 101.593 79.3737 101.899 78.8716 102.11ZM73.8713 101.553H76.492C77.1245 101.553 77.6065 101.427 77.9378 101.176C78.2692 100.925 78.4349 100.554 78.4349 100.062C78.4349 99.5697 78.2692 99.1982 77.9378 98.9471C77.6065 98.6861 77.1245 98.5555 76.492 98.5555H73.8713V101.553ZM76.8836 106.086C78.2692 106.086 78.962 105.564 78.962 104.52C78.962 103.496 78.2692 102.984 76.8836 102.984H73.8713V106.086H76.8836Z" fill="#473512"/>
<g clip-path="url(#clip0)">
<path d="M44.6035 54.2017C45.2669 54.2017 45.8047 53.6639 45.8047 53.0005C45.8047 52.3371 45.2669 51.7993 44.6035 51.7993C43.9401 51.7993 43.4023 52.3371 43.4023 53.0005C43.4023 53.6639 43.9401 54.2017 44.6035 54.2017Z" fill="url(#paint0_linear)"/>
<path d="M44.6035 75.9829C45.2669 75.9829 45.8047 75.4451 45.8047 74.7817C45.8047 74.1183 45.2669 73.5806 44.6035 73.5806C43.9401 73.5806 43.4023 74.1183 43.4023 74.7817C43.4023 75.4451 43.9401 75.9829 44.6035 75.9829Z" fill="url(#paint1_linear)"/>
<path d="M34.8335 72.3216C35.0756 71.7039 34.7712 71.007 34.1536 70.7648C33.536 70.5227 32.839 70.8271 32.5969 71.4447C32.3547 72.0623 32.6591 72.7593 33.2767 73.0014C33.8944 73.2436 34.5913 72.9392 34.8335 72.3216Z" fill="url(#paint2_linear)"/>
<path d="M54.8937 35.1776C55.4682 35.5093 56.2028 35.3124 56.5345 34.738C56.8662 34.1635 56.6694 33.4288 56.0949 33.0972C55.5204 32.7655 54.7858 32.9623 54.4541 33.5368C54.1224 34.1113 54.3192 34.8459 54.8937 35.1776Z" fill="url(#paint3_linear)"/>
<path d="M64.0675 43.1497C64.642 42.8181 64.8388 42.0834 64.5072 41.509C64.1755 40.9345 63.4408 40.7376 62.8664 41.0693C62.2919 41.401 62.0951 42.1356 62.4267 42.7101C62.7583 43.2846 63.4929 43.4814 64.0675 43.1497Z" fill="url(#paint4_linear)"/>
<path d="M25.8904 65.1009C26.5511 65.0379 27.0357 64.4512 26.9727 63.7904C26.9096 63.1297 26.3229 62.6451 25.6622 62.7082C25.0014 62.7712 24.5169 63.3579 24.5799 64.0186C24.643 64.6794 25.2297 65.1639 25.8904 65.1009Z" fill="url(#paint5_linear)"/>
<path d="M66.3848 54.2017C67.0482 54.2017 67.5859 53.6639 67.5859 53.0005C67.5859 52.3371 67.0482 51.7993 66.3848 51.7993C65.7214 51.7993 65.1836 52.3371 65.1836 53.0005C65.1836 53.6639 65.7214 54.2017 66.3848 54.2017Z" fill="url(#paint6_linear)"/>
<path d="M64.0675 62.8506C63.4931 62.5189 62.7584 62.7157 62.4267 63.2902C62.0951 63.8647 62.2919 64.5993 62.8664 64.931C63.4408 65.2627 64.1755 65.0658 64.5072 64.4914C64.8388 63.9169 64.642 63.1823 64.0675 62.8506Z" fill="url(#paint7_linear)"/>
<path d="M26.7982 42.6607C27.1172 42.0789 26.9043 41.3486 26.3225 41.0295C25.7407 40.7104 25.0104 40.9234 24.6913 41.5052C24.3722 42.087 24.5852 42.8173 25.167 43.1364C25.7487 43.4554 26.4791 43.2425 26.7982 42.6607Z" fill="url(#paint8_linear)"/>
<path d="M54.8937 70.8232C54.3192 71.1549 54.1224 71.8895 54.4541 72.464C54.7858 73.0385 55.5204 73.2353 56.0949 72.9036C56.6694 72.572 56.8662 71.8373 56.5345 71.2629C56.2028 70.6884 55.4682 70.4916 54.8937 70.8232Z" fill="url(#paint9_linear)"/>
<path d="M33.8533 35.3289C34.514 35.2659 34.9986 34.6792 34.9355 34.0184C34.8725 33.3577 34.2858 32.8732 33.6251 32.9362C32.9643 32.9992 32.4798 33.5859 32.5428 34.2467C32.6058 34.9074 33.1926 35.3919 33.8533 35.3289Z" fill="url(#paint10_linear)"/>
<path d="M44.6035 59.0063C46.5641 59.0063 48.3081 58.0617 49.405 56.604H59.1777C61.1646 56.604 62.7812 54.9875 62.7812 53.0005C62.7812 51.0134 61.1646 49.397 59.1777 49.397H49.405C49.064 48.9437 48.6604 48.5401 48.207 48.199V33.6216C48.207 31.6345 46.5904 30.0181 44.6035 30.0181C42.6166 30.0181 41 31.6345 41 33.6216V48.199C39.848 49.0658 39.0166 50.3366 38.7186 51.7993H22.8223C22.1589 51.7993 21.6211 52.3371 21.6211 53.0005C21.6211 53.6639 22.1589 54.2017 22.8223 54.2017H38.7186C39.2766 56.9397 41.7031 59.0063 44.6035 59.0063ZM59.1777 51.7993C59.8401 51.7993 60.3789 52.3381 60.3789 53.0005C60.3789 53.6629 59.8401 54.2017 59.1777 54.2017H50.4885C50.5676 53.8134 50.6094 53.4118 50.6094 53.0005C50.6094 52.5892 50.5676 52.1875 50.4885 51.7993H59.1777ZM43.4023 33.6216C43.4023 32.9592 43.9411 32.4204 44.6035 32.4204C45.2659 32.4204 45.8047 32.9592 45.8047 33.6216V47.1155C45.4165 47.0364 45.0148 46.9946 44.6035 46.9946C44.1922 46.9946 43.7906 47.0364 43.4023 47.1155V33.6216ZM44.6035 49.397C46.5904 49.397 48.207 51.0134 48.207 53.0005C48.207 54.9875 46.5904 56.604 44.6035 56.604C42.6166 56.604 41 54.9875 41 53.0005C41 51.0134 42.6166 49.397 44.6035 49.397Z" fill="url(#paint11_linear)"/>
<path d="M81.5764 47.3587C81.5074 46.9035 81.1845 46.5278 80.7447 46.3912L76.2009 44.9811C75.4315 41.9406 74.2276 39.0376 72.614 36.3329L74.8328 32.1182C75.0473 31.7108 75.01 31.2167 74.7368 30.8461C73.6225 29.3342 72.381 27.8912 71.0469 26.5571C69.7131 25.2231 68.2701 23.9818 66.7581 22.8672C66.3875 22.594 65.8932 22.5569 65.486 22.7712L61.271 24.9898C58.5659 23.3762 55.6629 22.1722 52.6227 21.4029L51.2127 16.8591C51.0762 16.4194 50.7005 16.0963 50.2453 16.0275C48.3888 15.7465 46.4906 15.604 44.6035 15.604C34.6146 15.604 25.2235 19.4939 18.1603 26.5573C16.3033 28.4141 14.6681 30.4334 13.2629 32.5806H1.20117C0.537805 32.5806 0 33.1184 0 33.7817C0 34.4451 0.537805 34.9829 1.20117 34.9829H11.8171C10.5543 37.2731 9.53827 39.6862 8.78601 42.1899H1.20117C0.537805 42.1899 0 42.7277 0 43.3911C0 44.0545 0.537805 44.5923 1.20117 44.5923H8.15211C7.61607 46.9367 7.30489 49.3476 7.22817 51.7993H1.20117C0.537805 51.7993 0 52.3371 0 53.0005C0 53.6639 0.537805 54.2017 1.20117 54.2017H16.844C17.4753 68.9684 29.6842 80.7876 44.6035 80.7876C59.9253 80.7876 72.3906 68.3223 72.3906 53.0005C72.3906 37.6787 59.9253 25.2134 44.6035 25.2134C29.6842 25.2134 17.4754 37.0326 16.844 51.7993H9.63228C10.2679 33.0577 25.7099 18.0063 44.6035 18.0063C46.12 18.0063 47.6439 18.1047 49.1441 18.2988L50.5304 22.7664C50.6571 23.1748 50.9913 23.485 51.4079 23.5809C54.6581 24.3295 57.7472 25.6106 60.5898 27.3888C60.9521 27.6157 61.4081 27.6324 61.7864 27.4333L65.9306 25.2518C67.129 26.1756 68.2762 27.1838 69.3481 28.2557C70.4202 29.3278 71.4282 30.4748 72.352 31.6731L70.1705 35.8173C69.9715 36.1958 69.9883 36.6514 70.2151 37.0139C71.9933 39.8561 73.2745 42.9452 74.0231 46.1958C74.1192 46.6125 74.4293 46.9466 74.8377 47.0733L79.3052 48.4596C79.4995 49.9604 79.5977 51.4844 79.5977 53.0005C79.5977 54.5165 79.4995 56.0404 79.3052 57.5411L74.8377 58.9272C74.4293 59.0539 74.1192 59.3882 74.0231 59.8047C73.2744 63.0553 71.9931 66.1445 70.2151 68.9868C69.9883 69.3492 69.9715 69.8049 70.1705 70.1833L72.352 74.3275C71.4282 75.5258 70.4202 76.6729 69.348 77.745C68.2762 78.8169 67.1292 79.8251 65.9306 80.7488L61.7864 78.5674C61.4082 78.3683 60.9523 78.3851 60.5898 78.6119C57.7472 80.3901 54.6581 81.6713 51.4079 82.4198C50.9912 82.5157 50.6571 82.8259 50.5304 83.2343L49.1441 87.7019C47.6441 87.896 46.12 87.9943 44.6035 87.9943C27.1239 87.9943 12.2119 74.9478 9.91704 57.6469C9.82991 56.9895 9.22676 56.5284 8.56836 56.6141C7.91076 56.7014 7.44839 57.3052 7.53551 57.9628C7.68958 59.1247 7.89939 60.274 8.1606 61.4084H1.20117C0.537805 61.4084 0 61.9462 0 62.6095C0 63.2729 0.537805 63.8107 1.20117 63.8107H8.79866C9.55508 66.317 10.5738 68.7317 11.8325 71.0177H1.20117C0.537805 71.0177 0 71.5555 0 72.2189C0 72.8823 0.537805 73.4201 1.20117 73.4201H13.2729C15.1023 76.2233 17.314 78.7922 19.8659 81.0451C26.6968 87.0755 35.482 90.3967 44.6035 90.3967C46.4906 90.3967 48.3888 90.2541 50.2455 89.973C50.7007 89.9042 51.0764 89.5811 51.2128 89.1413L52.6229 84.5976C55.6631 83.8285 58.5661 82.6244 61.2711 81.0107L65.4858 83.2293C65.8934 83.4438 66.3873 83.4065 66.7579 83.1332C68.27 82.0187 69.713 80.7773 71.0466 79.4434C72.3809 78.1093 73.6224 76.6663 74.7366 75.1544C75.0098 74.7838 75.047 74.2897 74.8327 73.8823L72.6139 69.6676C74.2275 66.9629 75.4315 64.0599 76.2007 61.0192L80.7445 59.6093C81.1842 59.4729 81.5074 59.0972 81.5762 58.6418C81.8575 56.7851 82 54.887 82 53.0005C82 51.114 81.8575 49.2158 81.5764 47.3587ZM44.6035 27.6157C58.6007 27.6157 69.9883 39.0033 69.9883 53.0005C69.9883 66.9977 58.6007 78.3853 44.6035 78.3853C30.6063 78.3853 19.2188 66.9977 19.2188 53.0005C19.2188 39.0033 30.6063 27.6157 44.6035 27.6157Z" fill="url(#paint12_linear)"/>
</g>
<defs>
<linearGradient id="paint0_linear" x1="43.4023" y1="51.7993" x2="45.8047" y2="54.2017" gradientUnits="userSpaceOnUse">
<stop stop-color="#C9BBAE"/>
<stop offset="1" stop-color="#9A7F5F"/>
</linearGradient>
<linearGradient id="paint1_linear" x1="43.4023" y1="73.5806" x2="45.8047" y2="75.9829" gradientUnits="userSpaceOnUse">
<stop stop-color="#C9BBAE"/>
<stop offset="1" stop-color="#9A7F5F"/>
</linearGradient>
<linearGradient id="paint2_linear" x1="32.1584" y1="72.563" x2="35.2719" y2="71.2033" gradientUnits="userSpaceOnUse">
<stop stop-color="#C9BBAE"/>
<stop offset="1" stop-color="#9A7F5F"/>
</linearGradient>
<linearGradient id="paint3_linear" x1="54.293" y1="32.936" x2="56.6957" y2="35.3387" gradientUnits="userSpaceOnUse">
<stop stop-color="#C9BBAE"/>
<stop offset="1" stop-color="#9A7F5F"/>
</linearGradient>
<linearGradient id="paint4_linear" x1="62.2656" y1="40.9082" x2="64.6683" y2="43.3109" gradientUnits="userSpaceOnUse">
<stop stop-color="#C9BBAE"/>
<stop offset="1" stop-color="#9A7F5F"/>
</linearGradient>
<linearGradient id="paint5_linear" x1="24.4658" y1="62.8223" x2="27.0868" y2="64.9868" gradientUnits="userSpaceOnUse">
<stop stop-color="#C9BBAE"/>
<stop offset="1" stop-color="#9A7F5F"/>
</linearGradient>
<linearGradient id="paint6_linear" x1="65.1836" y1="51.7993" x2="67.5859" y2="54.2017" gradientUnits="userSpaceOnUse">
<stop stop-color="#C9BBAE"/>
<stop offset="1" stop-color="#9A7F5F"/>
</linearGradient>
<linearGradient id="paint7_linear" x1="62.2656" y1="62.6895" x2="64.6683" y2="65.0921" gradientUnits="userSpaceOnUse">
<stop stop-color="#C9BBAE"/>
<stop offset="1" stop-color="#9A7F5F"/>
</linearGradient>
<linearGradient id="paint8_linear" x1="24.1135" y1="42.5586" x2="27.3759" y2="41.6073" gradientUnits="userSpaceOnUse">
<stop stop-color="#C9BBAE"/>
<stop offset="1" stop-color="#9A7F5F"/>
</linearGradient>
<linearGradient id="paint9_linear" x1="54.293" y1="70.6621" x2="56.6956" y2="73.0648" gradientUnits="userSpaceOnUse">
<stop stop-color="#C9BBAE"/>
<stop offset="1" stop-color="#9A7F5F"/>
</linearGradient>
<linearGradient id="paint10_linear" x1="32.4287" y1="33.0503" x2="35.0497" y2="35.2148" gradientUnits="userSpaceOnUse">
<stop stop-color="#C9BBAE"/>
<stop offset="1" stop-color="#9A7F5F"/>
</linearGradient>
<linearGradient id="paint11_linear" x1="21.6211" y1="30.0181" x2="48.9148" y2="68.7722" gradientUnits="userSpaceOnUse">
<stop stop-color="#C9BBAE"/>
<stop offset="1" stop-color="#9A7F5F"/>
</linearGradient>
<linearGradient id="paint12_linear" x1="0" y1="15.604" x2="74.4772" y2="97.2582" gradientUnits="userSpaceOnUse">
<stop stop-color="#C9BBAE"/>
<stop offset="1" stop-color="#9A7F5F"/>
</linearGradient>
<clipPath id="clip0">
<rect width="82" height="82" fill="white" transform="translate(0 12.0005)"/>
</clipPath>
</defs>
</svg>
