<svg width="495" height="60" viewBox="0 0 495 60" fill="none" xmlns="http://www.w3.org/2000/svg">
<g clip-path="url(#clip0)">
<path d="M5.67207 47.3136V3.78581C5.67207 2.94463 6.65288 2.87433 6.65288 2.87433H10.9944C12.0449 2.87433 12.0449 3.78581 12.0449 3.78581V47.3136C12.0449 48.1548 13.0251 48.2245 13.0251 48.2245H16.6662C17.7166 48.2245 17.7166 47.3136 17.7166 47.3136V2.03316C17.7166 2.03316 17.7166 1.12168 16.6662 1.12168H0.980563C0.980563 1.12168 -0.000244141 1.19198 -0.000244141 2.03316V47.3136C-0.000244141 48.1548 0.980563 48.2245 0.980563 48.2245H4.62164C5.67146 48.2245 5.67146 47.3136 5.67146 47.3136H5.67207ZM26.2593 5.95844C23.3181 9.74373 22.6878 16.3319 22.6878 19.5566C22.6878 27.6169 26.3991 35.3978 27.7293 41.5654C28.7797 46.3318 28.0798 49.2062 29.62 49.2062C33.3313 49.2062 35.7125 45.0707 36.7629 43.6689C40.1237 39.463 40.3338 31.4725 40.3338 30.1404C40.3338 21.0287 36.1327 13.4581 35.1519 8.13168C34.2419 3.15493 35.0816 0.490798 33.401 0.490798C30.4604 0.490798 28.1494 3.50522 26.2586 5.95844H26.2593ZM29.6903 11.9164C30.5306 14.5096 32.1411 18.084 34.452 25.0934C35.1525 27.2666 36.973 31.0513 36.1327 38.0607C35.8524 39.1824 35.5727 41.846 34.5919 41.846C34.0318 41.846 34.2419 40.3739 33.2617 37.7104C30.8805 31.4022 30.6711 30.701 28.5702 24.6734C26.539 18.6452 26.539 16.8925 26.9591 11.6358C27.099 10.094 27.5192 7.85047 28.4297 7.85047C28.7803 7.85047 28.5 8.41105 29.6903 11.9164ZM57.4204 45.561C57.4204 45.561 57.4204 46.4718 56.3699 46.4718H52.0284C52.0284 46.4718 51.0476 46.4015 51.0476 45.561V28.1775C51.0476 27.6866 51.0476 27.2666 52.0284 27.2666C53.8489 27.2666 55.9498 26.3551 57.4204 24.8831V45.561ZM48.5271 59.0888V49.1353C48.5271 48.2942 49.5079 48.2245 49.5079 48.2245H58.891C59.9414 48.2245 59.9414 49.1353 59.9414 49.1353V59.0185C59.9414 59.5094 60.361 60.0003 60.9216 60.0003C61.5518 60.0003 61.8322 59.5094 62.1119 59.0185L65.6131 49.4856C65.8928 48.7147 65.8928 48.2239 65.4726 48.2239H64.0723C64.0723 48.2239 63.0921 48.1536 63.0921 47.313V2.03255C63.0921 2.03255 63.0921 1.12107 62.0416 1.12107H46.8465C46.8465 1.12107 45.8656 1.19137 45.8656 2.03255V13.4575C45.8656 13.9484 46.2858 14.4387 46.8465 14.4387C47.4767 14.4387 47.7564 14.0187 48.0367 13.4575L51.0476 3.78459C51.3279 2.94341 52.0284 2.87311 52.0284 2.87311H56.3699C57.4204 2.87311 57.4204 3.78459 57.4204 3.78459V19.976C57.4204 23.2704 54.3393 25.5133 51.0476 25.5133H46.356C46.356 25.5133 45.3752 25.5836 45.3752 26.4242V47.3124C45.3752 47.3124 45.3752 48.2232 44.3254 48.2232H42.9953C42.9953 48.2232 42.365 48.2935 42.7846 49.485L46.356 59.0179C46.356 59.0179 46.6358 59.9997 47.4767 59.9997C48.4569 59.9997 48.5265 59.0882 48.5265 59.0882L48.5271 59.0888ZM80.8089 45.561C80.8089 45.561 80.8089 46.4718 79.7585 46.4718H75.4169C75.4169 46.4718 74.4361 46.4015 74.4361 45.561V24.8831C75.8371 26.3551 77.8677 27.2666 79.7585 27.2666C80.8089 27.2666 80.8089 28.1775 80.8089 28.1775V45.561ZM84.9398 1.12168H69.7446C69.7446 1.12168 68.7638 1.19198 68.7638 2.03316V47.3136C68.7638 48.1548 69.7446 48.2245 69.7446 48.2245H85.4302C86.4806 48.2245 86.4806 47.3136 86.4806 47.3136V26.4254C86.4806 26.4254 86.4806 25.5146 85.4302 25.5146H80.8089C77.4475 25.5146 74.4361 23.2716 74.4361 19.9772V3.78581C74.4361 2.94463 75.4169 2.87433 75.4169 2.87433H79.7585C79.7585 2.87433 80.459 2.94463 80.7387 3.78581L83.7501 13.4587C84.0304 14.0193 84.3101 14.4399 84.9404 14.4399C85.5004 14.4399 85.9212 13.9496 85.9212 13.4587V2.03377C85.9212 1.19259 84.9404 1.12229 84.9404 1.12229L84.9398 1.12168ZM95.0233 5.95844C92.0821 9.74373 91.4518 16.3319 91.4518 19.5566C91.4518 27.6169 95.1631 35.3978 96.4933 41.5654C97.5437 46.3318 96.8438 49.2062 98.384 49.2062C102.095 49.2062 104.477 45.0707 105.527 43.6689C108.888 39.463 109.098 31.4725 109.098 30.1404C109.098 21.0287 104.897 13.4581 103.916 8.13168C103.006 3.15493 103.846 0.490798 102.165 0.490798C99.2244 0.490798 96.9134 3.50522 95.0227 5.95844H95.0233ZM98.4543 11.9164C99.2946 14.5096 100.905 18.084 103.216 25.0934C103.916 27.2666 105.737 31.0513 104.897 38.0607C104.616 39.1824 104.337 41.846 103.356 41.846C102.796 41.846 103.006 40.3739 102.026 37.7104C99.6446 31.4022 99.4351 30.701 97.3342 24.6734C95.303 18.6452 95.303 16.8925 95.7232 11.6358C95.863 10.094 96.2832 7.85047 97.1938 7.85047C97.5443 7.85047 97.264 8.41105 98.4543 11.9164ZM131.926 22.9207V2.03316C131.926 2.03316 131.926 1.12168 130.876 1.12168H115.121C115.121 1.12168 114.14 1.19198 114.14 2.03316V47.3136C114.14 48.1548 115.121 48.2245 115.121 48.2245H118.762C119.812 48.2245 119.812 47.3136 119.812 47.3136V29.3695C119.812 26.0751 122.823 23.8322 126.184 23.8322H130.876C131.926 23.8322 131.926 22.9213 131.926 22.9213V22.9207ZM125.134 22.0796C123.383 22.0796 121.213 22.9207 119.812 24.3922V3.7852C119.812 2.94402 120.792 2.87372 120.792 2.87372H125.134C126.184 2.87372 126.184 3.7852 126.184 3.7852V21.1681C126.184 21.1681 126.184 22.0796 125.134 22.0796ZM169.879 17.5931V47.313C169.879 48.1542 170.859 48.2239 170.859 48.2239H174.5C175.551 48.2239 175.551 47.313 175.551 47.313V2.03255C175.551 2.03255 175.551 1.12107 174.5 1.12107H170.859C170.859 1.12107 169.879 1.19137 169.879 2.03255V11.4249C169.879 12.5466 169.249 14.2284 168.689 15.3501L163.507 26.0745V2.03255C163.507 2.03255 163.507 1.12107 162.457 1.12107H158.816C158.816 1.12107 157.835 1.19137 157.835 2.03255V47.313C157.835 48.1542 158.816 48.2239 158.816 48.2239H162.457C163.507 48.2239 163.507 47.313 163.507 47.313V31.8222C163.507 29.9295 164.278 28.5981 164.628 27.8969L169.88 17.5931H169.879ZM192.217 27.6163C193.267 27.6163 193.267 28.5278 193.267 28.5278V47.313C193.267 48.1542 194.247 48.2239 194.247 48.2239H197.888C198.939 48.2239 198.939 47.313 198.939 47.313V26.4248C198.939 26.4248 198.939 25.5139 197.888 25.5139H193.267C189.906 25.5139 186.894 23.271 186.894 19.9766C186.894 16.6822 189.906 14.4393 193.267 14.4393H197.398C198.448 14.4393 198.448 13.5284 198.448 13.5284V2.03316C198.448 2.03316 198.448 1.12168 197.398 1.12168H194.247C194.247 1.12168 193.266 1.19198 193.266 2.03316V11.3558C193.266 12.2666 192.216 12.2666 192.216 12.2666C190.465 12.2666 188.295 13.1775 186.894 14.6502V2.03316C186.894 2.03316 186.894 1.12168 185.844 1.12168H182.203C182.203 1.12168 181.222 1.19198 181.222 2.03316V47.3136C181.222 48.1548 182.203 48.2245 182.203 48.2245H185.844C186.894 48.2245 186.894 47.3136 186.894 47.3136V25.234C188.295 26.706 190.535 27.6169 192.216 27.6169L192.217 27.6163ZM207.482 5.95783C204.541 9.74312 203.911 16.3313 203.911 19.556C203.911 27.6163 207.622 35.3971 208.952 41.5648C210.003 46.3312 209.303 49.2056 210.843 49.2056C214.554 49.2056 216.935 45.0701 217.986 43.6683C221.347 39.4624 221.557 31.4719 221.557 30.1398C221.557 21.0281 217.356 13.4575 216.375 8.13107C215.465 3.15432 216.304 0.490187 214.624 0.490187C211.683 0.490187 209.372 3.5046 207.481 5.95783H207.482ZM210.913 11.9158C211.753 14.509 213.364 18.0834 215.675 25.0927C216.375 27.266 218.196 31.0507 217.356 38.0601C217.075 39.1818 216.795 41.8453 215.815 41.8453C215.255 41.8453 215.465 40.3733 214.485 37.7098C212.103 31.4016 211.894 30.7004 209.793 24.6728C207.762 18.6445 207.762 16.8919 208.182 11.6352C208.322 10.0934 208.742 7.84986 209.653 7.84986C210.003 7.84986 209.723 8.41044 210.913 11.9158ZM238.643 27.406V47.313C238.643 48.1542 239.623 48.2239 239.623 48.2239H243.264C244.315 48.2239 244.315 47.313 244.315 47.313V2.03255C244.315 2.03255 244.315 1.12107 243.264 1.12107H239.623C239.623 1.12107 238.643 1.19137 238.643 2.03255V24.2522C236.542 23.6916 232.27 21.4487 232.27 18.9251V2.03255C232.27 2.03255 232.27 1.12107 231.221 1.12107H227.579C227.579 1.12107 226.599 1.19137 226.599 2.03255V47.313C226.599 48.1542 227.579 48.2239 227.579 48.2239H231.221C232.27 48.2239 232.27 47.313 232.27 47.313V22.9904C234.441 25.9345 238.643 25.3036 238.643 27.4066V27.406ZM266.652 25.5133H262.031C258.67 25.5133 255.658 23.2704 255.658 19.976V2.03255C255.658 2.03255 255.658 1.12107 254.608 1.12107H250.967C250.967 1.12107 249.987 1.19137 249.987 2.03255V47.313C249.987 48.1542 250.967 48.2239 250.967 48.2239H266.653C267.703 48.2239 267.703 47.313 267.703 47.313V26.4248C267.703 26.4248 267.703 25.5139 266.653 25.5139L266.652 25.5133ZM274.005 2.03193V47.3124C274.005 48.1536 274.986 48.2232 274.986 48.2232H278.627C279.677 48.2232 279.677 47.3124 279.677 47.3124V2.03193C279.677 2.03193 279.677 1.12046 278.627 1.12046H274.986C274.986 1.12046 274.005 1.19076 274.005 2.03193ZM255.659 24.8825C257.06 26.3545 259.23 27.266 260.981 27.266C262.032 27.266 262.032 28.1769 262.032 28.1769V45.5603C262.032 45.5603 262.032 46.4712 260.981 46.4712H256.64C256.64 46.4712 255.659 46.4009 255.659 45.5603V24.8825ZM312.098 47.3124V3.78459C312.098 2.94341 313.079 2.87311 313.079 2.87311H317.42C318.471 2.87311 318.471 3.78459 318.471 3.78459V47.3124C318.471 48.1536 319.451 48.2232 319.451 48.2232H323.092C324.143 48.2232 324.143 47.3124 324.143 47.3124V2.03193C324.143 2.03193 324.143 1.12046 323.092 1.12046H307.407C307.407 1.12046 306.426 1.19076 306.426 2.03193V47.3124C306.426 48.1536 307.407 48.2232 307.407 48.2232H311.048C312.097 48.2232 312.097 47.3124 312.097 47.3124H312.098ZM332.685 5.95722C329.744 9.74251 329.114 16.3307 329.114 19.5554C329.114 27.6157 332.825 35.3965 334.155 41.5641C335.206 46.3306 334.506 49.205 336.046 49.205C339.757 49.205 342.139 45.0694 343.189 43.6677C346.55 39.4618 346.76 31.4713 346.76 30.1392C346.76 21.0275 342.559 13.4569 341.578 8.13046C340.668 3.15371 341.508 0.489575 339.827 0.489575C336.886 0.489575 334.575 3.50399 332.685 5.95722H332.685ZM336.116 11.9151C336.957 14.5084 338.567 18.0827 340.878 25.0921C341.578 27.2654 343.399 31.0501 342.559 38.0594C342.278 39.1812 341.999 41.8447 341.018 41.8447C340.458 41.8447 340.668 40.3727 339.688 37.7092C337.307 31.401 337.097 30.6998 334.996 24.6722C332.965 18.6439 332.965 16.8913 333.385 11.6345C333.525 10.0928 333.945 7.84925 334.856 7.84925C335.206 7.84925 334.926 8.40983 336.116 11.9151ZM384.853 17.5925V47.3124C384.853 48.1536 385.833 48.2232 385.833 48.2232H389.474C390.525 48.2232 390.525 47.3124 390.525 47.3124V2.03193C390.525 2.03193 390.525 1.12046 389.474 1.12046H385.833C385.833 1.12046 384.853 1.19076 384.853 2.03193V11.4242C384.853 12.546 384.223 14.2278 383.663 15.3495L378.481 26.0739V2.03193C378.481 2.03193 378.481 1.12046 377.431 1.12046H373.79C373.79 1.12046 372.809 1.19076 372.809 2.03193V47.3124C372.809 48.1536 373.79 48.2232 373.79 48.2232H377.431C378.481 48.2232 378.481 47.3124 378.481 47.3124V31.8215C378.481 29.9289 379.252 28.5974 379.602 27.8963L384.854 17.5925H384.853ZM414.263 6.09721L422.876 47.2421C423.086 48.1536 423.856 48.1536 423.856 48.1536H427.567C428.618 48.1536 428.618 47.2421 428.618 47.2421L419.164 2.03193C419.164 2.03193 419.024 1.12046 418.114 1.12046H414.543C414.543 1.12046 413.843 1.19076 413.562 2.03193L409.571 14.4967L406.91 2.03193C406.91 2.03193 406.77 1.12046 405.86 1.12046H402.288C402.288 1.12046 401.098 1.19076 401.308 2.38222L402.428 7.83825C400.748 12.7447 399.838 15.0579 397.597 22.6866C395.846 28.6323 394.935 32.7569 394.935 38.0839C394.935 43.329 397.386 48.2239 398.297 48.2239L403.408 48.1536C404.459 48.1536 404.459 47.2421 404.459 47.2421C403.408 46.4712 400.257 41.0158 400.257 35.6301C400.257 25.3379 401.797 15.7469 403.198 11.4829L410.62 47.2421C410.831 48.1536 411.601 48.1536 411.601 48.1536H415.313C416.362 48.1536 416.362 47.2421 416.362 47.2421L410.341 18.691L414.262 6.09782L414.263 6.09721ZM436.741 48.6444C441.712 48.6444 448.504 40.7236 448.504 31.7519C448.504 31.261 448.154 30.7004 447.524 30.7004H443.883C443.253 30.7004 442.902 31.121 442.902 31.7519C442.902 37.8504 443.673 44.6489 438.141 46.8918C443.673 42.8968 438.842 29.7192 437.721 24.8121C437.23 22.7092 438.771 21.3771 440.242 21.3771C441.712 21.3771 442.903 22.5686 442.903 24.0413V26.5648C442.903 27.0551 443.533 27.546 443.884 27.546H447.525C447.944 27.546 448.505 27.1957 448.505 26.5648V23.3407C448.505 19.836 446.404 16.9616 442.903 16.9616C439.332 16.9616 437.372 19.6954 436.951 20.7469C436.811 19.2748 436.531 16.5416 436.531 15.1398C436.531 5.47855 437.721 2.17254 439.682 2.17254C441.783 2.17254 442.903 5.75915 442.903 13.4459C442.903 14.0065 443.253 14.4277 443.884 14.4277H447.525C448.015 14.4277 448.505 14.0768 448.505 13.4459C448.505 6.03975 446.264 -9.15527e-05 439.682 -9.15527e-05C431.98 -9.15527e-05 430.859 9.35738 430.859 15.1398C430.859 28.878 438.562 38.6212 438.562 43.598C438.562 45.21 437.651 46.5415 436.951 47.0324H436.25C437.02 46.3312 437.441 45.4203 437.441 44.2289C437.441 42.4065 435.69 41.1448 434.079 41.1448C432.959 41.1448 430.858 42.0556 430.858 44.3689C430.858 46.8924 433.379 48.6444 436.741 48.6444ZM465.941 27.406V47.313C465.941 48.1542 466.921 48.2239 466.921 48.2239H470.562C471.612 48.2239 471.612 47.313 471.612 47.313V2.03255C471.612 2.03255 471.612 1.12107 470.562 1.12107H466.921C466.921 1.12107 465.941 1.19137 465.941 2.03255V24.2522C463.84 23.6916 459.568 21.4487 459.568 18.9251V2.03255C459.568 2.03255 459.568 1.12107 458.518 1.12107H454.877C454.877 1.12107 453.896 1.19137 453.896 2.03255V47.313C453.896 48.1542 454.877 48.2239 454.877 48.2239H458.518C459.568 48.2239 459.568 47.313 459.568 47.313V22.9904C461.739 25.9345 465.941 25.3036 465.941 27.4066V27.406ZM489.329 17.5925V47.3124C489.329 48.1536 490.309 48.2232 490.309 48.2232H493.95C495 48.2232 495 47.3124 495 47.3124V2.03193C495 2.03193 495 1.12046 493.95 1.12046H490.309C490.309 1.12046 489.329 1.19076 489.329 2.03193V11.4242C489.329 12.546 488.698 14.2278 488.138 15.3495L482.956 26.0739V2.03193C482.956 2.03193 482.956 1.12046 481.907 1.12046H478.266C478.266 1.12046 477.285 1.19076 477.285 2.03193V47.3124C477.285 48.1536 478.266 48.2232 478.266 48.2232H481.907C482.956 48.2232 482.956 47.3124 482.956 47.3124V31.8215C482.956 29.9289 483.727 28.5974 484.077 27.8963L489.329 17.5925H489.329Z" fill="#473512"/>
</g>
<defs>
<clipPath id="clip0">
<rect width="495" height="60" fill="white"/>
</clipPath>
</defs>
</svg>
