<svg width="18" height="18" viewBox="0 0 18 18" fill="none" xmlns="http://www.w3.org/2000/svg">
<path d="M18 9C18 4.03756 13.9624 0 9 0C4.03756 0 0 4.03756 0 9C0 11.6211 1.12713 13.9837 2.92124 15.6299L2.91273 15.6374L3.20465 15.8835C3.22364 15.8996 3.24425 15.9127 3.26324 15.9284C3.41836 16.057 3.57905 16.1791 3.74269 16.2972C3.79571 16.3355 3.84873 16.3738 3.90273 16.4111C4.07749 16.5315 4.25684 16.6457 4.44011 16.7541C4.48004 16.7776 4.52029 16.8005 4.56055 16.8235C4.76116 16.9377 4.96604 17.0453 5.17582 17.1442C5.1912 17.1514 5.20691 17.1579 5.22229 17.1651C5.90596 17.4829 6.63578 17.7163 7.39898 17.854C7.41894 17.8576 7.43891 17.8612 7.4592 17.8648C7.69615 17.9057 7.93571 17.9385 8.17822 17.9604C8.20767 17.963 8.23713 17.9647 8.26691 17.9673C8.50844 17.9872 8.75258 18 9 18C9.24513 18 9.48698 17.9872 9.7272 17.9679C9.75764 17.9653 9.78807 17.9637 9.81851 17.9611C10.0591 17.9391 10.2967 17.9074 10.5313 17.8671C10.5516 17.8635 10.5722 17.8599 10.5925 17.856C11.3443 17.7212 12.0636 17.4931 12.7384 17.1835C12.7633 17.172 12.7885 17.1612 12.8134 17.1494C13.0153 17.0545 13.2127 16.9521 13.4061 16.8431C13.4542 16.8159 13.502 16.7884 13.5497 16.7603C13.7258 16.6565 13.8989 16.5482 14.0672 16.433C14.1277 16.3918 14.1869 16.3483 14.2468 16.3051C14.3905 16.2016 14.5316 16.0949 14.6687 15.9833C14.6991 15.9588 14.7319 15.9375 14.7616 15.9123L15.0611 15.6623L15.0523 15.6548C16.8621 14.0079 18 11.6345 18 9ZM0.654545 9C0.654545 4.39822 4.39822 0.654545 9 0.654545C13.6018 0.654545 17.3455 4.39822 17.3455 9C17.3455 11.4797 16.2573 13.7091 14.5345 15.2388C14.4383 15.1724 14.3414 15.1128 14.2423 15.0631L11.4712 13.6777C11.2225 13.5533 11.068 13.3033 11.068 13.0255V12.0577C11.1322 11.9785 11.1999 11.8888 11.27 11.7903C11.6287 11.2837 11.9163 10.7201 12.1261 10.1137C12.5408 9.91669 12.8085 9.50367 12.8085 9.03731V7.87713C12.8085 7.59338 12.7044 7.31815 12.5182 7.10182V5.57444C12.5352 5.40425 12.5954 4.446 11.9019 3.65531C11.2988 2.96673 10.3225 2.61818 9 2.61818C7.67749 2.61818 6.70124 2.96673 6.09807 3.65498C5.40458 4.44567 5.4648 5.40458 5.48182 5.57411V7.10149C5.29593 7.31782 5.19153 7.59305 5.19153 7.8768V9.03698C5.19153 9.39731 5.3532 9.73342 5.63007 9.96022C5.89516 10.9987 6.44073 11.7848 6.64233 12.0512V12.9983C6.64233 13.2653 6.49669 13.5108 6.26204 13.6391L3.67429 15.0506C3.59182 15.0955 3.51 15.1478 3.42818 15.2064C1.72669 13.6774 0.654545 11.4617 0.654545 9Z" fill="#473512"/>
</svg>
