<svg width="20" height="20" viewBox="0 0 20 20" fill="none" xmlns="http://www.w3.org/2000/svg">
<g clip-path="url(#clip0)">
<path d="M12.0003 0H7.9998C4.13945 0 0.998901 3.14055 0.998901 7.0009V10.0013C0.998901 12.7115 2.56195 15.171 4.99941 16.3279V19.6692C4.99941 19.9593 5.36234 20.111 5.56851 19.9049L8.47121 17.0022H12.0003C15.8606 17.0022 19.0012 13.8616 19.0012 10.0013V7.0009C19.0012 3.14055 15.8606 0 12.0003 0Z" fill="#7360F2"/>
<path d="M8.18632 7.18131L8.51225 6.85533L8.51261 6.85498L8.18628 7.18127L8.18632 7.18131Z" fill="white"/>
<path d="M11.8125 10.1552L11.4834 10.4844L11.4835 10.4844L11.8126 10.1553L11.8125 10.1552Z" fill="white"/>
<path d="M10.6669 5.66724C10.4828 5.66724 10.3335 5.81649 10.3335 6.0006C10.3335 6.1847 10.4828 6.33395 10.6669 6.33395C11.4022 6.33395 12.0004 6.93216 12.0004 7.66747C12.0004 7.84911 12.1521 8.00083 12.3337 8.00083C12.5154 8.00083 12.6671 7.84911 12.6671 7.66747C12.6671 6.5645 11.7698 5.66724 10.6669 5.66724Z" fill="white"/>
<path d="M10.6668 4.33374C10.5435 4.33374 10.419 4.34058 10.2968 4.35405C10.1138 4.37425 9.98185 4.53897 10.002 4.72202C10.0222 4.90507 10.1873 5.03671 10.37 5.01683C10.468 5.00601 10.5678 5.0005 10.6668 5.0005C12.1374 5.0005 13.3338 6.1969 13.3338 7.66749C13.3338 7.76651 13.3283 7.86636 13.3175 7.96433C13.2976 8.14483 13.4317 8.31241 13.6123 8.3323C13.7928 8.35218 13.9603 8.21808 13.9803 8.03749C13.9937 7.9153 14.0006 7.79085 14.0006 7.66749C14.0006 5.82929 12.5051 4.33374 10.6668 4.33374Z" fill="white"/>
<path d="M10.6673 3.00024C10.5482 3.00024 10.4275 3.00478 10.3088 3.0138C10.1252 3.02771 9.98761 3.18786 10.0015 3.37142C10.0154 3.55501 10.1761 3.69259 10.3591 3.67868C10.4612 3.67091 10.5649 3.667 10.6673 3.667C12.8732 3.667 14.6678 5.46161 14.6678 7.66751C14.6678 7.97962 14.6318 8.29032 14.5608 8.59095C14.5201 8.76321 14.6262 8.94228 14.797 8.98907C14.9767 9.03829 15.1669 8.9256 15.2097 8.74431C15.2926 8.39349 15.3346 8.03122 15.3346 7.66751C15.3346 5.09396 13.2409 3.00024 10.6673 3.00024Z" fill="white"/>
<path d="M15.6248 12.7144C15.3872 13.3838 14.4439 13.939 13.6915 14.1011C13.1768 14.2104 12.5045 14.2976 10.2412 13.3617C7.34615 12.1654 5.48182 9.2312 5.33651 9.04082C5.19737 8.85045 4.16669 7.48712 4.16669 6.07711C4.16669 4.66711 4.88459 3.98053 5.17397 3.68575C5.41163 3.44379 5.80444 3.33325 6.18125 3.33325C6.30316 3.33325 6.41275 3.33939 6.51126 3.34431C6.80064 3.35659 6.94595 3.37378 7.13681 3.82946C7.37447 4.40058 7.95323 5.81059 8.02219 5.95552C8.09238 6.10045 8.16257 6.29696 8.06405 6.48734C7.9717 6.68386 7.89043 6.77106 7.74512 6.9381C7.59982 7.10514 7.4619 7.23287 7.3166 7.41219C7.18361 7.56818 7.03338 7.73522 7.20085 8.02385C7.36832 8.30634 7.94707 9.24839 8.7992 10.005C9.89883 10.9814 10.7904 11.2934 11.1093 11.426C11.347 11.5243 11.6302 11.501 11.8038 11.3167C12.0242 11.0797 12.2964 10.6866 12.5734 10.2998C12.7704 10.0222 13.0192 9.98779 13.2802 10.086C13.5462 10.1782 14.9537 10.8721 15.2431 11.0158C15.5325 11.1607 15.7233 11.2295 15.7935 11.3511C15.8625 11.4727 15.8625 12.0438 15.6248 12.7144Z" fill="white"/>
</g>
<defs>
<clipPath id="clip0">
<rect width="20" height="20" fill="white"/>
</clipPath>
</defs>
</svg>
