<svg width="23" height="22" viewBox="0 0 23 22" fill="none" xmlns="http://www.w3.org/2000/svg">
<g clip-path="url(#clip0)">
<path d="M22.4389 16.0599C22.4123 16.0025 22.3874 15.9549 22.3644 15.9168C21.9827 15.2293 21.2533 14.3855 20.1766 13.3851L20.1538 13.3622L20.1424 13.351L20.1309 13.3395H20.1194C19.6307 12.8736 19.3212 12.5604 19.1917 12.4001C18.9546 12.0946 18.9014 11.7854 19.031 11.4721C19.1226 11.2354 19.4665 10.7355 20.0619 9.97173C20.3752 9.56696 20.6232 9.24256 20.8064 8.99815C22.1276 7.2417 22.7004 6.11931 22.5247 5.63053L22.4564 5.51631C22.4106 5.44755 22.2922 5.38464 22.1015 5.32727C21.9104 5.27002 21.6661 5.26055 21.3682 5.2987L18.0694 5.32149C18.016 5.30255 17.9396 5.30432 17.8402 5.32727C17.7409 5.35022 17.6913 5.36173 17.6913 5.36173L17.6339 5.39042L17.5883 5.42488C17.5501 5.44767 17.5081 5.48775 17.4622 5.54504C17.4166 5.60213 17.3784 5.66913 17.348 5.74548C16.9888 6.66947 16.5805 7.52856 16.1222 8.32269C15.8396 8.79622 15.5801 9.20661 15.3431 9.55409C15.1065 9.90144 14.9079 10.1574 14.7477 10.3214C14.5872 10.4856 14.4424 10.6172 14.3123 10.7166C14.1824 10.816 14.0833 10.858 14.0146 10.8426C13.9458 10.8272 13.881 10.812 13.8197 10.7968C13.7129 10.728 13.6269 10.6345 13.5621 10.5161C13.4971 10.3978 13.4532 10.2488 13.4303 10.0693C13.4076 9.88977 13.3941 9.73531 13.3902 9.60544C13.3866 9.47573 13.3883 9.29226 13.396 9.05556C13.404 8.81873 13.4076 8.65849 13.4076 8.57448C13.4076 8.28426 13.4132 7.96927 13.4246 7.62946C13.4361 7.28965 13.4455 7.0204 13.4533 6.82205C13.4611 6.6235 13.4647 6.41343 13.4647 6.19197C13.4647 5.97051 13.4512 5.79683 13.4246 5.67077C13.3982 5.54488 13.3578 5.42267 13.3046 5.3042C13.251 5.18584 13.1727 5.09429 13.0698 5.0293C12.9667 4.96438 12.8386 4.91287 12.6861 4.8746C12.2813 4.783 11.7659 4.73345 11.1396 4.72575C9.7193 4.71051 8.8067 4.80222 8.40197 5.00077C8.24161 5.08466 8.0965 5.19928 7.96675 5.34428C7.82926 5.51234 7.81008 5.60405 7.90934 5.61914C8.36759 5.68778 8.69199 5.85199 8.88292 6.11161L8.95173 6.24918C9.00525 6.34844 9.05869 6.52416 9.11217 6.77611C9.16557 7.02806 9.20003 7.30678 9.2152 7.61209C9.25331 8.16963 9.25331 8.6469 9.2152 9.04392C9.17696 9.44111 9.14085 9.75031 9.10639 9.97177C9.07193 10.1932 9.02041 10.3727 8.95173 10.5101C8.88292 10.6476 8.83715 10.7316 8.8142 10.7621C8.79129 10.7925 8.77219 10.8118 8.75703 10.8193C8.65777 10.8573 8.55454 10.8767 8.4477 10.8767C8.3407 10.8767 8.21096 10.8232 8.05826 10.7162C7.90561 10.6093 7.74717 10.4624 7.58296 10.2752C7.41875 10.0881 7.23356 9.82654 7.0273 9.49058C6.82121 9.15461 6.60737 8.75755 6.38591 8.29938L6.20268 7.96711C6.08814 7.75335 5.93167 7.4421 5.73312 7.03364C5.53445 6.62502 5.35884 6.22976 5.20619 5.84794C5.14516 5.68758 5.05349 5.5655 4.93133 5.48149L4.87399 5.44702C4.83588 5.41653 4.7747 5.38416 4.69077 5.34965C4.60672 5.31519 4.51901 5.29048 4.4273 5.27527L1.28877 5.29806C0.968054 5.29806 0.750444 5.37072 0.635862 5.51583L0.590005 5.58447C0.567096 5.62271 0.555542 5.68377 0.555542 5.76782C0.555542 5.85183 0.57845 5.95494 0.624307 6.07703C1.08248 7.15384 1.58072 8.19234 2.11905 9.19269C2.65738 10.193 3.12517 10.9988 3.52216 11.6094C3.91922 12.2204 4.32395 12.797 4.73634 13.339C5.14874 13.8812 5.42171 14.2287 5.55527 14.3814C5.68899 14.5343 5.79402 14.6487 5.87037 14.725L6.15679 14.9999C6.34005 15.1832 6.60918 15.4027 6.96428 15.6585C7.31946 15.9144 7.71267 16.1663 8.14412 16.4147C8.57565 16.6627 9.07767 16.8651 9.65046 17.0216C10.2232 17.1782 10.7806 17.2411 11.3228 17.2108H12.6401C12.9073 17.1877 13.1097 17.1037 13.2472 16.9587L13.2928 16.9013C13.3235 16.8557 13.3521 16.7849 13.3786 16.6896C13.4054 16.5942 13.4187 16.489 13.4187 16.3747C13.4109 16.0463 13.4359 15.7505 13.493 15.487C13.5501 15.2237 13.6152 15.0251 13.688 14.8914C13.7607 14.7578 13.8428 14.6451 13.9342 14.5537C14.0257 14.4621 14.091 14.4066 14.1292 14.3875C14.1673 14.3683 14.1976 14.3553 14.2205 14.3474C14.4038 14.2864 14.6195 14.3455 14.8679 14.5251C15.1161 14.7046 15.3489 14.9262 15.5667 15.1895C15.7844 15.4531 16.0459 15.7488 16.3513 16.0771C16.6569 16.4055 16.9241 16.6497 17.1531 16.8103L17.3821 16.9477C17.535 17.0394 17.7335 17.1234 17.978 17.1998C18.2219 17.2761 18.4357 17.2952 18.6192 17.257L21.5515 17.2113C21.8415 17.2113 22.0672 17.1633 22.2272 17.068C22.3876 16.9726 22.4829 16.8674 22.5137 16.753C22.5443 16.6385 22.546 16.5086 22.5195 16.3634C22.4923 16.2185 22.4656 16.1172 22.4389 16.0599Z" fill="#2787F5"/>
</g>
<defs>
<clipPath id="clip0">
<rect width="22" height="22" fill="white" transform="translate(0.555542)"/>
</clipPath>
</defs>
</svg>
