<svg width="23" height="22" viewBox="0 0 23 22" fill="none" xmlns="http://www.w3.org/2000/svg">
<g clip-path="url(#clip0)">
<path d="M22.6543 9.15824C22.6463 8.71633 22.6113 8.15759 22.5501 7.48253C22.4886 6.80708 22.4006 6.20345 22.2861 5.67158C22.1551 5.07418 21.8707 4.57078 21.4329 4.16155C20.9951 3.75223 20.4855 3.51496 19.9043 3.44938C18.0872 3.24492 15.3413 3.14258 11.6666 3.14258C7.99188 3.14258 5.24598 3.24492 3.42901 3.44938C2.84782 3.51492 2.34029 3.75223 1.90664 4.16155C1.47281 4.57065 1.19043 5.07405 1.05945 5.67158C0.936813 6.20362 0.844621 6.80721 0.78326 7.48253C0.721985 8.15759 0.687155 8.71611 0.679028 9.15824C0.670729 9.60019 0.666687 10.214 0.666687 10.9998C0.666687 11.7855 0.670729 12.3994 0.679071 12.8413C0.687198 13.2835 0.722028 13.8419 0.783303 14.5169C0.844664 15.1923 0.932685 15.796 1.04728 16.3279C1.17826 16.9255 1.46262 17.4288 1.90049 17.8379C2.33844 18.2471 2.84804 18.4844 3.42905 18.55C5.24602 18.7546 7.99175 18.8569 11.6667 18.8569C15.3417 18.8569 18.0872 18.7546 19.9043 18.55C20.4856 18.4845 20.9929 18.2471 21.4267 17.8379C21.8606 17.4288 22.1428 16.9252 22.2738 16.3279C22.3965 15.796 22.4886 15.1923 22.5501 14.5169C22.6113 13.842 22.646 13.2832 22.6543 12.8413C22.6625 12.3994 22.6666 11.7855 22.6666 10.9998C22.6666 10.214 22.6626 9.60019 22.6543 9.15824ZM16.0127 11.6627L9.72706 15.5912C9.61242 15.673 9.47314 15.7139 9.30953 15.7139C9.18685 15.7139 9.06 15.681 8.92906 15.6156C8.65902 15.4684 8.52405 15.2392 8.52405 14.9282V7.07132C8.52405 6.76047 8.65907 6.5312 8.92906 6.38392C9.2074 6.23639 9.47332 6.24464 9.72706 6.40847L16.0127 10.337C16.2582 10.4758 16.3809 10.697 16.3809 10.9998C16.3809 11.3025 16.2581 11.5237 16.0127 11.6627Z" fill="#FF0000"/>
</g>
<defs>
<clipPath id="clip0">
<rect width="22" height="22" fill="white" transform="translate(0.666687)"/>
</clipPath>
</defs>
</svg>
